<svg xmlns="http://www.w3.org/2000/svg" width="100" height="100" viewBox="0 0 100 100">
  <g id="Grupo_968974" data-name="Grupo 968974" transform="translate(-750 -1617)">
    <circle id="Elipse_4733" data-name="Elipse 4733" cx="50" cy="50" r="50" transform="translate(750 1617)" fill="#b3eeef"/>
    <g id="textil" transform="translate(725.759 1633.5)">
      <g id="Grupo_968972" data-name="Grupo 968972" transform="translate(53.241 7.5)">
        <g id="Grupo_968966" data-name="Grupo 968966" transform="translate(3.47 0)">
          <path id="Trazado_722477" data-name="Trazado 722477" d="M86.232,10.438V8.5a1,1,0,0,1,1-1h10.94a1,1,0,0,1,1,1v1.937" transform="translate(-86.232 -7.5)" fill="none" stroke="#9f0925" stroke-linecap="round" stroke-linejoin="round" stroke-miterlimit="10" stroke-width="2"/>
        </g>
        <g id="Grupo_968971" data-name="Grupo 968971" transform="translate(0 2.938)">
          <g id="Grupo_968969" data-name="Grupo 968969">
            <g id="Grupo_968967" data-name="Grupo 968967" transform="translate(17.411 4.455)">
              <path id="Trazado_722478" data-name="Trazado 722478" d="M218.769,121.041H242.96a1.052,1.052,0,0,0,1.052-1.052V78.84a1.052,1.052,0,0,0-1.052-1.052H231.774" transform="translate(-218.769 -77.788)" fill="none" stroke="#9f0925" stroke-linecap="round" stroke-linejoin="round" stroke-miterlimit="10" stroke-width="2"/>
              <line id="Línea_264" data-name="Línea 264" x1="7.047" transform="translate(2.469)" fill="none" stroke="#9f0925" stroke-linecap="round" stroke-linejoin="round" stroke-miterlimit="10" stroke-width="2"/>
            </g>
            <g id="Grupo_968968" data-name="Grupo 968968">
              <line id="Línea_265" data-name="Línea 265" y1="27.396" transform="translate(19.88 16.561)" fill="none" stroke="#9f0925" stroke-linecap="round" stroke-linejoin="round" stroke-miterlimit="10" stroke-width="2"/>
              <line id="Línea_266" data-name="Línea 266" y2="9.16" transform="translate(0 34.798)" fill="none" stroke="#9f0925" stroke-linecap="round" stroke-linejoin="round" stroke-miterlimit="10" stroke-width="2"/>
              <path id="Trazado_722479" data-name="Trazado 722479" d="M73.122,48.5V37.9a2.469,2.469,0,0,0-2.469-2.469H55.711A2.469,2.469,0,0,0,53.242,37.9v28.84" transform="translate(-53.242 -35.43)" fill="none" stroke="#9f0925" stroke-linecap="round" stroke-linejoin="round" stroke-miterlimit="10" stroke-width="2"/>
              <path id="Trazado_722480" data-name="Trazado 722480" d="M56.711,436.081h-1a2.469,2.469,0,0,1-2.47-2.469V432.33a2.47,2.47,0,0,1,2.47-2.47H70.652a2.47,2.47,0,0,1,2.47,2.47v1.282a2.469,2.469,0,0,1-2.469,2.469h-1" transform="translate(-53.241 -388.372)" fill="none" stroke="#9f0925" stroke-linecap="round" stroke-linejoin="round" stroke-miterlimit="10" stroke-width="2"/>
            </g>
          </g>
          <g id="Grupo_968970" data-name="Grupo 968970" transform="translate(3.47 44.598)">
            <path id="Trazado_722481" data-name="Trazado 722481" d="M98.172,464.173H87.232a1,1,0,0,1-1-1v-3.24a.5.5,0,0,1,.5-.5h11.94a.5.5,0,0,1,.5.5v3.24A1,1,0,0,1,98.172,464.173Z" transform="translate(-86.232 -459.433)" fill="none" stroke="#9f0925" stroke-linecap="round" stroke-linejoin="round" stroke-miterlimit="10" stroke-width="2"/>
          </g>
        </g>
      </g>
      <g id="Grupo_968973" data-name="Grupo 968973" transform="translate(80.501 49.146)">
        <path id="Trazado_722482" data-name="Trazado 722482" d="M319.987,408.513h-7.049a.526.526,0,0,1-.526-.526v-4.025a.526.526,0,0,1,.526-.526h7.049a.526.526,0,0,1,.526.526v4.025A.526.526,0,0,1,319.987,408.513Z" transform="translate(-312.412 -403.436)" fill="none" stroke="#9f0925" stroke-linecap="round" stroke-linejoin="round" stroke-miterlimit="10" stroke-width="2"/>
      </g>
    </g>
  </g>
</svg>
