<svg xmlns="http://www.w3.org/2000/svg" width="100" height="100" viewBox="0 0 100 100">
  <g id="Grupo_968964" data-name="Grupo 968964" transform="translate(-1002 -1617)">
    <circle id="Elipse_4734" data-name="Elipse 4734" cx="50" cy="50" r="50" transform="translate(1002 1617)" fill="#b3eeef"/>
    <g id="tela_4_" data-name="tela(4)" transform="translate(1010.474 1640.723)">
      <g id="Grupo_968963" data-name="Grupo 968963" transform="translate(16.067 -1)">
        <g id="Grupo_968962" data-name="Grupo 968962">
          <path id="Trazado_722475" data-name="Trazado 722475" d="M56.074-1A10.948,10.948,0,0,0,45.2,9H16.067V53.555H56.074A10.943,10.943,0,0,0,66.985,42.644V9.911A10.943,10.943,0,0,0,56.074-1ZM17.885,17.692,29.054,10.82h6.382L17.885,21.058ZM45.163,28.749l-3.317-.829,3.317-1.9Zm0-4.819L39.3,27.282l-4.78-1.195L45.163,19.7V23.93Zm0-6.354L32.021,25.464l-4.793-1.2L45.163,13.344ZM43.7,30.257,38.41,33.4,17.885,27.414V23.8ZM24.4,41.729l-6.511-2.442v-4.5l11.924,3.726ZM17.885,32.88V29.308l18.386,5.363-4.5,2.672.035-.111Zm0,8.349,4.508,1.69L17.885,45.6Zm0,6.485L45.163,31.5v4.262L17.885,51.588Zm27.277-9.848v4.252l-16.61,9.618h-7.3Zm0-26.651L24.749,23.646,19.366,22.3,39.045,10.82h6.118v.395ZM25.584,10.82l-7.7,4.736V10.82Zm6.6,40.916,13.088-7.578a10.953,10.953,0,0,0,4.793,7.578Zm23.892,0a9.092,9.092,0,1,1,9.092-9.092A9.119,9.119,0,0,1,56.074,51.736Zm0-20a10.924,10.924,0,0,0-9.092,4.9V9.911a9.092,9.092,0,1,1,18.185,0V36.632A10.924,10.924,0,0,0,56.074,31.733Z" transform="translate(-16.067 1)" fill="#9f0925"/>
          <path id="Trazado_722476" data-name="Trazado 722476" d="M338.165,348.867a6.365,6.365,0,1,0,6.365,6.365A6.326,6.326,0,0,0,338.165,348.867Zm0,10.911a4.546,4.546,0,1,1,4.546-4.546A4.5,4.5,0,0,1,338.165,359.778Z" transform="translate(-298.158 -311.588)" fill="#9f0925"/>
        </g>
      </g>
    </g>
  </g>
</svg>
