<svg xmlns="http://www.w3.org/2000/svg" width="100" height="100" viewBox="0 0 100 100">
  <g id="Grupo_968999" data-name="Grupo 968999" transform="translate(-248 -3735)">
    <circle id="Elipse_4712" data-name="Elipse 4712" cx="50" cy="50" r="50" transform="translate(248 3735)" fill="#b3eeef"/>
    <g id="lupa_1_" data-name="lupa(1)" transform="translate(271 3758)">
      <g id="Grupo_968982" data-name="Grupo 968982" transform="translate(31.915 20.213)">
        <g id="Grupo_968981" data-name="Grupo 968981">
          <path id="Trazado_722484" data-name="Trazado 722484" d="M301.064,190a1.064,1.064,0,1,0,1.064,1.064A1.064,1.064,0,0,0,301.064,190Z" transform="translate(-300 -190)" fill="#9f0925"/>
        </g>
      </g>
      <g id="Grupo_968984" data-name="Grupo 968984">
        <g id="Grupo_968983" data-name="Grupo 968983">
          <path id="Trazado_722485" data-name="Trazado 722485" d="M53.222,47.2,39.022,33a21.086,21.086,0,0,0,3.532-11.728A21.277,21.277,0,1,0,21.277,42.554,21.087,21.087,0,0,0,33,39.022l3.925,3.925,0,0L47.2,53.222A4.255,4.255,0,1,0,53.222,47.2ZM32.5,36.78h0A19.169,19.169,0,1,1,36.78,32.5,19.242,19.242,0,0,1,32.5,36.78Zm2.232.964a21.349,21.349,0,0,0,3.008-3.008l3.018,3.018a25.823,25.823,0,0,1-3.008,3.008ZM51.718,51.718a2.126,2.126,0,0,1-3.008,0l-9.446-9.446a27.956,27.956,0,0,0,3.008-3.008l9.447,9.447a2.126,2.126,0,0,1,0,3.008Z" fill="#9f0925"/>
        </g>
      </g>
      <g id="Grupo_968986" data-name="Grupo 968986" transform="translate(4.255 4.255)">
        <g id="Grupo_968985" data-name="Grupo 968985">
          <path id="Trazado_722486" data-name="Trazado 722486" d="M57.021,40A17.021,17.021,0,1,0,74.043,57.021,17.041,17.041,0,0,0,57.021,40Zm0,31.915A14.894,14.894,0,1,1,71.915,57.021,14.911,14.911,0,0,1,57.021,71.915Z" transform="translate(-40 -40)" fill="#9f0925"/>
        </g>
      </g>
      <g id="Grupo_968988" data-name="Grupo 968988" transform="translate(20.213 8.511)">
        <g id="Grupo_968987" data-name="Grupo 968987">
          <path id="Trazado_722487" data-name="Trazado 722487" d="M202.986,88.2A12.786,12.786,0,0,0,191.064,80a1.064,1.064,0,0,0,0,2.128A10.711,10.711,0,0,1,201,88.963a1.064,1.064,0,1,0,1.986-.763Z" transform="translate(-190 -80)" fill="#9f0925"/>
        </g>
      </g>
    </g>
  </g>
</svg>
