<svg xmlns="http://www.w3.org/2000/svg" width="100" height="100" viewBox="0 0 100 100">
  <g id="Grupo_968996" data-name="Grupo 968996" transform="translate(-1002 -3735)">
    <circle id="Elipse_4734" data-name="Elipse 4734" cx="50" cy="50" r="50" transform="translate(1002 3735)" fill="#b3eeef"/>
    <g id="cortar-con-tijeras" transform="translate(1020.937 3687.016)">
      <g id="Grupo_968993" data-name="Grupo 968993" transform="translate(5.063 80.984)">
        <path id="Trazado_722488" data-name="Trazado 722488" d="M191.108,202.487a1.629,1.629,0,0,1-.4-.048,1.705,1.705,0,0,1-1.06-.774,1.7,1.7,0,1,1,1.465.822Zm-.119-1.2a.5.5,0,1,0-.322-.226A.573.573,0,0,0,190.989,201.284Z" transform="translate(-167.442 -185.015)" fill="#9f0925" stroke="#9f0925" stroke-width="0.5"/>
        <g id="Grupo_968989" data-name="Grupo 968989" transform="translate(3.077 23.73)">
          <path id="Trazado_722489" data-name="Trazado 722489" d="M34.429,287.91a3.48,3.48,0,0,1-3.06-1.6,3.38,3.38,0,0,1-.25-2.906,4.854,4.854,0,0,1,5.1-3.108,3.386,3.386,0,0,1,2.465,1.548c1.048,1.715.25,4.1-1.762,5.323A4.6,4.6,0,0,1,34.429,287.91Zm1.179-6.442a3.576,3.576,0,0,0-1.858.548,3.5,3.5,0,0,0-1.512,1.8,2.175,2.175,0,0,0,.143,1.893c.7,1.155,2.453,1.369,3.906.476s2.072-2.536,1.369-3.692a2.193,2.193,0,0,0-1.62-.988A2.5,2.5,0,0,0,35.608,281.468Z" transform="translate(-30.905 -280.26)" fill="#9f0925" stroke="#9f0925" stroke-width="0.5"/>
        </g>
        <path id="Trazado_722490" data-name="Trazado 722490" d="M11.153,115.757a6.037,6.037,0,0,1-5.3-2.739c-1.81-2.965-.4-7.121,3.132-9.277a8.022,8.022,0,0,1,6.7-.893,4.042,4.042,0,0,0,3.453-.4l4.275-2.608a3.524,3.524,0,0,1-.155-2.215,3.622,3.622,0,0,1,1.643-2.251L45.865,82.592a6.676,6.676,0,0,1,9.169,2.227.6.6,0,0,1,.071.453.572.572,0,0,1-.274.369l-33.5,20.411a4.052,4.052,0,0,0-1.941,2.882,7.988,7.988,0,0,1-3.87,5.549,8.407,8.407,0,0,1-4.37,1.274Zm2.227-12.1a7.422,7.422,0,0,0-3.775,1.1c-2.977,1.81-4.2,5.24-2.739,7.645s5.073,2.882,8.05,1.072a6.831,6.831,0,0,0,3.311-4.7,5.225,5.225,0,0,1,2.5-3.727l32.95-20.077a5.485,5.485,0,0,0-7.193-1.334L25.526,96.406a2.444,2.444,0,0,0-.822,3.358.6.6,0,0,1,.071.453.572.572,0,0,1-.274.369l-4.751,2.87a5.249,5.249,0,0,1-4.466.512,5.658,5.658,0,0,0-1.905-.31Z" transform="translate(-5.063 -81.542)" fill="#9f0925" stroke="#9f0925" stroke-width="0.5"/>
        <g id="Grupo_968992" data-name="Grupo 968992" transform="translate(0.058 0)">
          <g id="Grupo_968990" data-name="Grupo 968990" transform="translate(3.076 2.835)">
            <path id="Trazado_722491" data-name="Trazado 722491" d="M36.089,112.422a4.807,4.807,0,0,1-2.5-.726,4.651,4.651,0,0,1-2-2.441,3.4,3.4,0,0,1,.262-2.894c1.048-1.7,3.537-2.084,5.549-.845s2.787,3.632,1.739,5.335A3.507,3.507,0,0,1,36.089,112.422Zm-1.2-6.454a2.285,2.285,0,0,0-2.024,1.012,2.212,2.212,0,0,0-.155,1.893,3.456,3.456,0,0,0,1.5,1.81c1.453.893,3.2.691,3.906-.464s.107-2.81-1.346-3.7A3.641,3.641,0,0,0,34.886,105.968Z" transform="translate(-31.383 -104.788)" fill="#9f0925" stroke="#9f0925" stroke-width="0.5"/>
          </g>
          <g id="Grupo_968991" data-name="Grupo 968991" transform="translate(20.716 16.556)">
            <path id="Trazado_722492" data-name="Trazado 722492" d="M202.934,237.754a6.689,6.689,0,0,1-3.489-.988l-19.649-12.1a.6.6,0,1,1,.631-1.012l19.649,12.1a5.479,5.479,0,0,0,7.193-1.3l-21.649-13.337a.6.6,0,1,1,.631-1.012l22.185,13.671a.6.6,0,0,1,.262.369.608.608,0,0,1-.071.453A6.685,6.685,0,0,1,202.934,237.754Z" transform="translate(-179.512 -220.012)" fill="#9f0925" stroke="#9f0925" stroke-width="0.5"/>
          </g>
          <path id="Trazado_722493" data-name="Trazado 722493" d="M24.457,97.229a.577.577,0,0,1-.31-.083l-4.632-2.858a4.066,4.066,0,0,0-3.43-.357,6.872,6.872,0,0,1-2.227.357,8.426,8.426,0,0,1-4.418-1.3c-3.525-2.167-4.906-6.335-3.084-9.3s6.157-3.584,9.681-1.417a8,8,0,0,1,3.834,5.573A4.023,4.023,0,0,0,21.8,90.739L27.2,94.061a.6.6,0,0,1-.631,1.012L21.17,91.751A5.2,5.2,0,0,1,18.693,88a6.83,6.83,0,0,0-3.287-4.716c-2.953-1.822-6.573-1.358-8.05,1.036s-.262,5.835,2.7,7.657a7.324,7.324,0,0,0,3.8,1.119,5.819,5.819,0,0,0,1.846-.286,5.245,5.245,0,0,1,4.43.476l4.632,2.858a.585.585,0,0,1,.191.822.575.575,0,0,1-.5.262Z" transform="translate(-5.553 -80.984)" fill="#9f0925" stroke="#9f0925" stroke-width="0.5"/>
        </g>
      </g>
      <path id="Trazado_722494" data-name="Trazado 722494" d="M300.784,221.191H297.8a.6.6,0,1,1,0-1.191h2.989a.6.6,0,1,1,0,1.191Z" transform="translate(-257.348 -122.462)" fill="#9f0925" stroke="#9f0925" stroke-width="0.5"/>
      <path id="Trazado_722495" data-name="Trazado 722495" d="M357.084,221.191H354.1a.6.6,0,0,1,0-1.191h2.989a.6.6,0,0,1,0,1.191Z" transform="translate(-306.944 -122.462)" fill="#9f0925" stroke="#9f0925" stroke-width="0.5"/>
      <path id="Trazado_722496" data-name="Trazado 722496" d="M413.484,221.191H410.5a.6.6,0,1,1,0-1.191h2.989a.6.6,0,0,1,0,1.191Z" transform="translate(-356.628 -122.462)" fill="#9f0925" stroke="#9f0925" stroke-width="0.5"/>
    </g>
  </g>
</svg>
