<svg xmlns="http://www.w3.org/2000/svg" width="92.975" height="102.538" viewBox="0 0 92.975 102.538">
  <g id="iso" transform="translate(-9.61 -4.031)">
    <path id="Trazado_706202" data-name="Trazado 706202" d="M84.309,15.116A48.564,48.564,0,0,1,93,23.346a.856.856,0,1,0,1.316-1.094A49.992,49.992,0,0,0,67.027,5.321h-.085a50.171,50.171,0,0,0-26.009.915H40.8a50.009,50.009,0,0,0-24.077,16.35.854.854,0,1,0,1.325,1.077,48.769,48.769,0,0,1,6.376-6.5A24.025,24.025,0,0,0,28.1,19.389a22.812,22.812,0,0,0-4.94,7.932.848.848,0,0,0,1.624.487,22.026,22.026,0,0,1,4.966-7.692,47.863,47.863,0,0,0,8.983,2.692,28.454,28.454,0,0,0-1.65,5.017.855.855,0,0,0,.65.966h.188a.855.855,0,0,0,.855-.675,27.94,27.94,0,0,1,1.709-5.051,75.077,75.077,0,0,0,11.915,1.051V30.5a.855.855,0,1,0,1.709,0V24.158a73.5,73.5,0,0,0,13.444-1.35,27.966,27.966,0,0,1,1.829,5.333.855.855,0,0,0,.855.675h.188a.855.855,0,0,0,.65-1.017,29.53,29.53,0,0,0-1.795-5.342,44.5,44.5,0,0,0,8.641-2.872,22.52,22.52,0,0,1,5.444,8.231.868.868,0,1,0,1.667-.487,24.23,24.23,0,0,0-5.479-8.547,17.769,17.769,0,0,0,4.761-3.667ZM29.317,18.047a23.41,23.41,0,0,1-3.538-2.009A48.051,48.051,0,0,1,41.044,7.987l.521.274a73.128,73.128,0,0,0-12.248,9.786Zm10.128,3.137a47.957,47.957,0,0,1-8.436-2.4,76.377,76.377,0,0,1,12.419-9.65,24.051,24.051,0,0,0,2.94.94,66.077,66.077,0,0,0-6.923,11.111ZM52.369,22.44a74.36,74.36,0,0,1-11.162-.94,68.625,68.625,0,0,1,7.017-11.06,27.692,27.692,0,0,0,4.145.427Zm.855-13.256a25.077,25.077,0,0,1-9.7-1.906A48.351,48.351,0,0,1,64.48,6.569,24.2,24.2,0,0,1,53.223,9.184Zm.855,13.265V10.842a27.7,27.7,0,0,0,5.59-.7,67.958,67.958,0,0,1,7.12,11.111,72.154,72.154,0,0,1-12.709,1.2Zm14.444-1.607a67.863,67.863,0,0,0-7.077-11.2,22.556,22.556,0,0,0,2.632-.991.8.8,0,0,0,.248.231,77.034,77.034,0,0,1,12.282,9.4,44.352,44.352,0,0,1-8.086,2.556Zm9.744-3.35A75.273,75.273,0,0,0,65.8,7.782c.393-.222.769-.47,1.145-.718a48.034,48.034,0,0,1,15.957,7.06,16.65,16.65,0,0,1-4.641,3.368Z" transform="translate(-1.006)" fill="#9f0925"/>
    <path id="Trazado_706203" data-name="Trazado 706203" d="M55.393,119.351a50.2,50.2,0,0,0,14.724-2.21l.122,0a49.992,49.992,0,0,0,24.094-16.316A.873.873,0,0,0,93,99.692a48.248,48.248,0,0,1-6.376,6.5,23.616,23.616,0,0,0-3.658-2.222,22.966,22.966,0,0,0,4.949-7.932.857.857,0,1,0-1.632-.521,21.872,21.872,0,0,1-4.957,7.692,47.949,47.949,0,0,0-8.991-2.658,28.5,28.5,0,0,0,1.658-5.017.873.873,0,0,0-1.709-.359,27.291,27.291,0,0,1-1.709,5.051,75.078,75.078,0,0,0-11.915-1.051V92.855a.855.855,0,1,0-1.709,0V99.2a73.5,73.5,0,0,0-13.427,1.35,28.008,28.008,0,0,1-1.8-5.342.873.873,0,1,0-1.709.359,28.88,28.88,0,0,0,1.795,5.342,44.316,44.316,0,0,0-8.632,2.872,22.548,22.548,0,0,1-5.453-8.231.857.857,0,0,0-1.632.521,24.35,24.35,0,0,0,5.479,8.547,17.718,17.718,0,0,0-4.8,3.624,48.283,48.283,0,0,1-8.709-8.222.859.859,0,0,0-1.325,1.094,49.974,49.974,0,0,0,38.667,18.239Zm26.351-14.026a22.9,22.9,0,0,1,3.564,1.991,48.051,48.051,0,0,1-15.265,8.051c-.171-.094-.342-.188-.521-.274a73.12,73.12,0,0,0,12.231-9.786Zm-10.111-3.154a47.54,47.54,0,0,1,8.436,2.4,75.29,75.29,0,0,1-12.444,9.65,24.942,24.942,0,0,0-2.932-.932,66.163,66.163,0,0,0,6.94-11.12ZM58.71,100.915a74.359,74.359,0,0,1,11.171.94,68.488,68.488,0,0,1-7.026,11.06,27.693,27.693,0,0,0-4.145-.427Zm-.855,13.256a25.043,25.043,0,0,1,9.7,1.906,48.316,48.316,0,0,1-20.966.709,24.162,24.162,0,0,1,11.248-2.615ZM57,100.906v11.607a27.54,27.54,0,0,0-5.573.718,67.752,67.752,0,0,1-7.145-11.086,72.318,72.318,0,0,1,12.7-1.239Zm-14.427,1.607a67.975,67.975,0,0,0,7.068,11.2,21.857,21.857,0,0,0-2.624.991,1.06,1.06,0,0,0-.248-.231,76.923,76.923,0,0,1-12.291-9.4,44.444,44.444,0,0,1,8.094-2.556Zm-9.744,3.35a75.675,75.675,0,0,0,12.453,9.709c-.393.222-.769.47-1.145.718a48.188,48.188,0,0,1-15.957-7.06,16.7,16.7,0,0,1,4.624-3.368Z" transform="translate(-1.005 -12.782)" fill="#9f0925"/>
    <path id="Trazado_706204" data-name="Trazado 706204" d="M10.465,71.417a.855.855,0,0,0-.855.855v5.863a.855.855,0,0,0,.855.855H26.653a.855.855,0,0,0,.855-.855V72.272a.855.855,0,0,0-.855-.855H23.661V50.383h2.991a.855.855,0,0,0,.855-.855V43.665a.855.855,0,0,0-.855-.855H10.465a.855.855,0,0,0-.855.855v5.863a.855.855,0,0,0,.855.855h2.991V71.417Zm3.846-22.744H11.319V44.519H25.8v4.154H22.807a.855.855,0,0,0-.855.855V72.272a.855.855,0,0,0,.855.855H25.8V77.28H11.319V73.126h2.991a.855.855,0,0,0,.855-.855V49.528a.855.855,0,0,0-.855-.855Z" transform="translate(0 -5.634)" fill="#9f0925"/>
    <path id="Trazado_706205" data-name="Trazado 706205" d="M111.82,60.924c0-9.974-8.667-18.094-19.325-18.094S73.17,50.933,73.17,60.924s8.667,18.068,19.325,18.068S111.82,70.873,111.82,60.924ZM92.495,77.283c-9.709,0-17.615-7.35-17.615-16.376s7.906-16.385,17.615-16.385,17.615,7.35,17.615,16.385S102.2,77.283,92.495,77.283Z" transform="translate(-9.235 -5.637)" fill="#9f0925"/>
    <path id="Trazado_706206" data-name="Trazado 706206" d="M94.068,48.06C88.59,48.06,84,54.291,84,61.684s4.624,13.6,10.1,13.6,10.068-6.248,10.068-13.6S99.547,48.06,94.068,48.06Zm0,25.5c-4.547,0-8.359-5.444-8.359-11.872s3.846-11.9,8.393-11.9,8.359,5.427,8.359,11.9S98.624,73.556,94.068,73.556Z" transform="translate(-10.809 -6.397)" fill="#9f0925"/>
    <path id="Trazado_706207" data-name="Trazado 706207" d="M50.4,70.482c-4.419,0-7.1-2.316-7.1-3.333a.855.855,0,0,0-.855-.855h-6.5a.861.861,0,0,0-.855.855c0,6.359,6.838,11.538,15.308,11.538,9.154,0,15.308-4.641,15.308-11.538S59.542,55.61,50.4,55.61c-2.966,0-5.068-.547-6.094-1.581a2.564,2.564,0,0,1,.068-3.573c1.179-1.231,3.5-1.966,6.214-1.966,4.179,0,5.983,2.5,5.983,3.778a.855.855,0,0,0,.855.855h6.487a.855.855,0,0,0,.855-.855c0-6.581-6.18-11.538-14.376-11.538-8.436,0-15.308,5.18-15.308,11.538,0,2.376.385,5.821,3.65,8.239,2.667,1.974,7.393,3.3,11.667,3.3,2.838,0,4.709.453,5.556,1.342a2.564,2.564,0,0,1,.624,1.957c-.077,1.453-.786,3.376-6.18,3.376Zm6.795-6.513C55.969,62.687,53.772,62.1,50.4,62.1c-3.966,0-8.239-1.188-10.641-2.966-2.043-1.513-2.957-3.624-2.957-6.838,0-5.419,6.1-9.829,13.6-9.829,6.838,0,12.1,3.8,12.624,8.974H58.157c-.556-2.162-3.162-4.632-7.581-4.632-3.214,0-5.932.906-7.444,2.487a4.086,4.086,0,0,0-1.239,2.991A4.043,4.043,0,0,0,43.08,55.26c1.368,1.385,3.829,2.085,7.308,2.085,6.274,0,13.6,2.564,13.6,9.829,0,6.786-6.838,9.829-13.6,9.829-7.1,0-12.94-3.957-13.547-8.974H41.73c.752,2.12,4.214,4.188,8.658,4.188,5.085,0,7.744-1.709,7.889-5.009a4.222,4.222,0,0,0-1.094-3.239Z" transform="translate(-3.701 -5.332)" fill="#9f0925"/>
  </g>
</svg>
