<svg xmlns="http://www.w3.org/2000/svg" xmlns:xlink="http://www.w3.org/1999/xlink" width="100" height="100" viewBox="0 0 100 100">
  <defs>
    <clipPath id="clip-path">
      <path id="path5877" d="M0-682.665H61.109v61.109H0Z" transform="translate(0 682.665)" fill="#9f0925"/>
    </clipPath>
  </defs>
  <g id="Grupo_969085" data-name="Grupo 969085" transform="translate(-180 -4240)">
    <circle id="Elipse_4712" data-name="Elipse 4712" cx="50" cy="50" r="50" transform="translate(180 4240)" fill="#b3eeef"/>
    <g id="g5873" transform="translate(199 4259)">
      <g id="g5875" clip-path="url(#clip-path)">
        <g id="g5881" transform="translate(45.432 15.343)">
          <path id="path5883" d="M-36.095-5.834a.279.279,0,0,0,.38,0,2.13,2.13,0,0,1,1.461-.571A2.088,2.088,0,0,1-32.17-4.312c-.029,2.04-2.964,3.681-3.611,4.019a.278.278,0,0,1-.252,0c-.658-.325-3.652-1.919-3.61-4.021a2.16,2.16,0,0,1,2.1-2.095A2.088,2.088,0,0,1-36.095-5.834Z" transform="translate(39.644 6.407)" fill="none" stroke="#9f0925" stroke-linecap="round" stroke-linejoin="round" stroke-miterlimit="10" stroke-width="2"/>
        </g>
        <g id="g5885" transform="translate(40.682 11.214)">
          <path id="path5887" d="M-12.164,0H1.31a2.3,2.3,0,0,1,2.3,2.3v8.306a2.3,2.3,0,0,1-2.3,2.3H-1.535a1.28,1.28,0,0,0-.9.368l-1.987,1.955a.64.64,0,0,1-.9,0l-1.949-1.946a1.28,1.28,0,0,0-.9-.374h-2.88a2.3,2.3,0,0,1-2.3-2.3V6.046" transform="translate(13.36)" fill="none" stroke="#9f0925" stroke-linecap="round" stroke-linejoin="round" stroke-miterlimit="10" stroke-width="2"/>
        </g>
        <g id="g5889" transform="translate(8.178 15.343)">
          <path id="path5891" d="M-36.094-5.834a.279.279,0,0,0,.38,0,2.13,2.13,0,0,1,1.461-.571,2.088,2.088,0,0,1,2.084,2.095C-32.2-2.272-35.133-.631-35.78-.293a.278.278,0,0,1-.252,0c-.658-.325-3.652-1.919-3.61-4.021a2.16,2.16,0,0,1,2.1-2.095A2.088,2.088,0,0,1-36.094-5.834Z" transform="translate(39.642 6.407)" fill="none" stroke="#9f0925" stroke-linecap="round" stroke-linejoin="round" stroke-miterlimit="10" stroke-width="2"/>
        </g>
        <g id="g5893" transform="translate(3.427 11.214)">
          <path id="path5895" d="M-172.65-58.552V-53.7a2.3,2.3,0,0,1-2.3,2.3H-177.8a1.28,1.28,0,0,0-.9.368l-1.987,1.955a.64.64,0,0,1-.9,0l-1.95-1.946a1.28,1.28,0,0,0-.9-.374h-2.88a2.3,2.3,0,0,1-2.3-2.3V-62a2.3,2.3,0,0,1,2.3-2.3h13.688" transform="translate(189.625 64.309)" fill="none" stroke="#9f0925" stroke-linecap="round" stroke-linejoin="round" stroke-miterlimit="10" stroke-width="2"/>
        </g>
        <g id="g5897" transform="translate(19.486 0.895)">
          <path id="path5899" d="M-119.479,0h7.293a3.2,3.2,0,0,1,3.2,3.2V13.721a3.2,3.2,0,0,1-3.2,3.2H-116a1.921,1.921,0,0,0-1.431.64l-2,2.234a.9.9,0,0,1-1.341-.005l-1.951-2.217a1.921,1.921,0,0,0-1.441-.651h-3.859a3.2,3.2,0,0,1-3.2-3.2V3.2a3.2,3.2,0,0,1,3.2-3.2h4.369" transform="translate(131.226)" fill="none" stroke="#9f0925" stroke-linecap="round" stroke-linejoin="round" stroke-miterlimit="10" stroke-width="2"/>
        </g>
        <g id="g5901" transform="translate(24.873 5.247)">
          <path id="path5903" d="M-55.375-8.948a.427.427,0,0,0,.583,0,3.265,3.265,0,0,1,2.241-.876,3.2,3.2,0,0,1,3.2,3.214C-49.4-3.484-53.9-.966-54.894-.448a.427.427,0,0,1-.387,0c-1.01-.5-5.6-2.943-5.538-6.17A3.313,3.313,0,0,1-57.6-9.827,3.2,3.2,0,0,1-55.375-8.948Z" transform="translate(60.819 9.828)" fill="none" stroke="#9f0925" stroke-linecap="round" stroke-linejoin="round" stroke-miterlimit="10" stroke-width="2"/>
        </g>
        <g id="g5905" transform="translate(2.517 51.351)">
          <path id="path5907" d="M-70.3,0h0L-75.36,2.086a2.987,2.987,0,0,0-1.849,2.762V7.669a1.2,1.2,0,0,0,1.195,1.195h15.058" transform="translate(77.209)" fill="none" stroke="#9f0925" stroke-linecap="round" stroke-linejoin="round" stroke-miterlimit="10" stroke-width="2"/>
        </g>
        <g id="g5909" transform="translate(14.36 51.351)">
          <path id="path5911" d="M-47.8-19.692l-4.7-1.936h0" transform="translate(52.497 21.628)" fill="none" stroke="#9f0925" stroke-linecap="round" stroke-linejoin="round" stroke-miterlimit="10" stroke-width="2"/>
        </g>
        <g id="g5913" transform="translate(46.748 48.689)">
          <path id="path5915" d="M0,0V2.662" transform="translate(0)" fill="none" stroke="#9f0925" stroke-linecap="round" stroke-linejoin="round" stroke-miterlimit="10" stroke-width="2"/>
        </g>
        <g id="g5917" transform="translate(51.681 48.78)">
          <path id="path5919" d="M0-26.144v-2.57" transform="translate(0 28.715)" fill="none" stroke="#9f0925" stroke-linecap="round" stroke-linejoin="round" stroke-miterlimit="10" stroke-width="2"/>
        </g>
        <g id="g5921" transform="translate(42.067 51.351)">
          <path id="path5923" d="M-3.317-90.152H3.5l-.356-.392c-2.073-2.281-2.11-5.374-2.11-8.472l-4.681,1.929" transform="translate(3.643 99.016)" fill="none" stroke="#9f0925" stroke-linecap="round" stroke-linejoin="round" stroke-miterlimit="10" stroke-width="2"/>
        </g>
        <g id="g5925" transform="translate(49.214 51.351)">
          <path id="path5927" d="M-76.585-21.218-81.647-23.3c0,3.057-.033,6.2-2.128,8.492l-.339.371h8.184a1.2,1.2,0,0,0,1.195-1.195v-2.821A2.987,2.987,0,0,0-76.585-21.218Z" transform="translate(84.114 23.304)" fill="none" stroke="#9f0925" stroke-linecap="round" stroke-linejoin="round" stroke-miterlimit="10" stroke-width="2"/>
        </g>
        <g id="g5929" transform="translate(9.429 47.617)">
          <path id="path5931" d="M0,0V3.735H0a3.262,3.262,0,0,0,4.93,0l0,0V.036" fill="none" stroke="#9f0925" stroke-linecap="round" stroke-linejoin="round" stroke-miterlimit="10" stroke-width="2"/>
        </g>
        <g id="g5933" transform="translate(6.224 42.11)">
          <path id="path5935" d="M0-.632C.625,2.679,3.386,5.81,5.67,5.81c2.3,0,5.08-3.17,5.681-6.5" transform="translate(0 0.695)" fill="none" stroke="#9f0925" stroke-linecap="round" stroke-linejoin="round" stroke-miterlimit="10" stroke-width="2"/>
        </g>
        <g id="g5937" transform="translate(4.366 53.437)">
          <path id="path5939" d="M0,0,5.062,6.777" fill="none" stroke="#9f0925" stroke-linecap="round" stroke-linejoin="round" stroke-miterlimit="10" stroke-width="2"/>
        </g>
        <g id="g5941" transform="translate(14.361 55.303)">
          <path id="path5943" d="M-43.026,0l-4.23,4.911" transform="translate(47.256)" fill="none" stroke="#9f0925" stroke-linecap="round" stroke-linejoin="round" stroke-miterlimit="10" stroke-width="2"/>
        </g>
        <g id="g5945" transform="translate(4.761 32.088)">
          <path id="path5947" d="M-3.143-42.172a8.908,8.908,0,0,0,.687,6.4,9.186,9.186,0,0,1,4.59-3.549c3.008-1.095,4.361-4.194,3.335-5.8-.92-1.438-3.531-1.638-5.923-.3" transform="translate(3.452 46.318)" fill="none" stroke="#9f0925" stroke-linecap="round" stroke-linejoin="round" stroke-miterlimit="10" stroke-width="2"/>
        </g>
        <g id="g5949" transform="translate(12.875 33.958)">
          <path id="path5951" d="M-11.572-3.122a3.718,3.718,0,0,1,3.992.644c2.415,2.445.891,6.307.031,7.653A14.455,14.455,0,0,0-10.7,2.392,4.948,4.948,0,0,1-12.709.01" transform="translate(12.709 3.429)" fill="none" stroke="#9f0925" stroke-linecap="round" stroke-linejoin="round" stroke-miterlimit="10" stroke-width="2"/>
        </g>
        <g id="g5953" transform="translate(27.475 44.687)">
          <path id="path5955" d="M0,0V4.364H0a4.109,4.109,0,0,0,6.21,0l0,0V0" fill="none" stroke="#9f0925" stroke-linecap="round" stroke-linejoin="round" stroke-miterlimit="10" stroke-width="2"/>
        </g>
        <g id="g5957" transform="translate(25.805 36.224)">
          <path id="path5959" d="M0-68.261a5.854,5.854,0,0,0,4.775,2.668c4.317,0,6.769-5.006,6.956-9.38" transform="translate(0 74.972)" fill="none" stroke="#9f0925" stroke-linecap="round" stroke-linejoin="round" stroke-miterlimit="10" stroke-width="2"/>
        </g>
        <g id="g5961" transform="translate(23.713 37.169)">
          <path id="path5963" d="M0,0A13.79,13.79,0,0,0,.367,1.989" fill="none" stroke="#9f0925" stroke-linecap="round" stroke-linejoin="round" stroke-miterlimit="10" stroke-width="2"/>
        </g>
        <g id="g5965" transform="translate(18.77 49.051)">
          <path id="path5967" d="M-88.543,0h0l-6.486,2.673a3.584,3.584,0,0,0-2.219,3.314v5.177h23.623V5.987a3.584,3.584,0,0,0-2.219-3.314L-82.33,0h0" transform="translate(97.248)" fill="none" stroke="#9f0925" stroke-linecap="round" stroke-linejoin="round" stroke-miterlimit="10" stroke-width="2"/>
        </g>
        <g id="g5969" transform="translate(43.699 35.94)">
          <path id="path5971" d="M-.021-63.085c.087,3.536,3.083,7.667,5.513,7.667,2.467,0,5.515-4.254,5.515-7.824,0-2.763-1.165-5.12-3.346-6.045h0a7.34,7.34,0,0,1-5.634,5.606l-2.049.439Z" transform="translate(0.023 69.288)" fill="none" stroke="#9f0925" stroke-linecap="round" stroke-linejoin="round" stroke-miterlimit="10" stroke-width="2"/>
        </g>
        <g id="g5973" transform="translate(40.377 36.115)">
          <path id="path5975" d="M-16.237,0a8.8,8.8,0,0,0-1.6,5.068V15.7" transform="translate(17.833)" fill="none" stroke="#9f0925" stroke-linecap="round" stroke-linejoin="round" stroke-miterlimit="10" stroke-width="2"/>
        </g>
        <g id="g5977" transform="translate(45.182 32.345)">
          <path id="path5979" d="M-130.9-224.261v-13.211a8.837,8.837,0,0,0-8.837-8.837,8.8,8.8,0,0,0-4.033.972" transform="translate(143.772 246.31)" fill="none" stroke="#9f0925" stroke-linecap="round" stroke-linejoin="round" stroke-miterlimit="10" stroke-width="2"/>
        </g>
        <g id="g5981" transform="translate(24.219 50.392)">
          <path id="path5983" d="M0,0,.039.045a16.549,16.549,0,0,1,3.905,9.69l.005.086" fill="none" stroke="#9f0925" stroke-linecap="round" stroke-linejoin="round" stroke-miterlimit="10" stroke-width="2"/>
        </g>
        <g id="g5985" transform="translate(32.942 50.47)">
          <path id="path5987" d="M-39.752,0h0a16.548,16.548,0,0,0-3.9,9.611l-.009.133" transform="translate(43.66)" fill="none" stroke="#9f0925" stroke-linecap="round" stroke-linejoin="round" stroke-miterlimit="10" stroke-width="2"/>
        </g>
        <g id="g5989" transform="translate(20.589 23.811)">
          <path id="path5991" d="M-174.735-58.461l-.062-.007a2.5,2.5,0,0,0,.3-1.434,2.516,2.516,0,0,0-2.271-2.267,2.5,2.5,0,0,0-2.155.9,3.044,3.044,0,0,0-3.023-2.7,3.031,3.031,0,0,0-2,.754,2.5,2.5,0,0,0-1.994-.993,2.506,2.506,0,0,0-2.495,2.27,3.58,3.58,0,0,0-3.473,3.578,3.568,3.568,0,0,0,.953,2.432,10.842,10.842,0,0,0,.121,2.462,3.4,3.4,0,0,0,2.029,2.506c0-1.91,2.486-1.386,2.865-3.1a7.066,7.066,0,0,0,.955.119,4.3,4.3,0,0,0,4.083-2.957,2.921,2.921,0,0,0,2.422,1.286,2.92,2.92,0,0,0,.9-.143c.708,2.53,2.618,1.694,2.618,3.962,1.2-.542,1.9-2.391,2.24-3.622A2.407,2.407,0,0,0-174.735-58.461Z" transform="translate(191.914 64.209)" fill="none" stroke="#9f0925" stroke-linecap="round" stroke-linejoin="round" stroke-miterlimit="10" stroke-width="2"/>
        </g>
      </g>
    </g>
  </g>
</svg>
