<svg xmlns="http://www.w3.org/2000/svg" width="100" height="100" viewBox="0 0 100 100">
  <g id="Grupo_968953" data-name="Grupo 968953" transform="translate(-593 -14787)">
    <circle id="Elipse_4872" data-name="Elipse 4872" cx="50" cy="50" r="50" transform="translate(593 14787)" fill="#b3eeef"/>
    <g id="Page-1" transform="translate(615 14812)">
      <g id="_016---Certificate" data-name="016---Certificate">
        <path id="Shape" d="M53.419,0H2.812A2.812,2.812,0,0,0,0,2.812V42.173a2.812,2.812,0,0,0,2.812,2.812H29.989a.937.937,0,0,0,0-1.874H3.2L6.011,40.3H29.989a.937.937,0,0,0,0-1.874H6.56V6.56h5.623a.937.937,0,0,0,0-1.874H6.011L3.2,1.874H53.031L50.219,4.686H16.869a.937.937,0,0,0,0,1.874h32.8V38.424H45.921a.937.937,0,0,0,0,1.874h4.3l2.741,2.741a1.86,1.86,0,0,1-.479.07h-6.56a.937.937,0,0,0,0,1.874h6.56a3.749,3.749,0,0,0,3.749-3.749V2.812A2.812,2.812,0,0,0,53.419,0ZM4.686,38.973,1.874,41.785V3.2L4.686,6.011Zm49.6,2.741-2.741-2.741V6.011L54.356,3.2V41.235A1.855,1.855,0,0,1,54.285,41.714Z" fill="#9f0925"/>
        <path id="Shape-2" data-name="Shape" d="M36.058,12.874a.937.937,0,1,0,0-1.874H22.937a.937.937,0,0,0,0,1.874Z" transform="translate(-1.382 -0.691)" fill="#9f0925"/>
        <path id="Shape-3" data-name="Shape" d="M26.058,33H12.937a.937.937,0,0,0,0,1.874h13.12a.937.937,0,0,0,0-1.874Z" transform="translate(-0.754 -2.073)" fill="#9f0925"/>
        <path id="Shape-4" data-name="Shape" d="M39.618,16.937A.937.937,0,0,0,38.681,16H19.937a.937.937,0,0,0,0,1.874H38.681A.937.937,0,0,0,39.618,16.937Z" transform="translate(-1.194 -1.005)" fill="#9f0925"/>
        <path id="Shape-5" data-name="Shape" d="M32.882,37.8a2.274,2.274,0,0,0,1.8.556V49.471a1.874,1.874,0,0,0,2.718,1.68l2.437-1.228,2.443,1.231a1.874,1.874,0,0,0,2.711-1.684V38.354a2.275,2.275,0,0,0,1.8-.556c1.143-1.144.143-3.28.4-3.909.244-.586,2.479-1.384,2.479-3.049s-2.233-2.455-2.479-3.049c-.253-.611.738-2.769-.4-3.909s-3.287-.145-3.909-.4C42.3,23.235,41.5,21,39.84,21s-2.463,2.236-3.049,2.479c-.649.26-2.762-.744-3.911.4s-.143,3.28-.4,3.909C32.235,28.377,30,29.176,30,30.84s2.233,2.455,2.479,3.049c.253.611-.738,2.769.4,3.909Zm7.8,10.451a1.89,1.89,0,0,0-1.687,0L36.56,49.471v-11.3a.718.718,0,0,1,.231.033c.589.244,1.386,2.479,3.05,2.479S42.3,38.444,42.889,38.2a.728.728,0,0,1,.231-.034v11.31Zm-8.809-17.4c.048-.187.6-.6.894-.82,1.539-1.148,1.795-1.655,1.513-3.681a5.583,5.583,0,0,1-.094-1.125,3.528,3.528,0,0,1,1.17.054c2.006.281,2.518.042,3.68-1.512a3.922,3.922,0,0,1,.79-.9c.187.048.6.6.819.894,1.161,1.554,1.674,1.793,3.68,1.513a5.529,5.529,0,0,1,1.125-.094,3.522,3.522,0,0,1-.054,1.169,4.136,4.136,0,0,0,.07,2.155c.458,1.1,2.17,1.86,2.339,2.329-.162.455-1.879,1.237-2.333,2.331a4.133,4.133,0,0,0-.07,2.155,5.583,5.583,0,0,1,.094,1.125,3.529,3.529,0,0,1-1.17-.054c-2.026-.281-2.53-.022-3.68,1.512a3.922,3.922,0,0,1-.793.895c-.187-.048-.6-.6-.819-.894-1.161-1.555-1.673-1.792-3.68-1.513a5.535,5.535,0,0,1-1.125.094,3.523,3.523,0,0,1,.054-1.169c.281-2.023.025-2.53-1.513-3.681a3.912,3.912,0,0,1-.9-.787Z" transform="translate(-1.885 -1.319)" fill="#9f0925"/>
        <path id="Shape-6" data-name="Shape" d="M40.217,35.435A4.217,4.217,0,1,0,36,31.217,4.217,4.217,0,0,0,40.217,35.435Zm0-6.56a2.343,2.343,0,1,1-2.343,2.343A2.343,2.343,0,0,1,40.217,28.874Z" transform="translate(-2.262 -1.696)" fill="#9f0925"/>
        <path id="Shape-7" data-name="Shape" d="M26.058,28.56A11.4,11.4,0,0,1,21.2,27.5a4.46,4.46,0,0,0,1.719-3.084c0-.562-.246-2.412-3.418-2.412s-3.418,1.846-3.418,2.412a4.451,4.451,0,0,0,1.72,3.079,11.359,11.359,0,0,1-4.862,1.069.937.937,0,1,0,0,1.874,13.182,13.182,0,0,0,6.57-1.719,13.339,13.339,0,0,0,6.55,1.719.937.937,0,1,0,0-1.874ZM19.49,26.468c-1.115-.858-1.536-1.672-1.536-2.056s.831-.538,1.544-.538,1.544.141,1.544.538a3.426,3.426,0,0,1-1.551,2.056Z" transform="translate(-0.754 -1.382)" fill="#9f0925"/>
      </g>
    </g>
  </g>
</svg>
