<svg xmlns="http://www.w3.org/2000/svg" width="100" height="100" viewBox="0 0 100 100">
  <g id="Grupo_968976" data-name="Grupo 968976" transform="translate(-248 -1617)">
    <circle id="Elipse_4712" data-name="Elipse 4712" cx="50" cy="50" r="50" transform="translate(248 1617)" fill="#b3eeef"/>
    <g id="tela_1_" data-name="tela(1)" transform="translate(274 1643)">
      <g id="Grupo_968961" data-name="Grupo 968961" transform="translate(0)">
        <path id="Trazado_722459" data-name="Trazado 722459" d="M47.1,42.887l-1.38-2.628,1.38-2.628a.787.787,0,0,0,0-.732l-1.38-2.622,1.38-2.622a.787.787,0,0,0,0-.733L45.718,28.3l1.38-2.622a.787.787,0,0,0,0-.733l-1.38-2.622L47.1,19.7a.787.787,0,0,0,0-.733l-1.38-2.621,1.38-2.619a.787.787,0,0,0-.141-.924L43.809,9.667a.785.785,0,0,0-.921-.139L40.26,10.908,37.751,9.59V.786A.786.786,0,0,0,36.965,0H.787A.786.786,0,0,0,0,.786V36.963a.786.786,0,0,0,.786.786h8.8l1.326,2.518-1.38,2.619a.786.786,0,0,0,.139.922l3.139,3.148a.786.786,0,0,0,.922.141l2.628-1.381L18.985,47.1a.786.786,0,0,0,.732,0l2.623-1.381L24.962,47.1a.787.787,0,0,0,.733,0l2.621-1.38,2.622,1.38a.787.787,0,0,0,.733,0l2.622-1.381L36.915,47.1a.787.787,0,0,0,.733,0l2.62-1.38,2.62,1.38a.786.786,0,0,0,.922-.14l3.148-3.148A.786.786,0,0,0,47.1,42.887ZM9.529,19.716l1.38,2.622-1.38,2.622a.787.787,0,0,0,0,.733l1.38,2.621-1.38,2.622a.787.787,0,0,0,0,.733l1.38,2.622-.992,1.885H1.574V1.573h34.6V9.908l-1.9,1L31.656,9.528a.787.787,0,0,0-.733,0L28.3,10.908,25.68,9.528a.787.787,0,0,0-.733,0l-2.622,1.381L19.7,9.528a.787.787,0,0,0-.733,0l-2.621,1.38L13.73,9.528a.786.786,0,0,0-.922.14L9.669,12.807a.786.786,0,0,0-.14.922l1.38,2.627-1.38,2.628A.786.786,0,0,0,9.529,19.716Zm34.6,2.974,1.38,2.622-1.38,2.622a.787.787,0,0,0,0,.733l1.38,2.621-1.38,2.622a.787.787,0,0,0,0,.733l1.38,2.623-1.38,2.627a.786.786,0,0,0,0,.732l1.3,2.481-2.329,2.329-2.474-1.3a.787.787,0,0,0-.733,0l-2.62,1.38-2.622-1.38a.787.787,0,0,0-.733,0L31.3,45.512l-2.622-1.381a.787.787,0,0,0-.733,0l-2.621,1.38-2.622-1.38a.787.787,0,0,0-.733,0l-2.623,1.381-2.627-1.381a.786.786,0,0,0-.731,0l-2.481,1.3L11.19,43.108l1.3-2.473a.788.788,0,0,0,0-.733l-1.38-2.621,1.38-2.622a.787.787,0,0,0,0-.733L11.114,31.3l1.38-2.622a.787.787,0,0,0,0-.733l-1.38-2.621,1.38-2.622a.787.787,0,0,0,0-.733l-1.38-2.623,1.38-2.627a.786.786,0,0,0,0-.732l-1.3-2.481L13.51,11.19l2.473,1.3a.787.787,0,0,0,.733,0l2.621-1.38,2.622,1.38a.787.787,0,0,0,.733,0l2.622-1.381,2.622,1.381a.787.787,0,0,0,.733,0l2.621-1.38,2.622,1.38a.787.787,0,0,0,.733,0l2.622-1.381,2.628,1.381a.784.784,0,0,0,.731,0l2.482-1.3,2.328,2.321-1.3,2.472a.788.788,0,0,0,0,.733l1.38,2.621-1.38,2.622A.787.787,0,0,0,44.133,22.691Z" transform="translate(-0.001 0)" fill="#9f0925"/>
      </g>
    </g>
  </g>
</svg>
