<svg xmlns="http://www.w3.org/2000/svg" width="100" height="100" viewBox="0 0 100 100">
  <g id="Grupo_968975" data-name="Grupo 968975" transform="translate(-499 -1617)">
    <circle id="Elipse_4732" data-name="Elipse 4732" cx="50" cy="50" r="50" transform="translate(499 1617)" fill="#b3eeef"/>
    <g id="escala-de-peso" transform="translate(524 1645)">
      <path id="Trazado_722460" data-name="Trazado 722460" d="M147.282,189.6a11.471,11.471,0,0,0,16.132,0c.018-.016.037-.031.053-.048s.031-.034.046-.051a11.446,11.446,0,0,0,.022-16.1c-.021-.026-.044-.051-.068-.075a.986.986,0,0,0-.076-.069,11.472,11.472,0,0,0-16.087,0c-.026.022-.052.044-.076.069s-.046.05-.068.075a11.446,11.446,0,0,0,.022,16.1c.015.017.03.035.046.051S147.264,189.58,147.282,189.6Zm-1.4-7.179H147a.982.982,0,1,0,0-1.965h-1.125a9.458,9.458,0,0,1,2.083-5.009l.793.792a.982.982,0,1,0,1.389-1.39l-.791-.79a9.481,9.481,0,0,1,5.014-2.078v1.12a.982.982,0,1,0,1.964,0v-1.12a9.481,9.481,0,0,1,5.014,2.079l-.791.79a.982.982,0,1,0,1.389,1.39l.793-.792a9.459,9.459,0,0,1,2.084,5.009h-1.125a.982.982,0,0,0,0,1.965h1.125a9.464,9.464,0,0,1-2.083,5.01l-.793-.793a.982.982,0,0,0-1.389,1.39l.792.791a9.483,9.483,0,0,1-5.015,2.08v-1.123a.982.982,0,1,0-1.964,0V190.9a9.482,9.482,0,0,1-5.015-2.08l.792-.791a.983.983,0,1,0-1.389-1.39l-.793.793A9.462,9.462,0,0,1,145.878,182.417Zm0,0" transform="translate(-129.713 -153.244)" fill="#9f0925"/>
      <path id="Trazado_722461" data-name="Trazado 722461" d="M235.423,242.059a2.817,2.817,0,0,0,.982-5.431v-1.563a.982.982,0,0,0-1.965,0v1.563a2.817,2.817,0,0,0,.983,5.431Zm0-1.965a.846.846,0,1,1,.785-.845A.818.818,0,0,1,235.423,240.094Zm0,0" transform="translate(-209.787 -211.059)" fill="#9f0925"/>
      <path id="Trazado_722462" data-name="Trazado 722462" d="M42.8,16.155a4.467,4.467,0,0,0-4.4-3.346h-2.9V8.3h7.533A7.325,7.325,0,0,0,50.359.982.983.983,0,0,0,49.377,0H.983A.983.983,0,0,0,0,.982,7.326,7.326,0,0,0,7.32,8.3h7.968v4.512H12.869a4.468,4.468,0,0,0-4.4,3.346L6.157,24.484a.982.982,0,1,0,1.893.526l2.317-8.329a2.52,2.52,0,0,1,2.5-1.908H38.4a2.519,2.519,0,0,1,2.5,1.908l6.329,22.768a1.886,1.886,0,0,1-.126,1.6,1.683,1.683,0,0,1-1.317.556H5.48a1.682,1.682,0,0,1-1.317-.556,1.884,1.884,0,0,1-.126-1.6l1.826-6.577a.982.982,0,1,0-1.893-.526L2.144,38.922A3.624,3.624,0,0,0,2.6,42.24,3.6,3.6,0,0,0,5.48,43.572H45.791a3.4,3.4,0,0,0,3.336-4.65ZM2.056,1.965H48.3a5.362,5.362,0,0,1-5.265,4.367H7.32A5.362,5.362,0,0,1,2.056,1.965ZM29.429,8.3v4.512H21.362V8.3ZM17.252,12.809V8.3H19.4v4.512Zm14.142,0V8.3h2.148v4.512Zm0,0" transform="translate(0 0)" fill="#9f0925"/>
      <path id="Trazado_722463" data-name="Trazado 722463" d="M51.154,285.634a.982.982,0,0,0,1.243-.622L52.4,285a.982.982,0,0,0-1.864-.621l-.006.017A.983.983,0,0,0,51.154,285.634Zm0,0" transform="translate(-45.517 -255.799)" fill="#9f0925"/>
    </g>
  </g>
</svg>
