<svg xmlns="http://www.w3.org/2000/svg" width="100" height="100" viewBox="0 0 100 100">
  <g id="Grupo_968965" data-name="Grupo 968965" transform="translate(-1253 -1617)">
    <circle id="Elipse_4735" data-name="Elipse 4735" cx="50" cy="50" r="50" transform="translate(1253 1617)" fill="#b3eeef"/>
    <g id="muestra" transform="translate(1282 1640)">
      <path id="Trazado_722464" data-name="Trazado 722464" d="M94.287,17.307a.788.788,0,0,0,.788-.788V2.4a2.4,2.4,0,0,0-2.4-2.4h-38a2.4,2.4,0,0,0-2.4,2.4V51.376a2.4,2.4,0,0,0,2.4,2.4h38a2.4,2.4,0,0,0,2.4-2.4V19.668a.788.788,0,0,0-1.575,0V51.376a.823.823,0,0,1-.822.822h-38a.822.822,0,0,1-.822-.822V2.4a.823.823,0,0,1,.822-.822h38A.823.823,0,0,1,93.5,2.4V16.519A.788.788,0,0,0,94.287,17.307Z" transform="translate(-52.284 0)" fill="#9f0925"/>
      <path id="Trazado_722465" data-name="Trazado 722465" d="M111.073,71.961a4.959,4.959,0,0,0,1.629-.243,3.429,3.429,0,0,1,1.178-.177,2.144,2.144,0,0,1,1.025.338,1.866,1.866,0,0,0,2.487-.21,1.9,1.9,0,0,0,.284-2.573,4.61,4.61,0,0,1-.428-1.074,1.375,1.375,0,0,1,.1-1.056,3.929,3.929,0,0,0,.339-1.617,4.958,4.958,0,0,0-.243-1.629,3.43,3.43,0,0,1-.177-1.178,2.144,2.144,0,0,1,.338-1.025,1.935,1.935,0,0,0-2.7-2.7,2.145,2.145,0,0,1-1.025.338,3.428,3.428,0,0,1-1.178-.177,4.849,4.849,0,0,0-1.176-.228,4.849,4.849,0,0,0-.228-1.177,3.429,3.429,0,0,1-.177-1.178,2.144,2.144,0,0,1,.338-1.025,1.935,1.935,0,0,0-2.7-2.7,2.145,2.145,0,0,1-1.025.338,3.428,3.428,0,0,1-1.178-.177,4.892,4.892,0,0,0-1.483-.242h-.016a.788.788,0,0,0-.015,1.575,3.365,3.365,0,0,1,1.063.176,4.962,4.962,0,0,0,1.629.243,3.623,3.623,0,0,0,1.758-.519,2,2,0,0,1,.463-.2h0a.5.5,0,0,1,.176.134.532.532,0,0,1,.133.173,1.889,1.889,0,0,1-.2.467,3.622,3.622,0,0,0-.519,1.758,4.959,4.959,0,0,0,.243,1.629,3.37,3.37,0,0,1,.165.817c-.193.042-.356.09-.51.136a3.429,3.429,0,0,1-1.178.177,2.144,2.144,0,0,1-1.025-.338,1.935,1.935,0,0,0-2.7,2.7,2.146,2.146,0,0,1,.338,1.025,3.428,3.428,0,0,1-.177,1.178c-.046.154-.095.317-.136.51a3.372,3.372,0,0,1-.816-.165,4.959,4.959,0,0,0-1.63-.243,3.621,3.621,0,0,0-1.758.519,2,2,0,0,1-.462.2h0a.5.5,0,0,1-.176-.134.533.533,0,0,1-.133-.173,1.889,1.889,0,0,1,.2-.467,3.622,3.622,0,0,0,.519-1.758,4.958,4.958,0,0,0-.243-1.629,4.007,4.007,0,0,1,0-2.355,4.959,4.959,0,0,0,.243-1.63,3.622,3.622,0,0,0-.519-1.758,1.928,1.928,0,0,1-.2-.465A.5.5,0,0,1,99.723,54a.527.527,0,0,1,.174-.133h0a1.966,1.966,0,0,1,.465.2,3.9,3.9,0,0,0,1.468.5.788.788,0,1,0,.155-1.568,2.448,2.448,0,0,1-.89-.331,1.935,1.935,0,0,0-2.7,2.7,2.144,2.144,0,0,1,.338,1.025,3.428,3.428,0,0,1-.177,1.178,5.583,5.583,0,0,0,0,3.259,3.429,3.429,0,0,1,.177,1.178,2.144,2.144,0,0,1-.338,1.025,1.866,1.866,0,0,0,.21,2.487,1.769,1.769,0,0,0,1.274.593,2.631,2.631,0,0,0,1.213-.384,2.145,2.145,0,0,1,1.025-.338,3.428,3.428,0,0,1,1.178.177,4.856,4.856,0,0,0,1.176.228,4.843,4.843,0,0,0,.228,1.177,3.429,3.429,0,0,1,.177,1.178,2.144,2.144,0,0,1-.338,1.025,1.866,1.866,0,0,0,.21,2.487,1.769,1.769,0,0,0,1.274.593,2.631,2.631,0,0,0,1.213-.384,2.145,2.145,0,0,1,1.025-.338,3.428,3.428,0,0,1,1.178.177A4.957,4.957,0,0,0,111.073,71.961Zm-4.566-1.477a2,2,0,0,1-.462.2h0a.5.5,0,0,1-.176-.134.533.533,0,0,1-.133-.173,1.892,1.892,0,0,1,.2-.467,3.621,3.621,0,0,0,.519-1.758,4.959,4.959,0,0,0-.243-1.629,3.93,3.93,0,0,1,0-2.356,4.962,4.962,0,0,0,.243-1.629,3.621,3.621,0,0,0-.519-1.758,1.927,1.927,0,0,1-.2-.465.5.5,0,0,1,.134-.176.532.532,0,0,1,.173-.133h0a1.962,1.962,0,0,1,.464.2,3.622,3.622,0,0,0,1.758.519,4.958,4.958,0,0,0,1.629-.243,3.924,3.924,0,0,1,2.356,0,4.962,4.962,0,0,0,1.629.243,3.623,3.623,0,0,0,1.758-.519,2,2,0,0,1,.462-.2h0a.5.5,0,0,1,.176.134.532.532,0,0,1,.133.173,1.889,1.889,0,0,1-.2.467,3.622,3.622,0,0,0-.519,1.758,4.959,4.959,0,0,0,.243,1.629,3.43,3.43,0,0,1,.177,1.178,2.382,2.382,0,0,1-.224,1.027,2.9,2.9,0,0,0-.169,2.013,6.16,6.16,0,0,0,.555,1.421,2.181,2.181,0,0,1,.208.482.743.743,0,0,1-.2.263.53.53,0,0,1-.173.133h0a1.962,1.962,0,0,1-.464-.2,3.621,3.621,0,0,0-1.758-.519,4.958,4.958,0,0,0-1.629.243,4.006,4.006,0,0,1-2.356,0,4.962,4.962,0,0,0-1.629-.243A3.621,3.621,0,0,0,106.507,70.484Z" transform="translate(-93.212 -46.799)" fill="#9f0925"/>
      <path id="Trazado_722466" data-name="Trazado 722466" d="M319.989,52.284h-9.364a.788.788,0,0,0,0,1.575h9.364a.788.788,0,1,0,0-1.575Z" transform="translate(-282.787 -46.793)" fill="#9f0925"/>
      <path id="Trazado_722467" data-name="Trazado 722467" d="M319.989,95.868h-9.364a.788.788,0,0,0,0,1.575h9.364a.788.788,0,1,0,0-1.575Z" transform="translate(-282.787 -85.799)" fill="#9f0925"/>
      <path id="Trazado_722468" data-name="Trazado 722468" d="M319.989,139.452h-9.364a.788.788,0,0,0,0,1.575h9.364a.788.788,0,1,0,0-1.575Z" transform="translate(-282.787 -124.806)" fill="#9f0925"/>
      <path id="Trazado_722469" data-name="Trazado 722469" d="M319.989,183.036h-9.364a.788.788,0,0,0,0,1.575h9.364a.788.788,0,1,0,0-1.575Z" transform="translate(-282.787 -163.812)" fill="#9f0925"/>
      <path id="Trazado_722470" data-name="Trazado 722470" d="M108.157,313.965H98.793a.788.788,0,1,0,0,1.575h9.364a.788.788,0,0,0,0-1.575Z" transform="translate(-93.203 -280.99)" fill="#9f0925"/>
      <path id="Trazado_722471" data-name="Trazado 722471" d="M108.157,357.55H98.793a.788.788,0,1,0,0,1.575h9.364a.788.788,0,1,0,0-1.575Z" transform="translate(-93.203 -319.998)" fill="#9f0925"/>
      <path id="Trazado_722472" data-name="Trazado 722472" d="M108.157,401.134H98.793a.788.788,0,1,0,0,1.575h9.364a.788.788,0,1,0,0-1.575Z" transform="translate(-93.203 -359.004)" fill="#9f0925"/>
      <path id="Trazado_722473" data-name="Trazado 722473" d="M108.157,444.718H98.793a.788.788,0,0,0,0,1.575h9.364a.788.788,0,0,0,0-1.575Z" transform="translate(-93.203 -398.011)" fill="#9f0925"/>
      <path id="Trazado_722474" data-name="Trazado 722474" d="M236.69,283.067a4.844,4.844,0,0,0,1.186-.229,3.43,3.43,0,0,1,1.178-.177,2.144,2.144,0,0,1,1.025.338,2.631,2.631,0,0,0,1.213.384,1.769,1.769,0,0,0,1.274-.594,1.9,1.9,0,0,0,.284-2.573,4.613,4.613,0,0,1-.428-1.074,1.376,1.376,0,0,1,.1-1.056,3.929,3.929,0,0,0,.339-1.617,4.958,4.958,0,0,0-.243-1.629,3.43,3.43,0,0,1-.177-1.178,2.144,2.144,0,0,1,.338-1.025,1.935,1.935,0,0,0-2.7-2.7,2.145,2.145,0,0,1-1.025.338,3.426,3.426,0,0,1-1.178-.177,5.583,5.583,0,0,0-3.259,0,3.43,3.43,0,0,1-1.178.177,2.144,2.144,0,0,1-1.025-.338,1.935,1.935,0,0,0-2.7,2.7,2.145,2.145,0,0,1,.338,1.025,3.425,3.425,0,0,1-.177,1.178,4.857,4.857,0,0,0-.228,1.176,4.849,4.849,0,0,0-1.177.228,3.43,3.43,0,0,1-1.178.177,2.144,2.144,0,0,1-1.025-.338,1.935,1.935,0,0,0-2.7,2.7,2.145,2.145,0,0,1,.338,1.025,3.426,3.426,0,0,1-.177,1.178,5.583,5.583,0,0,0,0,3.259,3.43,3.43,0,0,1,.177,1.178,2.144,2.144,0,0,1-.338,1.025,1.935,1.935,0,0,0,2.7,2.7,2.145,2.145,0,0,1,1.025-.338,3.365,3.365,0,0,1,1.032.134.788.788,0,1,0,.434-1.514,4.93,4.93,0,0,0-1.466-.195,3.622,3.622,0,0,0-1.758.519,2,2,0,0,1-.463.2h0a.5.5,0,0,1-.176-.134.534.534,0,0,1-.133-.173,1.89,1.89,0,0,1,.2-.467,3.622,3.622,0,0,0,.519-1.758,4.959,4.959,0,0,0-.243-1.629,4.007,4.007,0,0,1,0-2.355,4.959,4.959,0,0,0,.243-1.63,3.623,3.623,0,0,0-.519-1.758,1.922,1.922,0,0,1-.2-.465.5.5,0,0,1,.134-.176.531.531,0,0,1,.173-.133h0a1.961,1.961,0,0,1,.464.2,3.621,3.621,0,0,0,1.758.519,4.959,4.959,0,0,0,1.629-.243,3.93,3.93,0,0,1,2.355,0,4.959,4.959,0,0,0,1.63.243,3.621,3.621,0,0,0,1.758-.519,2,2,0,0,1,.462-.2h0a.5.5,0,0,1,.176.134.532.532,0,0,1,.133.173,1.892,1.892,0,0,1-.2.467,3.621,3.621,0,0,0-.519,1.758,4.959,4.959,0,0,0,.243,1.629,3.007,3.007,0,0,1-.047,2.2,2.905,2.905,0,0,0-.169,2.013,6.163,6.163,0,0,0,.555,1.421,2.179,2.179,0,0,1,.208.482.745.745,0,0,1-.2.263.531.531,0,0,1-.173.133,2.106,2.106,0,0,1-.467-.2,3.622,3.622,0,0,0-1.758-.519,4.884,4.884,0,0,0-1.429.184.788.788,0,1,0,.427,1.516,3.364,3.364,0,0,1,1-.125,2.144,2.144,0,0,1,1.025.338,2.631,2.631,0,0,0,1.213.383,1.769,1.769,0,0,0,1.274-.594,1.9,1.9,0,0,0,.284-2.573,4.618,4.618,0,0,1-.428-1.074,1.376,1.376,0,0,1,.1-1.056A4.048,4.048,0,0,0,236.69,283.067Zm-2.756-6.983a2.146,2.146,0,0,1-1.025.338,3.425,3.425,0,0,1-1.178-.177c-.154-.046-.317-.095-.51-.136a3.367,3.367,0,0,1,.165-.816,4.963,4.963,0,0,0,.243-1.63,3.622,3.622,0,0,0-.519-1.758,1.92,1.92,0,0,1-.2-.465.5.5,0,0,1,.134-.176.533.533,0,0,1,.173-.133h0a1.96,1.96,0,0,1,.464.2,3.622,3.622,0,0,0,1.758.519,4.959,4.959,0,0,0,1.629-.243,4.007,4.007,0,0,1,2.355,0,4.959,4.959,0,0,0,1.63.243,3.621,3.621,0,0,0,1.758-.519,2,2,0,0,1,.463-.2h0a.5.5,0,0,1,.176.134.533.533,0,0,1,.133.173,1.889,1.889,0,0,1-.2.467,3.622,3.622,0,0,0-.519,1.758,4.958,4.958,0,0,0,.243,1.629,3.43,3.43,0,0,1,.177,1.178,2.384,2.384,0,0,1-.224,1.027,2.9,2.9,0,0,0-.169,2.013,6.163,6.163,0,0,0,.555,1.421,2.183,2.183,0,0,1,.208.483.75.75,0,0,1-.2.263.533.533,0,0,1-.173.133h0a1.959,1.959,0,0,1-.464-.2,3.621,3.621,0,0,0-1.758-.519,4.958,4.958,0,0,0-1.629.243,3.366,3.366,0,0,1-.817.165c-.042-.193-.09-.356-.136-.51a3.428,3.428,0,0,1-.177-1.178,2.144,2.144,0,0,1,.338-1.025,1.935,1.935,0,0,0-2.7-2.7Z" transform="translate(-205.24 -241.246)" fill="#9f0925"/>
    </g>
  </g>
</svg>
