<svg xmlns="http://www.w3.org/2000/svg" width="52.011" height="58" viewBox="0 0 52.011 58">
  <g id="acuerdo" transform="translate(-5.989 -3)">
    <path id="Trazado_722262" data-name="Trazado 722262" d="M56,9H48.816A3,3,0,0,0,46,7H44a1,1,0,0,1-1-1,3.015,3.015,0,0,0-3-3H34a3,3,0,0,0-3,3,.977.977,0,0,1-.307.713A.959.959,0,0,1,30,7H28a3,3,0,0,0-2.816,2H18a2,2,0,0,0-2,2V31.051a10.994,10.994,0,0,0,0,21.9V59a2,2,0,0,0,2,2H56a2,2,0,0,0,2-2V11A2,2,0,0,0,56,9ZM22,51.793c.013-.007.025-.016.039-.023a11,11,0,0,0,1.18-.709c.048-.033.1-.064.145-.1a10.973,10.973,0,0,0,1.033-.834c.05-.046.1-.09.148-.136a10.945,10.945,0,0,0,.892-.949c.045-.053.089-.106.133-.161a10.962,10.962,0,0,0,.751-1.055c.036-.058.071-.117.106-.176a11.052,11.052,0,0,0,.607-1.156c.025-.057.048-.115.072-.172a10.919,10.919,0,0,0,.454-1.256c.014-.049.025-.1.039-.148a11.012,11.012,0,0,0,.288-1.357.75.75,0,0,1,.01-.094,10.527,10.527,0,0,0,0-2.938.75.75,0,0,0-.01-.094,11.231,11.231,0,0,0-.288-1.359c-.014-.048-.025-.1-.039-.145a10.8,10.8,0,0,0-.455-1.26c-.024-.056-.046-.112-.07-.167a11.182,11.182,0,0,0-.61-1.163l-.1-.167a11.019,11.019,0,0,0-.759-1.066c-.04-.05-.081-.1-.122-.148a10.921,10.921,0,0,0-.9-.961c-.044-.042-.089-.082-.134-.123a10.943,10.943,0,0,0-1.047-.844c-.043-.031-.088-.06-.132-.09a10.985,10.985,0,0,0-1.188-.713c-.014-.007-.025-.017-.039-.024V15h3a2,2,0,0,0,2,2H47a2,2,0,0,0,2-2h3V55H22ZM28,9h2a2.92,2.92,0,0,0,2.107-.873A2.937,2.937,0,0,0,33,6a1,1,0,0,1,1-1h6a.977.977,0,0,1,.713.307A.959.959,0,0,1,41,6a3,3,0,0,0,3,3h2a1,1,0,0,1,1,1v5H27V10A1,1,0,0,1,28,9ZM18,11h7v2H21a1,1,0,0,0-1,1V31.424q-.281-.081-.566-.145c-.108-.025-.217-.049-.326-.07-.254-.049-.509-.088-.767-.12-.088-.01-.175-.025-.264-.034-.026,0-.051-.008-.077-.01ZM8,42a9.01,9.01,0,0,1,9-9,8.832,8.832,0,0,1,3.6.757,8.992,8.992,0,0,1,0,16.489A8.829,8.829,0,0,1,17,51,9.01,9.01,0,0,1,8,42ZM56,59H18V52.955a.676.676,0,0,0,.077-.01c.09-.009.178-.024.267-.035.256-.031.509-.069.761-.118.111-.022.221-.047.332-.072q.284-.064.563-.144V56a1,1,0,0,0,1,1H53a1,1,0,0,0,1-1V14a1,1,0,0,0-1-1H49V11h7Z" fill="#9f0925"/>
    <path id="Trazado_722263" data-name="Trazado 722263" d="M36,9h2a1,1,0,0,0,0-2H36a1,1,0,0,0,0,2Z" fill="#9f0925"/>
    <path id="Trazado_722264" data-name="Trazado 722264" d="M30,25H44a1,1,0,0,0,0-2H30a1,1,0,0,0,0,2Z" fill="#9f0925"/>
    <path id="Trazado_722265" data-name="Trazado 722265" d="M47,29H27a1,1,0,0,0,0,2H47a1,1,0,0,0,0-2Z" fill="#9f0925"/>
    <path id="Trazado_722266" data-name="Trazado 722266" d="M47,35H31a1,1,0,0,0,0,2H47a1,1,0,0,0,0-2Z" fill="#9f0925"/>
    <path id="Trazado_722267" data-name="Trazado 722267" d="M47,41H32a1,1,0,0,0,0,2H47a1,1,0,0,0,0-2Z" fill="#9f0925"/>
    <path id="Trazado_722268" data-name="Trazado 722268" d="M47,47H31a1,1,0,0,0,0,2H47a1,1,0,0,0,0-2Z" fill="#9f0925"/>
    <path id="Trazado_722269" data-name="Trazado 722269" d="M21.641,38.231a1,1,0,0,0-1.41.128l-4.3,5.16-2.226-2.226a1,1,0,1,0-1.414,1.414l3,3A.993.993,0,0,0,16,46h.045a1.007,1.007,0,0,0,.724-.358l5-6a1,1,0,0,0-.128-1.411Z" fill="#9f0925"/>
  </g>
</svg>
