<svg xmlns="http://www.w3.org/2000/svg" width="100" height="100" viewBox="0 0 100 100">
  <g id="Grupo_968998" data-name="Grupo 968998" transform="translate(-499 -3735)">
    <circle id="Elipse_4732" data-name="Elipse 4732" cx="50" cy="50" r="50" transform="translate(499 3735)" fill="#b3eeef"/>
    <path id="aguja_1_" data-name="aguja(1)" d="M1.833,8.327,3.256,9.566a10.911,10.911,0,0,0-.583,1.865A24.512,24.512,0,0,0,4.324,25.893C9.038,37.342,1.3,44.015.967,44.293a.712.712,0,0,0,.913,1.093c.089-.074,8.883-7.6,3.761-20.035A23.113,23.113,0,0,1,4.068,11.719a9.517,9.517,0,0,1,.325-1.163L44.372,45.377a.712.712,0,0,0,1-1L10.655,4.507c.083-.026.164-.057.248-.081C16.352,2.859,24.364,2.152,31.6,7.683c4.255,3.253,7.559,4.89,9.861,4.89a3.625,3.625,0,0,0,1.622-.347A3.452,3.452,0,0,0,44.84,9.253a.71.71,0,0,0-.707-.71h0a.714.714,0,0,0-.712.7,2.012,2.012,0,0,1-.977,1.706c-.965.468-3.542.52-9.979-4.4C24.758.662,16.273,1.4,10.51,3.058c-.294.085-.581.181-.865.288L8.327,1.833A5.344,5.344,0,0,0,4.3,0,4.3,4.3,0,0,0,0,4.3,5.341,5.341,0,0,0,1.833,8.327ZM4.3,1.423A3.92,3.92,0,0,1,7.253,2.769L8.292,3.961a11.2,11.2,0,0,0-.969.582L6.006,2.964a2.3,2.3,0,0,0-1.771-.829,2.1,2.1,0,0,0-2.1,2.1,2.3,2.3,0,0,0,.829,1.771L6.371,8.845A1.757,1.757,0,0,0,8.846,6.372l-.608-.73a9.776,9.776,0,0,1,1.019-.574L37.526,37.525,2.769,7.253A3.914,3.914,0,0,1,1.423,4.3,2.878,2.878,0,0,1,4.3,1.423ZM7.753,7.284a.33.33,0,0,1,.076.212.345.345,0,0,1-.547.256l-.789-.658c.2-.206.4-.4.611-.589ZM5.4,6.184,3.875,4.913a.88.88,0,0,1-.317-.678.678.678,0,0,1,.677-.677.88.88,0,0,1,.678.317l1.28,1.537q-.414.364-.793.77Z" transform="translate(526.5 3762.5)" fill="#9f0925" stroke="#9f0925" stroke-width="0.5"/>
  </g>
</svg>
