<svg xmlns="http://www.w3.org/2000/svg" width="100" height="100" viewBox="0 0 100 100">
  <g id="Grupo_968997" data-name="Grupo 968997" transform="translate(-750 -3735)">
    <circle id="Elipse_4733" data-name="Elipse 4733" cx="50" cy="50" r="50" transform="translate(750 3735)" fill="#b3eeef"/>
    <path id="buscar" d="M41.958,0H3.848A3.851,3.851,0,0,0,0,3.848v38.11a3.851,3.851,0,0,0,3.848,3.848h38.11a3.851,3.851,0,0,0,3.848-3.848V3.848A3.851,3.851,0,0,0,41.958,0ZM43.9,41.958A1.941,1.941,0,0,1,41.958,43.9H3.848a1.941,1.941,0,0,1-1.939-1.939V3.848A1.941,1.941,0,0,1,3.848,1.909h38.11A1.941,1.941,0,0,1,43.9,3.848ZM31.364,30.014a14.1,14.1,0,1,0-1.349,1.349L37.5,38.847A.955.955,0,0,0,38.847,37.5Zm-1.991-.641a12.177,12.177,0,1,1,0-17.217,12.177,12.177,0,0,1,0,17.217Z" transform="translate(777 3762)" fill="#9f0925"/>
  </g>
</svg>
