<svg xmlns="http://www.w3.org/2000/svg" width="100" height="100" viewBox="0 0 100 100">
  <g id="Grupo_968995" data-name="Grupo 968995" transform="translate(-1253 -3735)">
    <circle id="Elipse_4735" data-name="Elipse 4735" cx="50" cy="50" r="50" transform="translate(1253 3735)" fill="#b3eeef"/>
    <g id="bascula" transform="translate(1275.73 3756.137)">
      <g id="Grupo_968994" data-name="Grupo 968994" transform="translate(2.27 7.864)">
        <path id="Trazado_722497" data-name="Trazado 722497" d="M49.283,26.01H32.259v-.74a.768.768,0,0,0-1.536,0v.74h-6.64v-2.5h7.927a5.774,5.774,0,0,0,2.46-.559,16.484,16.484,0,0,0,9.438-14.29.768.768,0,0,0-.767-.8H11.666a.768.768,0,0,0-.767.8,16.481,16.481,0,0,0,9.438,14.29,5.781,5.781,0,0,0,2.211.545v2.957a.755.755,0,0,0-.078.325.768.768,0,0,0,.768.768h.069l.009,0,25.967,0A1.721,1.721,0,0,1,51,29.265v13.1a1.721,1.721,0,0,1-1.719,1.719H5.525a1.721,1.721,0,0,1-1.719-1.719v-13.1a1.721,1.721,0,0,1,1.719-1.719H19.547a.768.768,0,1,0,0-1.536H5.525A3.258,3.258,0,0,0,2.27,29.265v13.1a3.258,3.258,0,0,0,3.255,3.255H7.063v1.639A2.28,2.28,0,0,0,9.34,49.54H13.3a2.293,2.293,0,0,0,2.045-1.275l.472-.963a.768.768,0,0,0-1.38-.676l-.471.963A.747.747,0,0,1,13.3,48H9.34a.742.742,0,0,1-.741-.742V45.624H46.208v1.639a.743.743,0,0,1-.742.742H41.5a.747.747,0,0,1-.666-.415l-.335-.684a.768.768,0,1,0-1.378.676l.335.683A2.291,2.291,0,0,0,41.5,49.54h3.963a2.28,2.28,0,0,0,2.277-2.277V45.624h1.539a3.258,3.258,0,0,0,3.255-3.255v-13.1a3.258,3.258,0,0,0-3.255-3.255ZM12.485,9.4H42.322a14.949,14.949,0,0,1-8.51,12.164,4.229,4.229,0,0,1-1.8.41H22.8a4.23,4.23,0,0,1-1.8-.41A14.948,14.948,0,0,1,12.485,9.4Z" transform="translate(-2.27 -7.864)" fill="#9f0925"/>
        <path id="Trazado_722498" data-name="Trazado 722498" d="M32.172,48.2a.768.768,0,0,0,.768.768h5.927a.768.768,0,0,0,.768-.768V36.263a.768.768,0,0,0-.768-.768H7.037a.768.768,0,0,0-.768.768V48.2a.768.768,0,0,0,.768.768H28.331a.768.768,0,0,0,0-1.536H7.8v-10.4H38.1v10.4H32.94a.768.768,0,0,0-.768.768Z" transform="translate(-3.198 -14.277)" fill="#9f0925"/>
        <path id="Trazado_722499" data-name="Trazado 722499" d="M56.292,40.745a.768.768,0,0,0,0-1.536,3.885,3.885,0,1,0,2.645,1.041.768.768,0,1,0-1.047,1.124,2.325,2.325,0,0,1,.75,1.719,2.348,2.348,0,1,1-2.348-2.348Z" transform="translate(-13.907 -15.139)" fill="#9f0925"/>
        <path id="Trazado_722500" data-name="Trazado 722500" d="M13.185,41.064v4.573a.768.768,0,1,0,1.536,0V41.064a.768.768,0,0,0-1.536,0Z" transform="translate(-4.803 -15.391)" fill="#9f0925"/>
        <path id="Trazado_722501" data-name="Trazado 722501" d="M20.482,41.064v4.573a.768.768,0,1,0,1.536,0V41.064a.768.768,0,0,0-1.536,0Z" transform="translate(-6.497 -15.391)" fill="#9f0925"/>
        <path id="Trazado_722502" data-name="Trazado 722502" d="M33.505,41.064v4.573a.768.768,0,1,0,1.536,0V41.064a.768.768,0,0,0-1.536,0Z" transform="translate(-9.519 -15.391)" fill="#9f0925"/>
        <path id="Trazado_722503" data-name="Trazado 722503" d="M41.57,46.405a.768.768,0,0,0,.768-.768V41.064a.768.768,0,1,0-1.536,0v4.573A.768.768,0,0,0,41.57,46.405Z" transform="translate(-11.213 -15.391)" fill="#9f0925"/>
        <path id="Trazado_722504" data-name="Trazado 722504" d="M28.53,40.859a.768.768,0,1,0-1.536,0v.62a.768.768,0,0,0,1.536,0Z" transform="translate(-8.008 -15.344)" fill="#9f0925"/>
        <path id="Trazado_722505" data-name="Trazado 722505" d="M27.762,45.224a.768.768,0,0,0-.768.768v.62a.768.768,0,0,0,1.536,0v-.62A.768.768,0,0,0,27.762,45.224Z" transform="translate(-8.008 -16.535)" fill="#9f0925"/>
      </g>
    </g>
  </g>
</svg>
