<svg xmlns="http://www.w3.org/2000/svg" width="85" height="85" viewBox="0 0 85 85">
  <g id="Grupo_969048" data-name="Grupo 969048" transform="translate(-180 -1061)">
    <rect id="Rectángulo_36598" data-name="Rectángulo 36598" width="85" height="85" transform="translate(180 1061)" fill="none"/>
    <g id="archivo" transform="translate(193 1067.001)">
      <path id="Trazado_722552" data-name="Trazado 722552" d="M56.722,50.8a13.208,13.208,0,0,0-6.666-4.185V7.123A7.133,7.133,0,0,0,42.931,0H16.083a6.489,6.489,0,0,0-2.9.687l-.013.006L13.153.7c-.055.028-.109.058-.163.087l-.125.068c-.049.028-.1.056-.144.086s-.094.056-.14.086l-.126.083c-.05.034-.1.069-.15.1l-.111.081c-.053.039-.1.079-.155.12l-.1.081c-.052.043-.1.088-.154.133l-.094.083c-.051.047-.1.1-.152.145-.029.028-.058.056-.086.085-.06.061-.118.123-.175.187l-.047.05L6.969,6.973,1.64,12.967c-.064.072-.126.145-.187.22l-.054.069c-.039.05-.079.1-.117.152s-.059.082-.089.123l-.071.1c-.036.053-.07.107-.1.161l-.042.066c-.04.064-.078.128-.115.194l-.02.035q-.063.111-.122.226l0,0A6.482,6.482,0,0,0,0,17.28V61.328a7.133,7.133,0,0,0,7.126,7.126H37.136A13.19,13.19,0,0,0,56.723,50.8ZM12.387,5.144v7.938a.852.852,0,0,1-.851.851H4.574l4.27-4.8ZM7.125,65.619a4.3,4.3,0,0,1-4.291-4.291V17.28a3.589,3.589,0,0,1,.04-.513h8.661a3.69,3.69,0,0,0,3.686-3.686V2.938a3.648,3.648,0,0,1,.862-.1H42.931a4.3,4.3,0,0,1,4.291,4.29V46.186c-.175-.007-.352-.011-.527-.011A13.206,13.206,0,0,0,33.5,59.367c0,.175,0,.35.012.525,0,.048,0,.095.007.142q.011.223.029.443c0,.029,0,.059.007.087q.023.258.058.514c.006.044.012.087.018.131.019.138.041.275.065.412.007.041.014.082.021.124.031.168.065.335.1.5l.025.108q.048.2.1.406c.012.047.024.093.037.14.046.164.094.328.146.49.006.018.013.036.018.054.048.146.1.292.151.436l.053.142q.078.207.163.411c.01.024.019.049.03.074q.1.233.207.463l.064.133q.088.182.181.361l.059.113c.008.014.014.028.022.042Zm39.57,4.1A10.357,10.357,0,1,1,57.052,59.367,10.345,10.345,0,0,1,46.7,69.723Zm0,0" fill="#9f0925"/>
      <path id="Trazado_722553" data-name="Trazado 722553" d="M92.253,156.037h22.467a1.417,1.417,0,1,0,0-2.834H92.253a1.417,1.417,0,0,0,0,2.834Zm0,0" transform="translate(-77.963 -131.492)" fill="#9f0925"/>
      <path id="Trazado_722554" data-name="Trazado 722554" d="M251.974,227.385a1.419,1.419,0,0,0-.175-.215,1.432,1.432,0,0,0-.461-.306,1.412,1.412,0,0,0-.819-.081,1.405,1.405,0,0,0-.265.081,1.448,1.448,0,0,0-.245.131,1.368,1.368,0,0,0-.215.175,1.425,1.425,0,0,0-.176.215,1.507,1.507,0,0,0-.13.245,1.424,1.424,0,0,0-.081.265,1.428,1.428,0,0,0,0,.554,1.405,1.405,0,0,0,.081.265,1.484,1.484,0,0,0,.13.245,1.453,1.453,0,0,0,.176.215,1.425,1.425,0,0,0,1,.416,1.38,1.38,0,0,0,.278-.029,1.424,1.424,0,0,0,.265-.081,1.509,1.509,0,0,0,.245-.13,1.6,1.6,0,0,0,.215-.176,1.52,1.52,0,0,0,.175-.215,1.448,1.448,0,0,0,.131-.245,1.406,1.406,0,0,0,.081-.265,1.412,1.412,0,0,0-.081-.819A1.469,1.469,0,0,0,251.974,227.385Zm0,0" transform="translate(-214.038 -194.621)" fill="#9f0925"/>
      <path id="Trazado_722555" data-name="Trazado 722555" d="M92.253,229.588h16.8a1.417,1.417,0,1,0,0-2.834h-16.8a1.417,1.417,0,1,0,0,2.834Zm0,0" transform="translate(-77.963 -194.62)" fill="#9f0925"/>
      <path id="Trazado_722556" data-name="Trazado 722556" d="M92.253,303.143h22.467a1.417,1.417,0,1,0,0-2.834H92.253a1.417,1.417,0,1,0,0,2.834Zm0,0" transform="translate(-77.963 -257.751)" fill="#9f0925"/>
      <path id="Trazado_722557" data-name="Trazado 722557" d="M108.455,373.859h-16.2a1.417,1.417,0,1,0,0,2.834h16.2a1.417,1.417,0,1,0,0-2.834Zm0,0" transform="translate(-77.963 -320.878)" fill="#9f0925"/>
      <path id="Trazado_722558" data-name="Trazado 722558" d="M288.1,374.3a33,33,0,0,0-5.487,9.176l-4.382-2.809a1.417,1.417,0,1,0-1.53,2.386l5.833,3.739a1.418,1.418,0,0,0,2.1-.717c.023-.064,2.314-6.416,5.53-9.833A1.417,1.417,0,0,0,288.1,374.3Zm0,0" transform="translate(-236.93 -320.878)" fill="#9f0925"/>
    </g>
  </g>
</svg>
