<svg xmlns="http://www.w3.org/2000/svg" width="100" height="100" viewBox="0 0 100 100">
  <g id="Grupo_969044" data-name="Grupo 969044" transform="translate(-435 -1537)">
    <circle id="Elipse_4712" data-name="Elipse 4712" cx="50" cy="50" r="50" transform="translate(435 1537)" fill="#b3eeef"/>
    <g id="box" transform="translate(442.063 1555.403)">
      <path id="Trazado_722546" data-name="Trazado 722546" d="M72.8,36.207,68.172,23.865a2.17,2.17,0,0,0-2.022-1.4h-.164v-5.29h1.308A1.685,1.685,0,0,0,68.485,14.3L61.676,7.488a1.684,1.684,0,0,0-2.382,0L52.485,14.3a1.685,1.685,0,0,0,1.191,2.876h1.307v5.29H49.072V11.331h1.617a1.79,1.79,0,0,0,1.265-3.055L44.2.524a1.79,1.79,0,0,0-2.531,0L33.92,8.276a1.79,1.79,0,0,0,1.265,3.055H36.8v3.307a.926.926,0,1,0,1.851,0V11.269a1.792,1.792,0,0,0-1.79-1.79h-1.53l7.6-7.6,7.6,7.6H49.01a1.792,1.792,0,0,0-1.79,1.79V22.463H38.654V18.958a.926.926,0,1,0-1.851,0v3.505H30.891v-5.29H32.2A1.685,1.685,0,0,0,33.389,14.3L26.58,7.486a1.688,1.688,0,0,0-2.382,0L17.389,14.3a1.685,1.685,0,0,0,1.192,2.876h1.308v5.29h-.164a2.17,2.17,0,0,0-2.022,1.4L13.074,36.207A2.177,2.177,0,0,0,15.1,39.125h2.847V58.565a4.634,4.634,0,0,0,4.628,4.628H63.3a4.634,4.634,0,0,0,4.628-4.628V39.126h2.847A2.184,2.184,0,0,0,72.8,36.207ZM18.982,15.322,25.39,8.915,31.8,15.322H30.724a1.686,1.686,0,0,0-1.685,1.684v5.458h-7.3V17.005a1.686,1.686,0,0,0-1.685-1.684ZM15.1,37.274a.3.3,0,0,1-.289-.417l4.628-12.342a.31.31,0,0,1,.289-.2H41.6L36.817,37.074a.31.31,0,0,1-.289.2H15.1ZM42.011,61.342H22.572A2.78,2.78,0,0,1,19.8,58.565V39.126H36.528a2.17,2.17,0,0,0,2.022-1.4l3.461-9.23Zm12.067-46.02,6.407-6.407,6.407,6.407H65.819a1.686,1.686,0,0,0-1.685,1.684v5.458h-7.3V17.005a1.686,1.686,0,0,0-1.685-1.684Zm16.7,21.952H62.032a.926.926,0,1,0,0,1.851h4.047V58.565A2.78,2.78,0,0,1,63.3,61.342H43.863V28.494l3.461,9.23a2.17,2.17,0,0,0,2.022,1.4h8.366a.926.926,0,1,0,0-1.851H49.347a.31.31,0,0,1-.289-.2L44.273,24.315H66.15a.31.31,0,0,1,.289.2l4.628,12.342A.3.3,0,0,1,70.778,37.274Z" fill="#9f0925"/>
    </g>
  </g>
</svg>
