<svg xmlns="http://www.w3.org/2000/svg" width="100" height="100" viewBox="0 0 100 100">
  <g id="Grupo_960428" data-name="Grupo 960428" transform="translate(-435 -1537)">
    <circle id="Elipse_4712" data-name="Elipse 4712" cx="50" cy="50" r="50" transform="translate(435 1537)" fill="#b3eeef"/>
    <g id="project-management" transform="translate(455 1557)">
      <g id="Grupo_960408" data-name="Grupo 960408" transform="translate(0 0.248)">
        <g id="Grupo_960407" data-name="Grupo 960407">
          <path id="Trazado_706208" data-name="Trazado 706208" d="M59.146,17.556h0l0,0L55.271,17a1,1,0,0,1-.457-1.782l3.13-2.348a1,1,0,0,0,.2-1.394L54.559,6.7a1,1,0,0,0-1.394-.2L50.036,8.848a1,1,0,0,1-1.587-.937L49,4.038a1,1,0,0,0-.844-1.127h0l-5.91-.844a1,1,0,0,0-1.127.844h0l-.554,3.873a1,1,0,0,1-1.782.457l-2.347-3.13a1,1,0,0,0-1.394-.2L32.053,6.157a19.263,19.263,0,0,0-4.072,0A18.916,18.916,0,0,0,11.3,23.119c-.027.282-.037.562-.051.841h-.3a1,1,0,0,0-.974.8l-.688,3.271-2.756-1.9a1,1,0,0,0-1.269.115L2.279,29.229A1,1,0,0,0,2.163,30.5l1.892,2.751-3.272.688A1,1,0,0,0,0,34.911v3.982a1,1,0,0,0,.79.975l3.272.688L2.171,43.307a1,1,0,0,0,.115,1.268l2.987,2.987a1,1,0,0,0,1.269.115l2.751-1.9.688,3.272a1,1,0,0,0,.974.8h3.982a1,1,0,0,0,.975-.79l.688-3.272,2.751,1.892a1,1,0,0,0,1.268-.115l1.546-1.551v2.837a3.969,3.969,0,0,0,1.991,3.429V57.81a3.982,3.982,0,0,0,3.982,3.982h3.982A3.982,3.982,0,0,0,36.1,57.81V52.278a3.969,3.969,0,0,0,1.991-3.429V44.909a4.878,4.878,0,0,1,2.3-4.064,19.106,19.106,0,0,0,2.344-1.792l-1.328-1.483a16.949,16.949,0,0,1-2.1,1.6A6.857,6.857,0,0,0,36.1,44.909v3.941a1.991,1.991,0,0,1-1.991,1.991H26.148a1.991,1.991,0,0,1-1.991-1.991V44.826A6.7,6.7,0,0,0,21,39.207,16.874,16.874,0,0,1,29.916,8.045a1.082,1.082,0,0,0-.039.109,1,1,0,0,0,.19.738l2.347,3.129a.975.975,0,0,1,.06,1.105.99.99,0,0,1-1,.479l-3.873-.554a1,1,0,0,0-1.127.844h0l-.845,5.913a1,1,0,0,0,.844,1.127h0l3.873.554a1,1,0,0,1,.457,1.782l-3.129,2.347a1,1,0,0,0-.2,1.394l3.584,4.779a1,1,0,0,0,1.394.2l3.13-2.347a1,1,0,0,1,1.582.937l-.553,3.873a1,1,0,0,0,.844,1.127h0l5.914.845a1.1,1.1,0,0,0,.14.009,1,1,0,0,0,.987-.854l.553-3.873a1,1,0,0,1,1.782-.457l2.348,3.129a1,1,0,0,0,1.394.2l4.779-3.584a1,1,0,0,0,.2-1.394L53.21,26.472a.979.979,0,0,1-.06-1.105.967.967,0,0,1,1-.478l3.873.553a1,1,0,0,0,1.127-.844h0l.844-5.914A1,1,0,0,0,59.146,17.556Zm-33,35.275h7.965v1.991H26.148Zm0,3.982h7.965v1A1.991,1.991,0,0,1,32.121,59.8H28.139a1.991,1.991,0,0,1-1.991-1.991ZM18.222,39.645a18.818,18.818,0,0,0,1.7,1.239,4.86,4.86,0,0,1,2.006,2.548l-2.136,2.132-2.068-1.426a1.991,1.991,0,0,0-3.078,1.23l-.522,2.486H11.76l-.522-2.482a1.991,1.991,0,0,0-3.078-1.23L6.091,45.564l-1.814-1.81L5.7,41.687a1.991,1.991,0,0,0-1.229-3.079l-2.482-.523V35.72L4.473,35.2A1.991,1.991,0,0,0,5.7,32.124L4.277,30.051l1.814-1.81,2.07,1.426a1.991,1.991,0,0,0,3.077-1.231l.174-.828a18.959,18.959,0,0,0,.789,3.376,5.973,5.973,0,1,0,6.02,8.662Zm-1.546-1.4a3.976,3.976,0,1,1-3.734-5.322h.038A18.855,18.855,0,0,0,16.676,38.242ZM57.31,23.327l-2.887-.412a2.987,2.987,0,0,0-2.812,4.749L53.36,30l-3.186,2.389-1.75-2.332a2.987,2.987,0,0,0-5.346,1.369l-.4,2.891-3.942-.563.412-2.887A2.987,2.987,0,0,0,34.4,28.051L32.064,29.8l-2.389-3.186,2.332-1.75a2.987,2.987,0,0,0-1.369-5.346l-2.887-.412.563-3.942,2.887.412a2.987,2.987,0,0,0,2.813-4.749L32.258,8.492,35.444,6.1l1.75,2.333A2.987,2.987,0,0,0,42.54,7.067l.412-2.887,3.942.563-.412,2.887a2.987,2.987,0,0,0,4.749,2.812l2.333-1.749,2.389,3.186-2.333,1.75a2.987,2.987,0,0,0,1.369,5.346l2.887.412Z" transform="translate(0 -2.057)" fill="#9f0925"/>
        </g>
      </g>
      <g id="Grupo_960410" data-name="Grupo 960410" transform="translate(34.845 9.471)">
        <g id="Grupo_960409" data-name="Grupo 960409">
          <path id="Trazado_706209" data-name="Trazado 706209" d="M287.965,76.171a7.965,7.965,0,1,0,7.965,7.965A7.965,7.965,0,0,0,287.965,76.171Zm0,13.938a5.973,5.973,0,1,1,5.973-5.973A5.973,5.973,0,0,1,287.965,90.109Z" transform="translate(-280 -76.171)" fill="#9f0925"/>
        </g>
      </g>
      <g id="Grupo_960412" data-name="Grupo 960412" transform="translate(29.135 44.053)">
        <g id="Grupo_960411" data-name="Grupo 960411">
          <rect id="Rectángulo_36305" data-name="Rectángulo 36305" width="1.991" height="2.987" fill="#9f0925"/>
        </g>
      </g>
      <g id="Grupo_960414" data-name="Grupo 960414" transform="translate(16.184 11.353)">
        <g id="Grupo_960413" data-name="Grupo 960413">
          <path id="Trazado_706210" data-name="Trazado 706210" d="M139.636,114.214a11.947,11.947,0,0,1-2.017-21.239l-1.064-1.685a13.938,13.938,0,0,0,2.359,24.776A6.356,6.356,0,0,1,143,122h1.991A8.33,8.33,0,0,0,139.636,114.214Z" transform="translate(-130.044 -91.291)" fill="#9f0925"/>
        </g>
      </g>
      <g id="Grupo_960416" data-name="Grupo 960416" transform="translate(49.046 37.084)">
        <g id="Grupo_960415" data-name="Grupo 960415">
          <rect id="Rectángulo_36306" data-name="Rectángulo 36306" width="6.969" height="1.991" fill="#9f0925"/>
        </g>
      </g>
      <g id="Grupo_960418" data-name="Grupo 960418" transform="translate(47.414 42.292)">
        <g id="Grupo_960417" data-name="Grupo 960417" transform="translate(0 0)">
          <rect id="Rectángulo_36307" data-name="Rectángulo 36307" width="1.991" height="7.775" transform="matrix(0.64, -0.768, 0.768, 0.64, 0, 1.53)" fill="#9f0925"/>
        </g>
      </g>
      <g id="Grupo_960420" data-name="Grupo 960420" transform="translate(43.073 45.049)">
        <g id="Grupo_960419" data-name="Grupo 960419">
          <rect id="Rectángulo_36308" data-name="Rectángulo 36308" width="1.991" height="6.969" fill="#9f0925"/>
        </g>
      </g>
      <g id="Grupo_960422" data-name="Grupo 960422" transform="translate(1.017 15.211)">
        <g id="Grupo_960421" data-name="Grupo 960421" transform="translate(0 0)">
          <rect id="Rectángulo_36309" data-name="Rectángulo 36309" width="8.21" height="1.99" transform="translate(0 1.991) rotate(-14.035)" fill="#9f0925"/>
        </g>
      </g>
      <g id="Grupo_960424" data-name="Grupo 960424" transform="translate(2.67 5.413)">
        <g id="Grupo_960423" data-name="Grupo 960423" transform="translate(0 0)">
          <rect id="Rectángulo_36310" data-name="Rectángulo 36310" width="1.99" height="8.564" transform="matrix(0.581, -0.814, 0.814, 0.581, 0, 1.619)" fill="#9f0925"/>
        </g>
      </g>
      <g id="Grupo_960426" data-name="Grupo 960426" transform="translate(11.201 0)">
        <g id="Grupo_960425" data-name="Grupo 960425">
          <rect id="Rectángulo_36311" data-name="Rectángulo 36311" width="1.991" height="8.221" transform="matrix(0.969, -0.248, 0.248, 0.969, 0, 0.493)" fill="#9f0925"/>
        </g>
      </g>
    </g>
  </g>
</svg>
