<svg xmlns="http://www.w3.org/2000/svg" width="100" height="100" viewBox="0 0 100 100">
  <g id="Grupo_969084" data-name="Grupo 969084" transform="translate(-810 -4240)">
    <circle id="Elipse_4712" data-name="Elipse 4712" cx="50" cy="50" r="50" transform="translate(810 4240)" fill="#b3eeef"/>
    <g id="Page-1" transform="translate(830 4259.999)">
      <g id="_083---Money-Bag" data-name="083---Money-Bag">
        <path id="Shape" d="M27,34.5a1,1,0,0,0,2,0c0-3.308-3.06-6.042-7-6.444V27a1,1,0,0,0-2,0v1.056c-3.94.4-7,3.136-7,6.444s3.06,6.042,7,6.444v8.988c-2.833-.358-5-2.207-5-4.432a1,1,0,0,0-2,0c0,3.308,3.06,6.042,7,6.444V53a1,1,0,0,0,2,0V51.944c3.94-.4,7-3.136,7-6.444s-3.06-6.042-7-6.444V30.068C24.833,30.426,27,32.275,27,34.5Zm-12,0c0-2.225,2.167-4.074,5-4.432v8.864C17.167,38.574,15,36.725,15,34.5Zm12,11c0,2.225-2.167,4.074-5,4.432V41.068C24.833,41.426,27,43.275,27,45.5Z" fill="#9f0925"/>
        <path id="Shape-2" data-name="Shape" d="M3.6,30.173a1,1,0,0,0-1.328.486A24.4,24.4,0,0,0,0,41C0,53.607,7.065,60,21,60a32.337,32.337,0,0,0,8.357-.963,1,1,0,1,0-.514-1.933A30.832,30.832,0,0,1,21,58C8.215,58,2,52.439,2,41a22.114,22.114,0,0,1,2.087-9.5A1,1,0,0,0,3.6,30.173Z" fill="#9f0925"/>
        <path id="Shape-3" data-name="Shape" d="M57,25H35a3,3,0,0,0-3,3V57a3,3,0,0,0,3,3H57a3,3,0,0,0,3-3V28A3,3,0,0,0,57,25Zm1,32a1,1,0,0,1-1,1H35a1,1,0,0,1-1-1V28a1,1,0,0,1,1-1H57a1,1,0,0,1,1,1Z" fill="#9f0925"/>
        <path id="Shape-4" data-name="Shape" d="M39,38H53a2,2,0,0,0,2-2V32a2,2,0,0,0-2-2H39a2,2,0,0,0-2,2v4A2,2,0,0,0,39,38Zm0-6H53v4H39Z" fill="#9f0925"/>
        <path id="Shape-5" data-name="Shape" d="M41,41H38a1,1,0,0,0,0,2h3a1,1,0,0,0,0-2Z" fill="#9f0925"/>
        <path id="Shape-6" data-name="Shape" d="M41,45H38a1,1,0,0,0,0,2h3a1,1,0,0,0,0-2Z" fill="#9f0925"/>
        <path id="Shape-7" data-name="Shape" d="M41,49H38a1,1,0,0,0,0,2h3a1,1,0,0,0,0-2Z" fill="#9f0925"/>
        <path id="Shape-8" data-name="Shape" d="M41,53H38a1,1,0,0,0,0,2h3a1,1,0,0,0,0-2Z" fill="#9f0925"/>
        <path id="Shape-9" data-name="Shape" d="M48,41H45a1,1,0,0,0,0,2h3a1,1,0,0,0,0-2Z" fill="#9f0925"/>
        <path id="Shape-10" data-name="Shape" d="M48,45H45a1,1,0,0,0,0,2h3a1,1,0,0,0,0-2Z" fill="#9f0925"/>
        <path id="Shape-11" data-name="Shape" d="M48,49H45a1,1,0,0,0,0,2h3a1,1,0,0,0,0-2Z" fill="#9f0925"/>
        <path id="Shape-12" data-name="Shape" d="M48,53H45a1,1,0,0,0,0,2h3a1,1,0,0,0,0-2Z" fill="#9f0925"/>
        <path id="Shape-13" data-name="Shape" d="M55,41H52a1,1,0,0,0,0,2h3a1,1,0,0,0,0-2Z" fill="#9f0925"/>
        <path id="Shape-14" data-name="Shape" d="M55,45H52a1,1,0,0,0,0,2h3a1,1,0,0,0,0-2Z" fill="#9f0925"/>
        <path id="Shape-15" data-name="Shape" d="M55,49H52a1,1,0,0,0,0,2h3a1,1,0,0,0,0-2Z" fill="#9f0925"/>
        <path id="Shape-16" data-name="Shape" d="M55,53H52a1,1,0,0,0,0,2h3a1,1,0,0,0,0-2Z" fill="#9f0925"/>
        <path id="Shape-17" data-name="Shape" d="M6.325,1.263C3.692,3.675,8.318,11.115,11.044,15H10.5a3.482,3.482,0,0,0-2.477,1.022A3.525,3.525,0,0,0,7,18.5a3.489,3.489,0,0,0,1.754,3.015A47.1,47.1,0,0,0,5.46,25.4a1,1,0,1,0,1.6,1.2,48.326,48.326,0,0,1,4-4.6H31.5a3.5,3.5,0,1,0,0-7h-.544c2.725-3.885,7.351-11.324,4.72-13.737-1.21-1.108-2.62-.3-3.863.407A7.713,7.713,0,0,1,28,3a3.874,3.874,0,0,1-2.851-1.26,5.821,5.821,0,0,0-8.3,0A3.874,3.874,0,0,1,13.993,3a7.681,7.681,0,0,1-3.81-1.33C8.941.961,7.532.156,6.325,1.263ZM32.563,17.438A1.5,1.5,0,0,1,31.5,20h-21a1.5,1.5,0,1,1,0-3h21a1.51,1.51,0,0,1,1.063.438ZM13.993,5a5.821,5.821,0,0,0,4.151-1.741,3.854,3.854,0,0,1,5.7,0A5.825,5.825,0,0,0,28,5a9.581,9.581,0,0,0,4.809-1.594,4.182,4.182,0,0,1,1.519-.669C35.354,3.677,32.642,9.346,28.5,15H26V10a1,1,0,0,0-2,0v5H18V10a1,1,0,0,0-2,0v5H13.508C9.362,9.346,6.65,3.677,7.69,2.722a4.964,4.964,0,0,1,1.5.684A9.561,9.561,0,0,0,13.993,5Z" fill="#9f0925"/>
      </g>
    </g>
  </g>
</svg>
