<svg xmlns="http://www.w3.org/2000/svg" width="100" height="100" viewBox="0 0 100 100">
  <g id="Grupo_969046" data-name="Grupo 969046" transform="translate(-435 -1537)">
    <circle id="Elipse_4712" data-name="Elipse 4712" cx="50" cy="50" r="50" transform="translate(435 1537)" fill="#b3eeef"/>
    <path id="shipping-cost" d="M52.213,33.259V15.467a.938.938,0,0,0-.469-.812L26.575.124a.937.937,0,0,0-.937,0L.469,14.655A.937.937,0,0,0,0,15.467V44.53a.938.938,0,0,0,.469.812L25.638,59.873a.937.937,0,0,0,.938,0l8.5-4.909a14.117,14.117,0,1,0,17.134-21.7ZM26.106,28.916l-7.06-4.076L42.34,11.391l7.06,4.076Zm-14.359-8.29L35.041,7.177l5.424,3.132L17.171,23.757Zm4.487,4.755v9.279L10.81,31.529V22.25ZM26.106,2.019l7.06,4.076L9.872,19.543l-7.06-4.076ZM1.875,17.091l7.06,4.076v10.9a.938.938,0,0,0,.469.812L16.7,37.1a.938.938,0,0,0,1.406-.812V26.464l7.06,4.076v26.9L1.875,43.989ZM27.044,57.438V30.54L50.338,17.091V32.478A14.117,14.117,0,0,0,33.961,53.444Zm18.835.686A12.246,12.246,0,1,1,58.125,45.878,12.26,12.26,0,0,1,45.879,58.124Zm0-23.251a11,11,0,1,0,11,11A11.017,11.017,0,0,0,45.879,34.873Zm0,20.134a9.129,9.129,0,1,1,9.13-9.129A9.14,9.14,0,0,1,45.879,55.007Zm4.143-6.886a2.856,2.856,0,0,1-.67,2.274,4.248,4.248,0,0,1-2.535,1.293v.56a.938.938,0,0,1-1.875,0v-.575a3.928,3.928,0,0,1-3.2-2.861.938.938,0,1,1,1.819-.454,2.285,2.285,0,0,0,2.429,1.528,2.763,2.763,0,0,0,1.945-.719.991.991,0,0,0,.227-.821c-.068-.562-.405-1.249-2.424-1.581-2.942-.483-3.629-2.013-3.687-3.211a3.406,3.406,0,0,1,2.86-3.451l.033-.007v-.59a.938.938,0,1,1,1.875,0v.582a3.908,3.908,0,0,1,2.891,2.367.937.937,0,1,1-1.729.726,2.239,2.239,0,0,0-2.655-1.249,1.574,1.574,0,0,0-1.4,1.531c.015.3.054,1.113,2.118,1.452,2.432.4,3.772,1.478,3.981,3.2Z" transform="translate(455 1557.002)" fill="#9f0925"/>
  </g>
</svg>
