<svg xmlns="http://www.w3.org/2000/svg" width="70" height="70" viewBox="0 0 70 70">
  <g id="Grupo_969084" data-name="Grupo 969084" transform="translate(-620 -10785)">
    <circle id="Elipse_4712" data-name="Elipse 4712" cx="35" cy="35" r="35" transform="translate(620 10785)" fill="#b3eeef"/>
    <g id="patron-de-tela" transform="translate(631 10802)">
      <path id="Trazado_722272" data-name="Trazado 722272" d="M151.654,209.28H124.323a1.5,1.5,0,0,1-1.5-1.5V197.351h30.328v10.431A1.5,1.5,0,0,1,151.654,209.28Z" transform="translate(-111.329 -184.647)" fill="#0a81f9"/>
      <path id="Trazado_722273" data-name="Trazado 722273" d="M99.077,69.12c-2.98,0-5.4,3.214-5.4,7.179s2.416,7.179,5.4,7.179h27.659V69.12Z" transform="translate(-84.913 -68.418)" fill="#62b4fd"/>
      <path id="Trazado_722274" data-name="Trazado 722274" d="M122.219,69.12a16.529,16.529,0,0,0-1.585,7.179v.028a2.711,2.711,0,0,1-2.7,2.728h-19.4a4.115,4.115,0,0,1-.572-.041c.805,2.618,2.738,4.464,5,4.464h27.659V69.12Z" transform="translate(-88.794 -68.418)" fill="#27a2fb"/>
      <ellipse id="Elipse_4865" data-name="Elipse 4865" cx="5.396" cy="7.179" rx="5.396" ry="7.179" transform="translate(36.427 0.702)" fill="#89c6fc"/>
      <path id="Trazado_722275" data-name="Trazado 722275" d="M65.469,327.36H38.138a1.5,1.5,0,0,1-1.5-1.5V315.431H66.968v10.431A1.5,1.5,0,0,1,65.469,327.36Z" transform="translate(-33.211 -291.675)" fill="#fa4954"/>
      <path id="Trazado_722276" data-name="Trazado 722276" d="M62.86,315.431v6.324a1.5,1.5,0,0,1-1.5,1.5H36.64v2.61a1.5,1.5,0,0,0,1.5,1.5H65.47a1.5,1.5,0,0,0,1.5-1.5V315.431Z" transform="translate(-33.211 -291.675)" fill="#fa2a3b"/>
      <path id="Trazado_722277" data-name="Trazado 722277" d="M12.892,187.2c-2.98,0-5.4,3.214-5.4,7.179s2.416,7.179,5.4,7.179H40.551V187.2Z" transform="translate(-6.794 -175.446)" fill="#fa989e"/>
      <path id="Trazado_722278" data-name="Trazado 722278" d="M36.035,187.2a16.529,16.529,0,0,0-1.585,7.179v.028a2.711,2.711,0,0,1-2.7,2.728H12.35a4.115,4.115,0,0,1-.572-.041c.805,2.618,2.738,4.464,5,4.464H44.433V187.2Z" transform="translate(-10.676 -175.446)" fill="#fb636f"/>
      <ellipse id="Elipse_4866" data-name="Elipse 4866" cx="5.396" cy="7.179" rx="5.396" ry="7.179" transform="translate(28.361 11.754)" fill="#ffc3c6"/>
      <path id="Trazado_722279" data-name="Trazado 722279" d="M404.737,72.486a8.918,8.918,0,0,1,.884,3.937c0,3.965-2.416,7.179-5.4,7.179a4.175,4.175,0,0,1-1.584-.315,5.232,5.232,0,0,0,4.512,3.243c2.98,0,5.4-3.214,5.4-7.179C408.549,76.119,406.944,73.387,404.737,72.486Z" transform="translate(-361.33 -71.469)" fill="#62b4fd"/>
      <ellipse id="Elipse_4867" data-name="Elipse 4867" cx="3.038" cy="4.042" rx="3.038" ry="4.042" transform="translate(38.785 3.839)" fill="#62b4fd"/>
      <path id="Trazado_722280" data-name="Trazado 722280" d="M439.227,120.323c-.159,2.845-1.564,5.228-3.492,6.186a2.371,2.371,0,0,0,1.04.243c1.678,0,3.038-1.81,3.038-4.042A4.965,4.965,0,0,0,439.227,120.323Z" transform="translate(-394.952 -114.829)" fill="#0a81f9"/>
      <path id="Trazado_722281" data-name="Trazado 722281" d="M318.553,190.566a8.917,8.917,0,0,1,.884,3.937c0,3.965-2.416,7.179-5.4,7.179a4.175,4.175,0,0,1-1.584-.315,5.231,5.231,0,0,0,4.512,3.243c2.98,0,5.4-3.214,5.4-7.179C322.365,194.2,320.76,191.467,318.553,190.566Z" transform="translate(-283.212 -178.497)" fill="#fa989e"/>
      <ellipse id="Elipse_4868" data-name="Elipse 4868" cx="3.038" cy="4.042" rx="3.038" ry="4.042" transform="translate(30.718 14.891)" fill="#fa989e"/>
      <path id="Trazado_722282" data-name="Trazado 722282" d="M353.043,238.4c-.16,2.845-1.564,5.228-3.492,6.186a2.371,2.371,0,0,0,1.04.243c1.678,0,3.038-1.81,3.038-4.042A4.966,4.966,0,0,0,353.043,238.4Z" transform="translate(-316.834 -221.857)" fill="#fb636f"/>
      <path id="Trazado_722283" data-name="Trazado 722283" d="M46.2,64a5.482,5.482,0,0,0-4.377-2.383H14.165A5.481,5.481,0,0,0,9.788,64a9.174,9.174,0,0,0-1.721,5.5,9.925,9.925,0,0,0,.511,3.171H6.1a5.482,5.482,0,0,0-4.377,2.383,9.642,9.642,0,0,0,0,11,6.809,6.809,0,0,0,1.006,1.079v8.677a2.2,2.2,0,0,0,2.2,2.2H32.259a2.2,2.2,0,0,0,2.2-2.2v-.491a.7.7,0,0,0-1.4,0v.491a.8.8,0,0,1-.8.8H4.927a.8.8,0,0,1-.8-.8V88.021a4.9,4.9,0,0,0,1.967.415H33.055v3.9a.7.7,0,1,0,1.4,0V88.383a5.313,5.313,0,0,0,2.864-1.427h3a2.2,2.2,0,0,0,2.2-2.2V77.332A5.65,5.65,0,0,0,46.2,75a9.642,9.642,0,0,0,0-11ZM33.757,87.033H6.1c-2.589,0-4.695-2.906-4.695-6.478S3.509,74.077,6.1,74.077h6.7a.7.7,0,1,0,0-1.4H10.075A8.383,8.383,0,0,1,9.47,69.5c0-3.572,2.106-6.478,4.695-6.478H38.339a6.875,6.875,0,0,0-.893.98,9.174,9.174,0,0,0-1.721,5.5,9.663,9.663,0,0,0,.87,4.068,5.019,5.019,0,0,0-2.838-.9H15.746a.7.7,0,1,0,0,1.4H30.273a6.88,6.88,0,0,0-.893.979,9.174,9.174,0,0,0-1.721,5.5,9.461,9.461,0,0,0,1.179,4.669.7.7,0,0,0,1.22-.693,8.058,8.058,0,0,1-1-3.976c0-3.572,2.106-6.478,4.695-6.478s4.695,2.906,4.695,6.478-2.106,6.478-4.695,6.478Zm6.569-1.48H38.477a9.36,9.36,0,0,0,1.377-5,9.664,9.664,0,0,0-.87-4.068,5.1,5.1,0,0,0,2.137.844v7.425A.8.8,0,0,1,40.326,85.553Zm1.5-9.572c-2.589,0-4.695-2.906-4.695-6.478s2.106-6.478,4.695-6.478,4.695,2.906,4.695,6.478S44.412,75.981,41.823,75.981Z" transform="translate(0 -61.622)"/>
      <path id="Trazado_722284" data-name="Trazado 722284" d="M410.629,95.139c-2.062,0-3.74,2.128-3.74,4.744s1.678,4.744,3.74,4.744,3.74-2.128,3.74-4.744-1.678-4.744-3.74-4.744Zm0,8.085c-1.267,0-2.337-1.53-2.337-3.341s1.07-3.341,2.337-3.341,2.337,1.53,2.337,3.341S411.9,103.224,410.629,103.224Z" transform="translate(-368.806 -92.002)"/>
      <path id="Trazado_722285" data-name="Trazado 722285" d="M438.876,134.124c-.455,0-.823.49-.823,1.1s.369,1.1.823,1.1.823-.49.823-1.1S439.331,134.124,438.876,134.124Z" transform="translate(-397.053 -127.338)"/>
      <path id="Trazado_722286" data-name="Trazado 722286" d="M324.444,213.219c-2.062,0-3.74,2.128-3.74,4.744s1.678,4.744,3.74,4.744,3.74-2.128,3.74-4.744S326.507,213.219,324.444,213.219Zm0,8.085c-1.267,0-2.337-1.53-2.337-3.341s1.07-3.341,2.337-3.341,2.337,1.53,2.337,3.341S325.711,221.3,324.444,221.3Z" transform="translate(-290.687 -199.03)"/>
      <path id="Trazado_722287" data-name="Trazado 722287" d="M352.691,252.2c-.455,0-.823.49-.823,1.1s.369,1.1.823,1.1.823-.49.823-1.1S353.146,252.2,352.691,252.2Z" transform="translate(-318.934 -234.365)"/>
    </g>
  </g>
</svg>
