<svg xmlns="http://www.w3.org/2000/svg" width="70" height="70" viewBox="0 0 70 70">
  <g id="Grupo_969085" data-name="Grupo 969085" transform="translate(-1040 -10785)">
    <circle id="Elipse_4871" data-name="Elipse 4871" cx="35" cy="35" r="35" transform="translate(1040 10785)" fill="#b3eeef"/>
    <g id="tela" transform="translate(1056 10803)">
      <ellipse id="Elipse_4869" data-name="Elipse 4869" cx="4.529" cy="2.787" rx="4.529" ry="2.787" transform="translate(27.856 0.523)" fill="#e28086"/>
      <path id="Trazado_722288" data-name="Trazado 722288" d="M381,97.278c0,1.539,2.028,2.787,4.529,2.787s4.529-1.248,4.529-2.787V70.094c0,1.539-2.028,2.787-4.529,2.787S381,71.633,381,70.094Z" transform="translate(-353.144 -66.784)" fill="#dd636e"/>
      <path id="Trazado_722289" data-name="Trazado 722289" d="M34.451,34.763c0-1.539,2.028-2.787,4.529-2.787H7.391a.276.276,0,0,0-.276.276v26.64a.276.276,0,0,0,.276.276H34.451Z" transform="translate(-6.595 -31.453)" fill="#da4a54"/>
      <path id="Trazado_722290" data-name="Trazado 722290" d="M32.069,31.976a2,2,0,0,0-.543,1.325V51.079A6.627,6.627,0,0,1,24.9,57.706H7.115v1.186a.276.276,0,0,0,.276.276H34.451V34.763c0-1.539,2.028-2.787,4.529-2.787Z" transform="translate(-6.595 -31.453)" fill="#d82e3d"/>
      <ellipse id="Elipse_4870" data-name="Elipse 4870" cx="2.547" cy="0.959" rx="2.547" ry="0.959" transform="translate(29.838 2.351)" fill="#da4a54"/>
      <path id="Trazado_722291" data-name="Trazado 722291" d="M381,113.212c0,1.539,2.028,2.787,4.529,2.787s4.529-1.248,4.529-2.787v-5.118c0,1.539-2.028,2.787-4.529,2.787S381,109.633,381,108.094Z" transform="translate(-353.144 -102.006)" fill="#75cef9"/>
      <path id="Trazado_722292" data-name="Trazado 722292" d="M390.057,240.507c0,1.539-2.028,2.787-4.529,2.787S381,242.046,381,240.507v-2.413c0,1.539,2.028,2.787,4.529,2.787s4.529-1.248,4.529-2.787Z" transform="translate(-353.144 -222.501)" fill="#f9ef63"/>
      <path id="Trazado_722293" data-name="Trazado 722293" d="M381,336.212c0,1.539,2.028,2.787,4.529,2.787s4.529-1.248,4.529-2.787v-5.118c0,1.539-2.028,2.787-4.529,2.787S381,332.633,381,331.094Z" transform="translate(-353.144 -308.702)" fill="#b7e445"/>
      <path id="Trazado_722294" data-name="Trazado 722294" d="M7.115,201.244H34.451v2.441H7.115Z" transform="translate(-6.595 -188.346)" fill="#f6e738"/>
      <path id="Trazado_722295" data-name="Trazado 722295" d="M341,201.244h2.924v2.441H341Z" transform="translate(-316.069 -188.346)" fill="#ecd833"/>
      <path id="Trazado_722296" data-name="Trazado 722296" d="M7.115,70.094H34.451v5.218H7.115Z" transform="translate(-6.595 -66.784)" fill="#6bbef6"/>
      <path id="Trazado_722297" data-name="Trazado 722297" d="M341,70.094h2.924v5.218H341Z" transform="translate(-316.069 -66.784)" fill="#5ea5ec"/>
      <path id="Trazado_722298" data-name="Trazado 722298" d="M7.115,294.42H34.451v5.218H7.115Z" transform="translate(-6.595 -274.709)" fill="#aad540"/>
      <path id="Trazado_722299" data-name="Trazado 722299" d="M304.737,299.638h5.576V294.42h-2.925A6.617,6.617,0,0,1,304.737,299.638Z" transform="translate(-282.457 -274.709)" fill="#9dc63d"/>
      <path id="Trazado_722300" data-name="Trazado 722300" d="M403.48,52.8c1.489,0,3.091-.471,3.091-1.505s-1.6-1.505-3.091-1.505-3.091.471-3.091,1.505S401.991,52.8,403.48,52.8Zm0-1.915a3.736,3.736,0,0,1,1.937.41,4.779,4.779,0,0,1-3.874,0A3.737,3.737,0,0,1,403.48,50.881Z" transform="translate(-371.116 -47.961)"/>
      <path id="Trazado_722301" data-name="Trazado 722301" d="M37.433,28.154c0-1.867-2.227-3.33-5.069-3.33H4.536a.548.548,0,0,0,0,1.1h24.04a3.02,3.02,0,0,0-1.216,1.688H1.095V25.919h.886a.548.548,0,1,0,0-1.1H.823A.824.824,0,0,0,0,25.647v26.6a.824.824,0,0,0,.823.823H27.295V55.3c0,1.867,2.227,3.33,5.069,3.33s5.069-1.463,5.069-3.33V28.154ZM23.484,49.193l1.67-1.67a.547.547,0,0,0,0-.774l-1.67-1.67H25.01l2.057,2.057L25.01,49.193Zm-3.075,0,1.67-1.67a.548.548,0,0,0,0-.774l-1.67-1.67h1.527l2.057,2.057-2.057,2.057Zm-3.075,0L19,47.523a.547.547,0,0,0,0-.774l-1.67-1.67H18.86l2.057,2.057L18.86,49.193Zm-3.075,0,1.67-1.67a.548.548,0,0,0,0-.774l-1.67-1.67h1.527l2.057,2.057-2.057,2.057Zm-3.075,0,1.67-1.67a.547.547,0,0,0,0-.774l-1.67-1.67H12.71l2.057,2.057L12.71,49.193Zm-3.075,0,1.67-1.67a.548.548,0,0,0,0-.774l-1.67-1.67H9.635l2.057,2.057L9.635,49.193Zm-3.075,0,1.67-1.67a.547.547,0,0,0,0-.774l-1.67-1.67H6.559l2.057,2.057L6.559,49.193Zm-3.075,0,1.67-1.67a.548.548,0,0,0,0-.774l-1.67-1.67H3.484l2.057,2.057L3.484,49.193ZM4.906,28.7l-1.67,1.67a.548.548,0,0,0,0,.774l1.67,1.67H3.379L1.322,30.759,3.379,28.7H4.906Zm3.075,0-1.67,1.67a.547.547,0,0,0,0,.774l1.67,1.67H6.454L4.4,30.759,6.454,28.7H7.981Zm3.075,0-1.67,1.67a.548.548,0,0,0,0,.774l1.67,1.67H9.529L7.472,30.759,9.529,28.7h1.527Zm3.075,0-1.67,1.67a.547.547,0,0,0,0,.774l1.67,1.67H12.6l-2.057-2.057L12.6,28.7h1.527Zm3.075,0-1.67,1.67a.548.548,0,0,0,0,.774l1.67,1.67H15.68l-2.057-2.057L15.68,28.7h1.527Zm3.075,0-1.67,1.67a.547.547,0,0,0,0,.774l1.67,1.67H18.755L16.7,30.759,18.755,28.7h1.527Zm3.075,0-1.67,1.67a.548.548,0,0,0,0,.774l1.67,1.67H21.83l-2.057-2.057L21.83,28.7h1.527Zm3.075,0-1.67,1.67a.547.547,0,0,0,0,.774l1.67,1.67H24.905l-2.057-2.057L24.905,28.7h1.527Zm9.907,18.506c0,1.212-1.82,2.235-3.974,2.235s-3.974-1.024-3.974-2.235v-2.29a6.31,6.31,0,0,0,3.974,1.24,6.31,6.31,0,0,0,3.974-1.24ZM1.095,43.983V40.714h1.37a.548.548,0,1,0,0-1.1H1.095V38.276h26.2v1.343H5.02a.548.548,0,1,0,0,1.1H27.295v3.269Zm26.2-10.072v3.269H1.095V33.912Zm6.842.145a14.41,14.41,0,0,0,2.2,1.069v.913c0,1.184-1.738,2.188-3.828,2.234A13.6,13.6,0,0,0,34.6,36.63a.548.548,0,0,0-.09-.858,14.47,14.47,0,0,1-2.034-1.514A7.632,7.632,0,0,0,34.136,34.057Zm-3.387.036a14.866,14.866,0,0,0,2.577,2.215,14.78,14.78,0,0,1-2.615,1.756,4.262,4.262,0,0,1-1.683-.828,12.553,12.553,0,0,0,1.369-.6.548.548,0,0,0,.16-.849A14.683,14.683,0,0,1,28.77,33.3a5.86,5.86,0,0,0,1.979.794Zm-2.333,2.2a1.222,1.222,0,0,1-.027-.253V34.766c.27.4.562.8.88,1.19-.275.121-.559.232-.853.335Zm-1.122-4.161-1.372-1.372,1.372-1.372Zm0,12.947v.736l-.736-.736Zm1.1,4.22a4.473,4.473,0,0,0,.653.445q-.322.153-.653.287Zm7.949-8.88a1.742,1.742,0,0,1-.782,1.308.548.548,0,1,0,.665.87q.06-.046.117-.093v.324c0,1.212-1.82,2.235-3.974,2.235s-3.974-1.024-3.974-2.235v-.319a6.31,6.31,0,0,0,3.974,1.24,7.829,7.829,0,0,0,1.112-.079.547.547,0,1,0-.156-1.084,6.738,6.738,0,0,1-.956.067c-2.154,0-3.974-1.024-3.974-2.235v-2.29a6.31,6.31,0,0,0,3.974,1.24,6.31,6.31,0,0,0,3.974-1.24Zm-.833-6.859a4.6,4.6,0,0,0,.833-.541v.927Q35.916,33.768,35.506,33.56Zm.833-2.632c0,1.212-1.82,2.235-3.974,2.235S28.39,32.14,28.39,30.928v-.684a6.31,6.31,0,0,0,3.974,1.24,6.31,6.31,0,0,0,3.974-1.24ZM1.831,32.816H1.095v-.736ZM1.095,48.507V45.764l1.372,1.372Zm26.2-.05v.736h-.736Zm2.1,5.326c-.33-.342-.635-.684-.924-1.037a1.254,1.254,0,0,1-.076-.427V51.206a14.261,14.261,0,0,0,1.993-.923,7.481,7.481,0,0,0,1.718.251,14.891,14.891,0,0,1-1.752,1.27.548.548,0,0,0-.094.855,13.348,13.348,0,0,0,2.469,1.885q-.178.009-.359.01a5.664,5.664,0,0,1-2.974-.77Zm5,.446a15.042,15.042,0,0,1-2.868-1.886,14.789,14.789,0,0,0,2.32-1.943,5.952,5.952,0,0,0,2.086-.8A14.8,14.8,0,0,1,34.3,51.815a.548.548,0,0,0,.156.846,11.712,11.712,0,0,0,1.46.644A3.639,3.639,0,0,1,34.395,54.229Zm1.944-1.934c-.261-.094-.512-.194-.755-.3.27-.332.521-.666.755-1ZM32.364,25.919c2.154,0,3.974,1.024,3.974,2.235s-1.82,2.235-3.974,2.235-3.974-1.024-3.974-2.235S30.21,25.919,32.364,25.919ZM1.831,28.7l-.736.736V28.7ZM1.095,50.288h26.2c0,.593,0,.536,0,.541v1.147H1.095Zm31.269,7.244c-2.154,0-3.974-1.024-3.974-2.235v-.889a6.31,6.31,0,0,0,3.974,1.24,6.31,6.31,0,0,0,3.974-1.24V55.3C36.338,56.509,34.518,57.532,32.364,57.532Z" transform="translate(0 -24.824)"/>
    </g>
  </g>
</svg>
