<svg xmlns="http://www.w3.org/2000/svg" width="54.728" height="68.227" viewBox="0 0 54.728 68.227">
  <g id="paleta-de-color" transform="translate(-50.523)">
    <path id="Trazado_722559" data-name="Trazado 722559" d="M103.741,27.615l-3.687-4.078a5.847,5.847,0,0,0-1.71-7.782l-5.32-3.679a5.859,5.859,0,0,0-3.682-5.658L77.577,1.727a5.8,5.8,0,0,0-4.375.02A5.831,5.831,0,0,0,69.038,0H56.373a5.856,5.856,0,0,0-5.85,5.85V56.044A12.176,12.176,0,0,0,70.7,65.228a1.017,1.017,0,0,0,.089-.071L93.6,44.631a1,1,0,1,0-1.34-1.489l-.94.846L88.266,40.61l4.793-6.931L97.417,38.5l-1.983,1.784a1,1,0,0,0,1.34,1.489l6.55-5.9a5.85,5.85,0,0,0,.416-8.262ZM98.8,19.876a3.821,3.821,0,0,1-.621,2.877l-2.72,3.934L89.265,22.4l3.279-8.224L97.2,17.4a3.82,3.82,0,0,1,1.6,2.473ZM89.277,35.626l-4.141-2.864L88.5,24.314l5.815,4.021ZM83.1,44.564l-2.089-1.445,3.368-8.448,3.763,2.6ZM84.638,28.6l-2.9-1.158a1,1,0,0,0-.742,1.861l2.9,1.158-3.442,8.632-5.566-2.219v-10l2.12.845a1,1,0,0,0,.742-1.861l-2.863-1.141v-10l13.191,5.26ZM72.884,22.348H61.536a1,1,0,1,0,0,2H72.884v9.293H52.527V24.352h4.739a1,1,0,1,0,0-2H52.527V13.056H72.884v9.293Zm-20.358,13.3H72.884v9.293H52.527Zm22.361,3.384,4.824,1.923-4.824,12.1Zm6.243,11.9,1.111,1.229-5.193,4.673ZM76.8,53.664l3.443-8.636,1.711,1.183Zm.033-50.077L88.6,8.279a3.85,3.85,0,0,1,2.389,4.081c0,.008,0,.016,0,.024a3.865,3.865,0,0,1-.238.892l-1.927,4.832L74.888,12.553V5.85a5.815,5.815,0,0,0-.513-2.392,3.816,3.816,0,0,1,2.46.13ZM56.373,2H69.038A3.851,3.851,0,0,1,72.884,5.85v5.2H52.527V5.85A3.85,3.85,0,0,1,56.373,2Zm-3.846,54.04v-9.1H72.884v9.1a10.179,10.179,0,1,1-20.358,0Zm37.3-10.717-6.1,5.488L82.3,49.234,87.095,42.3Zm13.413-13.6a3.819,3.819,0,0,1-1.26,2.658l-3.077,2.769L94.23,31.987l4.664-6.744,3.36,3.716a3.82,3.82,0,0,1,.988,2.773Z" fill="#9f0925"/>
    <path id="Trazado_722560" data-name="Trazado 722560" d="M108.861,383.857a4.8,4.8,0,1,0,4.8,4.8A4.81,4.81,0,0,0,108.861,383.857Zm0,7.605a2.8,2.8,0,1,1,2.8-2.8A2.8,2.8,0,0,1,108.861,391.462Z" transform="translate(-46.383 -332.581)" fill="#9f0925"/>
  </g>
</svg>
