<svg id="Grupo_969076" data-name="Grupo 969076" xmlns="http://www.w3.org/2000/svg" width="59.704" height="66.196" viewBox="0 0 59.704 66.196">
  <g id="Grupo_969075" data-name="Grupo 969075" transform="translate(0 0)">
    <path id="Trazado_722561" data-name="Trazado 722561" d="M44.1,5.865l-3.781-.547a.607.607,0,0,1-.455-.33l-1.69-3.432a2.669,2.669,0,0,0-4.788,0l-1.7,3.437a.6.6,0,0,1-.453.328l-3.783.548a2.67,2.67,0,0,0-1.481,4.553l2.741,2.673a.6.6,0,0,1,.174.532l-.646,3.763A2.671,2.671,0,0,0,32.115,20.2L35.5,18.417a.6.6,0,0,1,.56,0L39.434,20.2a2.67,2.67,0,0,0,3.877-2.813l-.645-3.76a.6.6,0,0,1,.174-.532l2.741-2.673A2.669,2.669,0,0,0,44.1,5.865Zm.037,3.073L41.4,11.609a2.67,2.67,0,0,0-.769,2.363h0l.645,3.76a.6.6,0,0,1-.873.633l-3.373-1.779a2.672,2.672,0,0,0-2.489,0L31.152,18.37a.6.6,0,0,1-.873-.634l.646-3.763a2.67,2.67,0,0,0-.768-2.362L27.415,8.937a.6.6,0,0,1,.334-1.026l3.782-.547A2.671,2.671,0,0,0,33.542,5.9l1.7-3.437a.6.6,0,0,1,1.078,0L38.009,5.9a2.67,2.67,0,0,0,2.013,1.462l3.782.547a.6.6,0,0,1,.333,1.026Z" transform="translate(-25.162 -0.064)" fill="#9f0925"/>
    <path id="Trazado_722562" data-name="Trazado 722562" d="M86.5,64.637l-2.54,2.54-.548-.548a1.034,1.034,0,0,0-1.462,1.462l1.28,1.28a1.034,1.034,0,0,0,1.462,0L87.958,66.1A1.034,1.034,0,0,0,86.5,64.637Z" transform="translate(-74.337 -56.023)" fill="#9f0925"/>
    <path id="Trazado_722563" data-name="Trazado 722563" d="M221.933,20.791h32.323a1.034,1.034,0,0,0,0-2.069H221.933a1.034,1.034,0,0,0,0,2.069Z" transform="translate(-195.586 -16.309)" fill="#9f0925"/>
    <path id="Trazado_722564" data-name="Trazado 722564" d="M254.256,71.122H221.933a1.034,1.034,0,0,0,0,2.069h32.323a1.034,1.034,0,1,0,0-2.069Z" transform="translate(-195.586 -61.933)" fill="#9f0925"/>
    <path id="Trazado_722565" data-name="Trazado 722565" d="M221.933,125.59h23a1.034,1.034,0,1,0,0-2.069h-23a1.034,1.034,0,1,0,0,2.069Z" transform="translate(-195.586 -107.556)" fill="#9f0925"/>
    <path id="Trazado_722566" data-name="Trazado 722566" d="M44.1,182.738l-3.781-.547a.607.607,0,0,1-.455-.33l-1.69-3.432a2.669,2.669,0,0,0-4.788,0l-1.7,3.437a.6.6,0,0,1-.453.328l-3.783.548a2.67,2.67,0,0,0-1.481,4.553l2.741,2.673a.6.6,0,0,1,.174.532l-.646,3.763a2.671,2.671,0,0,0,3.875,2.814L35.5,195.29a.6.6,0,0,1,.56,0l3.373,1.779a2.67,2.67,0,0,0,3.877-2.813l-.645-3.76a.6.6,0,0,1,.174-.532l2.741-2.673a2.669,2.669,0,0,0-1.481-4.553Zm.037,3.073L41.4,188.482a2.67,2.67,0,0,0-.769,2.363h0l.645,3.76a.6.6,0,0,1-.873.633l-3.373-1.779a2.672,2.672,0,0,0-2.489,0l-3.386,1.783a.6.6,0,0,1-.873-.634l.646-3.763a2.67,2.67,0,0,0-.768-2.362l-2.742-2.673a.6.6,0,0,1,.334-1.026l3.782-.547a2.671,2.671,0,0,0,2.011-1.46l1.7-3.436a.6.6,0,0,1,1.078,0l1.69,3.433a2.67,2.67,0,0,0,2.013,1.462l3.782.547a.6.6,0,0,1,.333,1.026Z" transform="translate(-25.162 -154.064)" fill="#9f0925"/>
    <path id="Trazado_722567" data-name="Trazado 722567" d="M86.495,241.518l-2.54,2.54-.548-.549a1.034,1.034,0,0,0-1.464,1.462l1.28,1.281a1.035,1.035,0,0,0,1.463,0l3.272-3.272a1.034,1.034,0,0,0-1.463-1.462Z" transform="translate(-74.337 -210.029)" fill="#9f0925"/>
    <path id="Trazado_722568" data-name="Trazado 722568" d="M254.256,195.6H221.933a1.034,1.034,0,0,0,0,2.069h32.323a1.034,1.034,0,1,0,0-2.069Z" transform="translate(-195.586 -170.309)" fill="#9f0925"/>
    <path id="Trazado_722569" data-name="Trazado 722569" d="M254.256,247.995H221.933a1.034,1.034,0,0,0,0,2.069h32.323a1.034,1.034,0,1,0,0-2.069Z" transform="translate(-195.586 -215.932)" fill="#9f0925"/>
    <path id="Trazado_722570" data-name="Trazado 722570" d="M221.933,302.463h23a1.034,1.034,0,1,0,0-2.069h-23a1.034,1.034,0,1,0,0,2.069Z" transform="translate(-195.586 -261.555)" fill="#9f0925"/>
    <path id="Trazado_722571" data-name="Trazado 722571" d="M44.1,359.612l-3.781-.547a.607.607,0,0,1-.455-.329l-1.69-3.433a2.669,2.669,0,0,0-4.788,0l-1.7,3.437a.607.607,0,0,1-.452.329l-3.783.547a2.67,2.67,0,0,0-1.481,4.553l2.741,2.673a.6.6,0,0,1,.174.532l-.646,3.763a2.671,2.671,0,0,0,3.875,2.814l3.387-1.783a.6.6,0,0,1,.56,0l3.373,1.779a2.671,2.671,0,0,0,3.877-2.813l-.645-3.761h0a.6.6,0,0,1,.174-.532l2.741-2.673a2.669,2.669,0,0,0-1.48-4.553Zm.037,3.073L41.4,365.356a2.67,2.67,0,0,0-.769,2.363l.646,3.761a.6.6,0,0,1-.874.633l-3.373-1.779a2.666,2.666,0,0,0-2.489,0l-3.386,1.783a.6.6,0,0,1-.873-.634l.646-3.763a2.67,2.67,0,0,0-.768-2.362l-2.742-2.673a.6.6,0,0,1,.333-1.026l3.785-.547a2.67,2.67,0,0,0,2.01-1.46l1.7-3.436a.6.6,0,0,1,1.078,0l1.691,3.434a2.669,2.669,0,0,0,2.012,1.462l3.782.547a.6.6,0,0,1,.333,1.026Z" transform="translate(-25.162 -308.064)" fill="#9f0925"/>
    <path id="Trazado_722572" data-name="Trazado 722572" d="M86.495,418.391l-2.54,2.54-.548-.549a1.035,1.035,0,0,0-1.464,1.462l1.28,1.281a1.035,1.035,0,0,0,1.463,0l3.272-3.272a1.034,1.034,0,0,0-1.463-1.462Z" transform="translate(-74.337 -364.029)" fill="#9f0925"/>
    <path id="Trazado_722573" data-name="Trazado 722573" d="M254.256,372.468H221.933a1.034,1.034,0,0,0,0,2.069h32.323a1.034,1.034,0,1,0,0-2.069Z" transform="translate(-195.586 -324.309)" fill="#9f0925"/>
    <path id="Trazado_722574" data-name="Trazado 722574" d="M254.256,424.868H221.933a1.034,1.034,0,1,0,0,2.069h32.323a1.034,1.034,0,1,0,0-2.069Z" transform="translate(-195.586 -369.932)" fill="#9f0925"/>
    <path id="Trazado_722575" data-name="Trazado 722575" d="M244.93,477.267h-23a1.034,1.034,0,1,0,0,2.069h23a1.034,1.034,0,0,0,0-2.069Z" transform="translate(-195.586 -415.555)" fill="#9f0925"/>
  </g>
</svg>
