<svg xmlns="http://www.w3.org/2000/svg" xmlns:xlink="http://www.w3.org/1999/xlink" width="68.292" height="68.292" viewBox="0 0 68.292 68.292">
  <defs>
    <clipPath id="clip-path">
      <path id="path2241" d="M0-682.665H68.292v68.292H0Z" transform="translate(0 682.665)" fill="#9f0925"/>
    </clipPath>
  </defs>
  <g id="g2235" transform="translate(0 682.665)">
    <g id="g2237" transform="translate(0 -682.665)">
      <g id="g2239" clip-path="url(#clip-path)">
        <g id="g2245" transform="translate(34.583 50.143)">
          <path id="path2247" d="M0-46.194l8.9,1.856a1.418,1.418,0,0,0,1.1-.222l9.782-6.769" transform="translate(0 51.329)" fill="none" stroke="#9f0925" stroke-linecap="round" stroke-linejoin="round" stroke-miterlimit="10" stroke-width="2"/>
        </g>
        <g id="g2249" transform="translate(1.001 40.581)">
          <path id="path2251" d="M-75.38,0l-7.767,5.374a1.419,1.419,0,0,0,.518,2.555l27.417,5.718" transform="translate(83.759)" fill="none" stroke="#9f0925" stroke-linecap="round" stroke-linejoin="round" stroke-miterlimit="10" stroke-width="2"/>
        </g>
        <g id="g2253" transform="translate(58.371 37.568)">
          <path id="path2255" d="M0-88.161,8.308-93.91a1.419,1.419,0,0,0-.518-2.555l-7.173-1.5" transform="translate(0 97.961)" fill="none" stroke="#9f0925" stroke-linecap="round" stroke-linejoin="round" stroke-miterlimit="10" stroke-width="2"/>
        </g>
        <g id="g2257" transform="translate(11.334 31.291)">
          <path id="path2259" d="M0,0V9.073" transform="translate(0)" fill="none" stroke="#9f0925" stroke-linecap="round" stroke-linejoin="round" stroke-miterlimit="10" stroke-width="2"/>
        </g>
        <g id="g2261" transform="translate(6.084 33.646)">
          <path id="path2263" d="M0-50.587v-5.623" transform="translate(0 56.211)" fill="none" stroke="#9f0925" stroke-linecap="round" stroke-linejoin="round" stroke-miterlimit="10" stroke-width="2"/>
        </g>
        <g id="g2265" transform="translate(16.26 32.563)">
          <path id="path2267" d="M0-79.416v-8.828" transform="translate(0 88.244)" fill="none" stroke="#9f0925" stroke-linecap="round" stroke-linejoin="round" stroke-miterlimit="10" stroke-width="2"/>
        </g>
        <g id="g2269" transform="translate(21.51 33.611)">
          <path id="path2271" d="M0,0V8.874" transform="translate(0)" fill="none" stroke="#9f0925" stroke-linecap="round" stroke-linejoin="round" stroke-miterlimit="10" stroke-width="2"/>
        </g>
        <g id="g2273" transform="translate(26.433 33.479)">
          <path id="path2275" d="M0-90.264V-100.3" transform="translate(0 100.297)" fill="none" stroke="#9f0925" stroke-linecap="round" stroke-linejoin="round" stroke-miterlimit="10" stroke-width="2"/>
        </g>
        <g id="g2277" transform="translate(31.683 32.872)">
          <path id="path2279" d="M0,0V11.736" transform="translate(0)" fill="none" stroke="#9f0925" stroke-linecap="round" stroke-linejoin="round" stroke-miterlimit="10" stroke-width="2"/>
        </g>
        <g id="g2281" transform="translate(36.609 32.197)">
          <path id="path2283" d="M0-120.891v-13.438" transform="translate(0 134.329)" fill="none" stroke="#9f0925" stroke-linecap="round" stroke-linejoin="round" stroke-miterlimit="10" stroke-width="2"/>
        </g>
        <g id="g2285" transform="translate(41.859 31.59)">
          <path id="path2287" d="M0,0V15.14" transform="translate(0)" fill="none" stroke="#9f0925" stroke-linecap="round" stroke-linejoin="round" stroke-miterlimit="10" stroke-width="2"/>
        </g>
        <g id="g2289" transform="translate(52.032 30.306)">
          <path id="path2291" d="M0,0V11.381" fill="none" stroke="#9f0925" stroke-linecap="round" stroke-linejoin="round" stroke-miterlimit="10" stroke-width="2"/>
        </g>
        <g id="g2293" transform="translate(46.782 30.915)">
          <path id="path2295" d="M0-129.594V-144" transform="translate(0 144)" fill="none" stroke="#9f0925" stroke-linecap="round" stroke-linejoin="round" stroke-miterlimit="10" stroke-width="2"/>
        </g>
        <g id="g2297" transform="translate(56.958 29.205)">
          <path id="path2299" d="M0-81.636V-90.71" transform="translate(0 90.71)" fill="none" stroke="#9f0925" stroke-linecap="round" stroke-linejoin="round" stroke-miterlimit="10" stroke-width="2"/>
        </g>
        <g id="g2301" transform="translate(62.208 28.598)">
          <path id="path2303" d="M0,0V6.049" transform="translate(0)" fill="none" stroke="#9f0925" stroke-linecap="round" stroke-linejoin="round" stroke-miterlimit="10" stroke-width="2"/>
        </g>
        <g id="g2305" transform="translate(1.001 27.948)">
          <path id="path2307" d="M-75.708-26.692l-7.8,5.4a1.419,1.419,0,0,0,.518,2.555l41.351,8.624a1.418,1.418,0,0,0,1.1-.222l22.1-15.293a1.419,1.419,0,0,0-.518-2.555l-7.074-1.475" transform="translate(84.123 29.659)" fill="none" stroke="#9f0925" stroke-linecap="round" stroke-linejoin="round" stroke-miterlimit="10" stroke-width="2"/>
        </g>
        <g id="g2309" transform="translate(23.05 21.685)">
          <path id="path2311" d="M-304.377-66.851l-12.091-7.23a1.418,1.418,0,0,0-1.437-.011l-20.305,11.717" transform="translate(338.211 74.282)" fill="none" stroke="#9f0925" stroke-linecap="round" stroke-linejoin="round" stroke-miterlimit="10" stroke-width="2"/>
        </g>
        <g id="g2313" transform="translate(1.001 11.128)">
          <path id="path2315" d="M-297.209-17.58l-9.227-1.924a1.419,1.419,0,0,0-1.1.222l-22.1,15.293a1.419,1.419,0,0,0,.518,2.555l20.92,4.363,33.834-4.476,9.8-6.778a1.419,1.419,0,0,0-.518-2.555l-27.192-5.671" transform="translate(330.246 19.535)" fill="none" stroke="#9f0925" stroke-linecap="round" stroke-linejoin="round" stroke-miterlimit="10" stroke-width="2"/>
        </g>
      </g>
    </g>
  </g>
</svg>
