<svg xmlns="http://www.w3.org/2000/svg" xmlns:xlink="http://www.w3.org/1999/xlink" width="451.826" height="300" viewBox="0 0 451.826 300">
  <defs>
    <clipPath id="clip-path">
      <rect id="Rectángulo_36531" data-name="Rectángulo 36531" width="327.414" height="260.981" fill="none"/>
    </clipPath>
    <clipPath id="clip-path-5">
      <rect id="Rectángulo_36511" data-name="Rectángulo 36511" width="18.79" height="36.673" fill="none"/>
    </clipPath>
    <clipPath id="clip-path-6">
      <rect id="Rectángulo_36512" data-name="Rectángulo 36512" width="19.775" height="43.181" fill="none"/>
    </clipPath>
    <clipPath id="clip-path-8">
      <rect id="Rectángulo_36514" data-name="Rectángulo 36514" width="115.798" height="169.71" fill="none"/>
    </clipPath>
    <clipPath id="clip-path-10">
      <rect id="Rectángulo_36516" data-name="Rectángulo 36516" width="124.704" height="167.997" fill="none"/>
    </clipPath>
    <clipPath id="clip-path-14">
      <rect id="Rectángulo_36520" data-name="Rectángulo 36520" width="124.704" height="167.996" fill="none"/>
    </clipPath>
    <clipPath id="clip-path-16">
      <rect id="Rectángulo_36522" data-name="Rectángulo 36522" width="115.798" height="169.711" fill="none"/>
    </clipPath>
    <clipPath id="clip-path-17">
      <rect id="Rectángulo_36523" data-name="Rectángulo 36523" width="86.106" height="148.024" fill="none"/>
    </clipPath>
    <clipPath id="clip-path-18">
      <rect id="Rectángulo_36524" data-name="Rectángulo 36524" width="29.691" height="51.427" fill="none"/>
    </clipPath>
    <clipPath id="clip-path-19">
      <rect id="Rectángulo_36525" data-name="Rectángulo 36525" width="26.724" height="82.812" fill="none"/>
    </clipPath>
    <clipPath id="clip-path-20">
      <rect id="Rectángulo_36526" data-name="Rectángulo 36526" width="127.675" height="155.997" fill="none"/>
    </clipPath>
    <clipPath id="clip-path-21">
      <rect id="Rectángulo_36527" data-name="Rectángulo 36527" width="35.099" height="57.968" fill="none"/>
    </clipPath>
    <clipPath id="clip-path-22">
      <rect id="Rectángulo_36528" data-name="Rectángulo 36528" width="11.89" height="15.38" fill="none"/>
    </clipPath>
    <clipPath id="clip-path-23">
      <rect id="Rectángulo_36529" data-name="Rectángulo 36529" width="23.914" height="37.37" fill="none"/>
    </clipPath>
  </defs>
  <g id="Grupo_968846" data-name="Grupo 968846" transform="translate(-285 -718)">
    <g id="Grupo_968697" data-name="Grupo 968697" transform="translate(0 -30)">
      <rect id="BG" width="451.826" height="300" transform="translate(285 748)" fill="#def8f8"/>
    </g>
    <g id="Grupo_968943" data-name="Grupo 968943" transform="translate(326.074 738)">
      <g id="Grupo_968942" data-name="Grupo 968942" clip-path="url(#clip-path)">
        <g id="Grupo_968885" data-name="Grupo 968885">
          <g id="Grupo_968884" data-name="Grupo 968884" clip-path="url(#clip-path)">
            <path id="Trazado_722302" data-name="Trazado 722302" d="M47.949,269.034c63.932,33.4,167.585,33.4,231.515,0s63.932-87.548,0-120.947-167.585-33.4-231.516,0-63.932,87.549,0,120.946" transform="translate(0 -33.103)" fill="#f5f5f5"/>
          </g>
        </g>
        <path id="Trazado_722303" data-name="Trazado 722303" d="M33.53,227.027l-20.784-12V170.457l20.785,12Z" transform="translate(-3.429 -45.861)" fill="#e0e0e0"/>
        <path id="Trazado_722304" data-name="Trazado 722304" d="M41.181,180.564l29.691-17.142v44.57L41.181,225.135Z" transform="translate(-11.079 -43.968)" fill="#ebebeb"/>
        <path id="Trazado_722305" data-name="Trazado 722305" d="M63.222,159,33.53,176.147l-20.785-12L42.437,147Z" transform="translate(-3.429 -39.551)" fill="#f5f5f5"/>
        <path id="Trazado_722306" data-name="Trazado 722306" d="M45.243,184.171,69,170.457l.546.316v16.509L45.788,201l-.546-.316Z" transform="translate(-12.172 -45.861)" fill="#e0e0e0"/>
        <path id="Trazado_722307" data-name="Trazado 722307" d="M45.99,184.6l23.753-13.714V187.4L45.99,201.111Z" transform="translate(-12.373 -45.977)" fill="#f5f5f5"/>
        <g id="Grupo_968887" data-name="Grupo 968887">
          <g id="Grupo_968886" data-name="Grupo 968886" clip-path="url(#clip-path)">
            <path id="Trazado_722308" data-name="Trazado 722308" d="M58.379,185.206l4.039-2.332c.525-.3.95-.164.95.309a1.9,1.9,0,0,1-.95,1.4l-4.04,2.332c-.524.3-.95.164-.949-.308a1.9,1.9,0,0,1,.95-1.406" transform="translate(-15.451 -49.158)" fill="#e0e0e0"/>
            <path id="Trazado_722309" data-name="Trazado 722309" d="M44.5,212.749l23.754-13.714v16.509l.547.316L45.041,229.574l-.546-.316Z" transform="translate(-11.971 -53.549)" fill="#e0e0e0"/>
            <path id="Trazado_722310" data-name="Trazado 722310" d="M45.242,213.181,69,199.466v16.509L45.242,229.69Z" transform="translate(-12.172 -53.665)" fill="#f5f5f5"/>
            <path id="Trazado_722311" data-name="Trazado 722311" d="M57.631,213.785l4.039-2.332c.525-.3.95-.164.95.309a1.9,1.9,0,0,1-.95,1.406L57.63,215.5c-.524.3-.95.164-.949-.309a1.9,1.9,0,0,1,.95-1.406" transform="translate(-15.25 -56.847)" fill="#e0e0e0"/>
            <path id="Trazado_722312" data-name="Trazado 722312" d="M33.529,162.534l-20.785-12V105.964l20.784,12Z" transform="translate(-3.429 -28.509)" fill="#e0e0e0"/>
            <path id="Trazado_722313" data-name="Trazado 722313" d="M41.179,116.071,70.871,98.928V143.5L41.18,160.641Z" transform="translate(-11.079 -26.616)" fill="#ebebeb"/>
            <path id="Trazado_722314" data-name="Trazado 722314" d="M63.221,94.511,33.529,111.654l-20.784-12L42.436,82.511Z" transform="translate(-3.429 -22.199)" fill="#f5f5f5"/>
            <path id="Trazado_722315" data-name="Trazado 722315" d="M45.241,119.677,69,105.963l.546.316v16.509L45.787,136.5l-.547-.316Z" transform="translate(-12.172 -28.509)" fill="#e0e0e0"/>
            <path id="Trazado_722316" data-name="Trazado 722316" d="M58.377,120.713l4.039-2.332c.525-.3.95-.164.95.308a1.9,1.9,0,0,1-.95,1.406l-4.04,2.332c-.524.3-.949.164-.949-.308a1.9,1.9,0,0,1,.95-1.406" transform="translate(-15.45 -31.807)" fill="#e0e0e0"/>
            <path id="Trazado_722317" data-name="Trazado 722317" d="M44.494,148.256l23.754-13.714v16.509l.546.316L45.04,165.08l-.547-.316Z" transform="translate(-11.971 -36.198)" fill="#e0e0e0"/>
            <path id="Trazado_722318" data-name="Trazado 722318" d="M45.241,148.688l23.753-13.714v16.509L45.241,165.2Z" transform="translate(-12.172 -36.314)" fill="#f5f5f5"/>
            <path id="Trazado_722319" data-name="Trazado 722319" d="M57.63,149.292l4.039-2.332c.525-.3.95-.165.95.308a1.9,1.9,0,0,1-.95,1.406l-4.04,2.332c-.524.3-.949.164-.949-.308a1.9,1.9,0,0,1,.95-1.406" transform="translate(-15.249 -39.496)" fill="#e0e0e0"/>
            <path id="Trazado_722320" data-name="Trazado 722320" d="M45.241,119.677l23.754-13.714v16.509L45.24,136.185Z" transform="translate(-12.172 -28.509)" fill="#e0e0e0"/>
            <path id="Trazado_722321" data-name="Trazado 722321" d="M89.2,114.359l-13-7.5V121.4l13,7.505Z" transform="translate(-20.5 -28.749)" fill="#e0e0e0"/>
            <path id="Trazado_722322" data-name="Trazado 722322" d="M57.428,139.165V118.594l5.1-2.952.841,1.238,14.846-8.571v18.856Z" transform="translate(-15.451 -29.14)" fill="#ebebeb"/>
            <path id="Trazado_722323" data-name="Trazado 722323" d="M57.428,139.481l1.484-18,20.785-12-1.484,18Z" transform="translate(-15.451 -29.455)" fill="#f5f5f5"/>
            <path id="Trazado_722324" data-name="Trazado 722324" d="M57.318,133.475l-11.332-6.543v14.545l11.332,6.542Z" transform="translate(-12.372 -34.151)" fill="#ebebeb"/>
            <path id="Trazado_722325" data-name="Trazado 722325" d="M61.489,129.058l23.753-13.714v16.509L61.489,145.566Z" transform="translate(-16.543 -31.033)" fill="#f5f5f5"/>
            <path id="Trazado_722326" data-name="Trazado 722326" d="M73.878,129.661l4.039-2.332c.525-.3.95-.164.95.309a1.9,1.9,0,0,1-.95,1.4l-4.04,2.332c-.524.3-.949.164-.949-.309a1.9,1.9,0,0,1,.95-1.4" transform="translate(-19.621 -34.214)" fill="#e0e0e0"/>
            <path id="Trazado_722327" data-name="Trazado 722327" d="M61.2,133.937l-.792-.457v16.509l.792.457Z" transform="translate(-16.252 -35.912)" fill="#e0e0e0"/>
            <path id="Trazado_722328" data-name="Trazado 722328" d="M60.407,128.433,84.16,114.719l.791.457L61.2,128.89Z" transform="translate(-16.252 -30.865)" fill="#ebebeb"/>
            <path id="Trazado_722329" data-name="Trazado 722329" d="M369.407,190.081l-20.785-12V133.51l20.785,12Z" transform="translate(-93.795 -35.92)" fill="#e0e0e0"/>
            <path id="Trazado_722330" data-name="Trazado 722330" d="M377.057,143.618l29.691-17.142v44.57l-29.692,17.143Z" transform="translate(-101.445 -34.028)" fill="#ebebeb"/>
            <path id="Trazado_722331" data-name="Trazado 722331" d="M399.1,122.059,369.407,139.2l-20.785-12,29.691-17.142Z" transform="translate(-93.795 -29.611)" fill="#f5f5f5"/>
            <path id="Trazado_722332" data-name="Trazado 722332" d="M381.12,147.225l23.753-13.714.546.316v16.509l-23.753,13.713-.546-.316Z" transform="translate(-102.538 -35.92)" fill="#e0e0e0"/>
            <path id="Trazado_722333" data-name="Trazado 722333" d="M381.867,147.657l23.753-13.714v16.509l-23.753,13.713Z" transform="translate(-102.739 -36.037)" fill="#f5f5f5"/>
            <path id="Trazado_722334" data-name="Trazado 722334" d="M394.255,148.261l4.039-2.332c.525-.3.949-.164.949.308a1.9,1.9,0,0,1-.949,1.406l-4.039,2.332c-.525.3-.95.164-.95-.308a1.9,1.9,0,0,1,.95-1.406" transform="translate(-105.817 -39.218)" fill="#e0e0e0"/>
            <path id="Trazado_722335" data-name="Trazado 722335" d="M380.373,175.8l23.753-13.714V178.6l.546.316-23.753,13.713-.546-.316Z" transform="translate(-102.337 -43.609)" fill="#e0e0e0"/>
            <path id="Trazado_722336" data-name="Trazado 722336" d="M381.12,176.235l23.753-13.714v16.509l-23.753,13.713Z" transform="translate(-102.538 -43.726)" fill="#f5f5f5"/>
            <path id="Trazado_722337" data-name="Trazado 722337" d="M393.507,176.838l4.039-2.332c.524-.3.949-.164.949.309a1.9,1.9,0,0,1-.949,1.406l-4.04,2.332c-.525.3-.949.164-.949-.308a1.9,1.9,0,0,1,.95-1.406" transform="translate(-105.616 -46.907)" fill="#e0e0e0"/>
          </g>
        </g>
        <g id="Grupo_968895" data-name="Grupo 968895">
          <g id="Grupo_968894" data-name="Grupo 968894" clip-path="url(#clip-path)">
            <path id="Trazado_722338" data-name="Trazado 722338" d="M100.742,261.142s.086-11.593-7.223-20.285c-6.475-7.7-9.916-12.582-7.872-14.83s6.419-2.792,12.335,3.429,6.373,23.478,5.557,27.383Z" transform="translate(-22.885 -60.393)" fill="#27debf"/>
            <g id="Grupo_968890" data-name="Grupo 968890" transform="translate(62.174 164.077)" opacity="0.2">
              <g id="Grupo_968889" data-name="Grupo 968889">
                <g id="Grupo_968888" data-name="Grupo 968888" clip-path="url(#clip-path-5)">
                  <path id="Trazado_722339" data-name="Trazado 722339" d="M100.742,261.142s.086-11.593-7.223-20.285c-6.475-7.7-9.916-12.582-7.872-14.83s6.419-2.792,12.335,3.429,6.373,23.478,5.557,27.383Z" transform="translate(-85.059 -224.469)"/>
                </g>
              </g>
            </g>
            <path id="Trazado_722340" data-name="Trazado 722340" d="M103.339,249.342a.365.365,0,0,1-.357-.289c-2.558-11.966-9.127-18.582-12.814-21.46a.366.366,0,0,1,.45-.577c3.767,2.941,10.473,9.692,13.079,21.884a.365.365,0,0,1-.281.434.39.39,0,0,1-.077.008" transform="translate(-24.222 -61.057)" fill="#fff"/>
            <path id="Trazado_722341" data-name="Trazado 722341" d="M96.972,270.662,94,272.377a5.379,5.379,0,0,0-4.009-3.429c-3.249-.762-6.63-.61-8.905-3.429s.495-5.887,0-7.965-.825-2.675-4.9-4.75-5.687-5.519-2.619-7.856,8.053-.62,11.054,1.428c2.678,1.83,5.221,2.311,8.206,2.678s7.858,2.037,7.113,8.979a54.744,54.744,0,0,1-2.969,12.628" transform="translate(-19.363 -65.6)" fill="#27debf"/>
            <path id="Trazado_722342" data-name="Trazado 722342" d="M90.392,267.441a.365.365,0,0,1-.112-.713c.268-.086,6.6-2.083,9.266.063a.366.366,0,0,1-.458.57c-2.369-1.9-8.524.043-8.585.063a.377.377,0,0,1-.112.018" transform="translate(-24.221 -71.512)" fill="#fff"/>
            <path id="Trazado_722343" data-name="Trazado 722343" d="M98.919,271.008a.366.366,0,0,1-.363-.327c-1.628-15.393-20.171-22.7-20.358-22.768a.365.365,0,0,1,.262-.682c.191.073,19.147,7.533,20.823,23.373a.365.365,0,0,1-.325.4l-.039,0" transform="translate(-20.976 -66.51)" fill="#fff"/>
            <path id="Trazado_722344" data-name="Trazado 722344" d="M348.61,250.8c.084-.251,3.219-16.4,0-27.842-2.952-10.5-6.739-14.368-12.175-15.222s-7.8,3.061-4.909,8.365,9.834,12.352,11.542,24.206c.7,4.879,1.286,9.12,1.286,9.12Z" transform="translate(-88.862 -55.858)" fill="#27debf"/>
            <g id="Grupo_968893" data-name="Grupo 968893" transform="translate(241.423 151.758)" opacity="0.2">
              <g id="Grupo_968892" data-name="Grupo 968892">
                <g id="Grupo_968891" data-name="Grupo 968891" clip-path="url(#clip-path-6)">
                  <path id="Trazado_722345" data-name="Trazado 722345" d="M348.61,250.8c.084-.251,3.219-16.4,0-27.842-2.952-10.5-6.739-14.368-12.175-15.222s-7.8,3.061-4.909,8.365,9.834,12.352,11.542,24.206c.7,4.879,1.286,9.12,1.286,9.12Z" transform="translate(-330.285 -207.616)"/>
                </g>
              </g>
            </g>
            <path id="Trazado_722346" data-name="Trazado 722346" d="M348.547,242.419h-.02a.365.365,0,0,1-.344-.385c.748-13.067-3.539-24.737-11.189-30.455a.366.366,0,0,1,.439-.585c7.844,5.862,12.243,17.772,11.48,31.082a.365.365,0,0,1-.365.345" transform="translate(-90.627 -56.747)" fill="#fff"/>
            <path id="Trazado_722347" data-name="Trazado 722347" d="M362.6,261.767c-.42-3,1.308-7.508,5.407-8.571s5.93-3.423,4.449-6-1.131-4.932,2.591-6,6.981-2.939,4.835-6.856c-1.554-2.841-1.9-4.682,1.917-10.286,3.164-4.647.577-7.373-3.386-6.857s-6.408,5.228-8.882,6.023-3.052-3.426-6.32-1.54-3.066,6.72-3.169,10.088-.323,4.133-3.278,3.719-5.837.075-5.781,7.217c.048,6.129,3.32,13.715,3.32,13.715Z" transform="translate(-94.429 -58.419)" fill="#27debf"/>
            <path id="Trazado_722348" data-name="Trazado 722348" d="M359.646,258.111l-.042,0a.366.366,0,0,1-.322-.4c2.058-18.416,17.863-33.946,21.983-37.1a.366.366,0,0,1,.444.581c-4.068,3.11-19.672,18.438-21.7,36.6a.365.365,0,0,1-.363.325" transform="translate(-96.663 -59.333)" fill="#fff"/>
            <path id="Trazado_722349" data-name="Trazado 722349" d="M369.505,244.242a.366.366,0,0,1-.128-.708c5.9-2.194,12.576-1.16,12.857-1.115a.366.366,0,0,1,.3.419.371.371,0,0,1-.418.3c-.067-.012-6.775-1.048-12.486,1.078a.375.375,0,0,1-.128.023" transform="translate(-99.315 -65.146)" fill="#fff"/>
            <path id="Trazado_722350" data-name="Trazado 722350" d="M360.585,256.274a.364.364,0,0,1-.274-.124,21.5,21.5,0,0,1-4.816-9.991.365.365,0,0,1,.722-.11,21.159,21.159,0,0,0,4.642,9.618.365.365,0,0,1-.274.607" transform="translate(-95.643 -66.115)" fill="#fff"/>
          </g>
        </g>
        <path id="Trazado_722351" data-name="Trazado 722351" d="M106.174,104.934v113.14l115.8-66.855V48.364L135.866,98.077,132.9,89.506Z" transform="translate(-28.566 -13.012)" fill="#27debf"/>
        <g id="Grupo_968900" data-name="Grupo 968900">
          <g id="Grupo_968899" data-name="Grupo 968899" clip-path="url(#clip-path)">
            <g id="Grupo_968898" data-name="Grupo 968898" transform="translate(77.608 35.352)" opacity="0.7">
              <g id="Grupo_968897" data-name="Grupo 968897">
                <g id="Grupo_968896" data-name="Grupo 968896" clip-path="url(#clip-path-8)">
                  <path id="Trazado_722352" data-name="Trazado 722352" d="M106.174,104.934v113.14l115.8-66.855V48.364L135.866,98.077,132.9,89.506Z" transform="translate(-106.174 -48.364)"/>
                </g>
              </g>
            </g>
          </g>
        </g>
        <path id="Trazado_722353" data-name="Trazado 722353" d="M106.174,218.074l5.938-102.855,115.8-66.856-5.937,102.856Z" transform="translate(-28.566 -13.012)" fill="#e0e0e0"/>
        <path id="Trazado_722354" data-name="Trazado 722354" d="M106.174,218.7l8.907-101.141,115.8-66.856-8.906,101.141Z" transform="translate(-28.566 -13.643)" fill="#27debf"/>
        <g id="Grupo_968905" data-name="Grupo 968905">
          <g id="Grupo_968904" data-name="Grupo 968904" clip-path="url(#clip-path)">
            <g id="Grupo_968903" data-name="Grupo 968903" transform="translate(77.608 37.065)" opacity="0.7">
              <g id="Grupo_968902" data-name="Grupo 968902">
                <g id="Grupo_968901" data-name="Grupo 968901" clip-path="url(#clip-path-10)">
                  <path id="Trazado_722355" data-name="Trazado 722355" d="M106.174,218.7l8.907-101.141,115.8-66.856-8.906,101.141Z" transform="translate(-106.174 -50.708)"/>
                </g>
              </g>
            </g>
          </g>
        </g>
        <path id="Trazado_722356" data-name="Trazado 722356" d="M130.547,119V232.146l115.8-66.855V62.435l-86.105,49.714-2.969-8.572Z" transform="translate(-35.123 -16.798)" fill="#27debf"/>
        <g id="Grupo_968910" data-name="Grupo 968910">
          <g id="Grupo_968909" data-name="Grupo 968909" clip-path="url(#clip-path)">
            <g id="Grupo_968908" data-name="Grupo 968908" transform="translate(95.424 45.637)" opacity="0.5">
              <g id="Grupo_968907" data-name="Grupo 968907">
                <g id="Grupo_968906" data-name="Grupo 968906" clip-path="url(#clip-path-8)">
                  <path id="Trazado_722357" data-name="Trazado 722357" d="M130.547,119V232.146l115.8-66.855V62.435l-86.105,49.714-2.969-8.572Z" transform="translate(-130.547 -62.435)"/>
                </g>
              </g>
            </g>
          </g>
        </g>
        <path id="Trazado_722358" data-name="Trazado 722358" d="M130.547,232.145l5.938-102.855,115.8-66.856L246.345,165.29Z" transform="translate(-35.123 -16.798)" fill="#e0e0e0"/>
        <path id="Trazado_722359" data-name="Trazado 722359" d="M130.547,232.776l8.907-101.141,115.8-66.855-8.906,101.141Z" transform="translate(-35.123 -17.429)" fill="#27debf"/>
        <g id="Grupo_968915" data-name="Grupo 968915">
          <g id="Grupo_968914" data-name="Grupo 968914" clip-path="url(#clip-path)">
            <g id="Grupo_968913" data-name="Grupo 968913" transform="translate(95.424 47.351)" opacity="0.5">
              <g id="Grupo_968912" data-name="Grupo 968912">
                <g id="Grupo_968911" data-name="Grupo 968911" clip-path="url(#clip-path-14)">
                  <path id="Trazado_722360" data-name="Trazado 722360" d="M130.547,232.776l8.907-101.141,115.8-66.855-8.906,101.141Z" transform="translate(-130.547 -64.78)"/>
                </g>
              </g>
            </g>
          </g>
        </g>
        <g id="Grupo_968941" data-name="Grupo 968941">
          <g id="Grupo_968940" data-name="Grupo 968940" clip-path="url(#clip-path)">
            <path id="Trazado_722361" data-name="Trazado 722361" d="M246.606,323.329c-20.785-12-40.067-25.046-48.87-40.355l26.722-15.428Z" transform="translate(-53.2 -71.982)" fill="#e0e0e0"/>
            <path id="Trazado_722362" data-name="Trazado 722362" d="M158.979,135.421V248.562l115.8-66.856V78.851l-86.105,49.713-2.97-8.571Z" transform="translate(-42.773 -21.215)" fill="#27debf"/>
            <g id="Grupo_968918" data-name="Grupo 968918" transform="translate(116.206 57.637)" opacity="0.2">
              <g id="Grupo_968917" data-name="Grupo 968917">
                <g id="Grupo_968916" data-name="Grupo 968916" clip-path="url(#clip-path-16)">
                  <path id="Trazado_722363" data-name="Trazado 722363" d="M158.979,135.421V248.562l115.8-66.856V78.851l-86.105,49.713-2.97-8.571Z" transform="translate(-158.979 -78.851)"/>
                </g>
              </g>
            </g>
            <path id="Trazado_722364" data-name="Trazado 722364" d="M204.5,147.794c-.292,0-.336-.337-.336-.538v-96.5a2.435,2.435,0,0,1,1.084-1.876L288.818.625A.8.8,0,0,1,289.2.5c.292,0,.336.337.336.538v96.5a2.431,2.431,0,0,1-1.084,1.876L204.879,147.67a.807.807,0,0,1-.382.124" transform="translate(-54.928 -0.135)" fill="#fff"/>
            <path id="Trazado_722365" data-name="Trazado 722365" d="M289.018.74a.674.674,0,0,1,.018.164v96.5a2.092,2.092,0,0,1-.9,1.56l-83.574,48.251a.677.677,0,0,1-.151.067.646.646,0,0,1-.018-.165v-96.5a2.088,2.088,0,0,1,.9-1.56L288.867.806a.588.588,0,0,1,.151-.067m.048-.74a1.153,1.153,0,0,0-.565.173L204.927,48.425a2.8,2.8,0,0,0-1.266,2.193v96.5c0,.572.285.9.7.9a1.149,1.149,0,0,0,.565-.173L288.5,99.6a2.8,2.8,0,0,0,1.266-2.193V.9c0-.573-.286-.9-.7-.9" transform="translate(-54.794 0)" fill="#27debf"/>
            <g id="Grupo_968921" data-name="Grupo 968921" transform="translate(148.867)" opacity="0.7">
              <g id="Grupo_968920" data-name="Grupo 968920">
                <g id="Grupo_968919" data-name="Grupo 968919" clip-path="url(#clip-path-17)">
                  <path id="Trazado_722366" data-name="Trazado 722366" d="M289.018.74a.674.674,0,0,1,.018.164v96.5a2.092,2.092,0,0,1-.9,1.56l-83.574,48.251a.677.677,0,0,1-.151.067.646.646,0,0,1-.018-.165v-96.5a2.088,2.088,0,0,1,.9-1.56L288.867.806a.588.588,0,0,1,.151-.067m.048-.74a1.153,1.153,0,0,0-.565.173L204.927,48.425a2.8,2.8,0,0,0-1.266,2.193v96.5c0,.572.285.9.7.9a1.149,1.149,0,0,0,.565-.173L288.5,99.6a2.8,2.8,0,0,0,1.266-2.193V.9c0-.573-.286-.9-.7-.9" transform="translate(-203.661 0)" fill="#fff"/>
                </g>
              </g>
            </g>
            <path id="Trazado_722367" data-name="Trazado 722367" d="M215.848,67.974l29.691-17.142V85.116l-29.691,17.142Z" transform="translate(-58.073 -13.676)" fill="#27debf"/>
            <g id="Grupo_968924" data-name="Grupo 968924" transform="translate(157.775 37.156)" opacity="0.8">
              <g id="Grupo_968923" data-name="Grupo 968923">
                <g id="Grupo_968922" data-name="Grupo 968922" clip-path="url(#clip-path-18)">
                  <path id="Trazado_722368" data-name="Trazado 722368" d="M215.848,67.974l29.691-17.142V85.116l-29.691,17.142Z" transform="translate(-215.848 -50.832)" fill="#fff"/>
                </g>
              </g>
            </g>
            <path id="Trazado_722369" data-name="Trazado 722369" d="M242.725,62.558V72.843l-.931.52V70.212c0-1.74-1.417-2.332-3.165-1.324l-12.594,7.271a6.552,6.552,0,0,0-3.165,4.979v3.151l-.93.555V74.558Z" transform="translate(-59.712 -16.831)" fill="#fff"/>
            <path id="Trazado_722370" data-name="Trazado 722370" d="M238.091,91.589c-1.523.879-2.758-.044-2.758-2.063v-16.5L231.519,75.1V91.728a6.58,6.58,0,0,1-2.758,5.248L226,98.568V99.66l14.846-8.571V90l-2.758,1.593" transform="translate(-60.805 -19.648)" fill="#fff"/>
            <path id="Trazado_722371" data-name="Trazado 722371" d="M264.592,41.2c0,.947.851,1.224,1.9.618l28.862-16.664a3.8,3.8,0,0,0,1.9-2.811c0-.947-.85-1.224-1.9-.618L266.492,38.389a3.8,3.8,0,0,0-1.9,2.811" transform="translate(-71.187 -5.759)" fill="#455a64"/>
            <path id="Trazado_722372" data-name="Trazado 722372" d="M264.592,55.272c0,.947.851,1.224,1.9.618l28.862-16.664a3.8,3.8,0,0,0,1.9-2.811c0-.947-.85-1.224-1.9-.618L266.492,52.461a3.8,3.8,0,0,0-1.9,2.811" transform="translate(-71.187 -9.545)" fill="#455a64"/>
            <path id="Trazado_722373" data-name="Trazado 722373" d="M264.592,69.343c0,.947.851,1.224,1.9.618L295.354,53.3a3.8,3.8,0,0,0,1.9-2.811c0-.947-.85-1.224-1.9-.618L266.492,66.532a3.8,3.8,0,0,0-1.9,2.811" transform="translate(-71.187 -13.331)" fill="#455a64"/>
            <path id="Trazado_722374" data-name="Trazado 722374" d="M264.592,83.414c0,.947.851,1.224,1.9.618l28.862-16.664a3.8,3.8,0,0,0,1.9-2.811c0-.947-.85-1.224-1.9-.618L266.492,80.6a3.8,3.8,0,0,0-1.9,2.811" transform="translate(-71.187 -17.116)" fill="#455a64"/>
            <path id="Trazado_722375" data-name="Trazado 722375" d="M215.848,118.06c0,.947.85,1.224,1.9.618L282.24,81.44a3.8,3.8,0,0,0,1.9-2.811c0-.947-.85-1.224-1.9-.618l-64.493,37.238a3.8,3.8,0,0,0-1.9,2.811" transform="translate(-58.073 -20.902)" fill="#455a64"/>
            <path id="Trazado_722376" data-name="Trazado 722376" d="M215.848,132.131c0,.947.85,1.224,1.9.618L282.24,95.511a3.8,3.8,0,0,0,1.9-2.811c0-.947-.85-1.224-1.9-.618L217.747,129.32a3.8,3.8,0,0,0-1.9,2.811" transform="translate(-58.073 -24.688)" fill="#455a64"/>
            <path id="Trazado_722377" data-name="Trazado 722377" d="M215.848,146.2c0,.947.85,1.224,1.9.618l64.493-37.238a3.8,3.8,0,0,0,1.9-2.811c0-.947-.85-1.224-1.9-.618l-64.493,37.238a3.8,3.8,0,0,0-1.9,2.811" transform="translate(-58.073 -28.474)" fill="#455a64"/>
            <path id="Trazado_722378" data-name="Trazado 722378" d="M158.98,252.979l20.784-90.855,115.8-66.855-20.784,90.855Z" transform="translate(-42.773 -25.631)" fill="#27debf"/>
            <path id="Trazado_722379" data-name="Trazado 722379" d="M197.735,190.788v67.384l26.723-15.429V175.361Z" transform="translate(-53.2 -47.18)" fill="#27debf"/>
            <g id="Grupo_968927" data-name="Grupo 968927" transform="translate(144.535 128.18)" opacity="0.2">
              <g id="Grupo_968926" data-name="Grupo 968926">
                <g id="Grupo_968925" data-name="Grupo 968925" clip-path="url(#clip-path-19)">
                  <path id="Trazado_722380" data-name="Trazado 722380" d="M197.735,190.788v67.384l26.723-15.429V175.361Z" transform="translate(-197.735 -175.36)"/>
                </g>
              </g>
            </g>
            <path id="Trazado_722381" data-name="Trazado 722381" d="M247.266,286.24c-2.27-1.691-24.184-18.443-35.323-42.367-11.858-25.466-11.847-55.17-11.843-66.35v-.348l79.437-45.862c0,11.282.012,41.028,11.912,66.584,10.881,23.368,31.956,39.928,35.3,42.456Z" transform="translate(-53.836 -35.329)" fill="#fff"/>
            <path id="Trazado_722382" data-name="Trazado 722382" d="M279.036,131.712c0,11.752.229,40.941,11.946,66.106C301.5,220.4,321.5,236.643,325.953,240.077l-78.8,45.493c-3.08-2.322-24.171-18.788-35.018-42.085-11.824-25.393-11.814-55.036-11.809-66.2v-.137Zm.731-1.266L199.6,176.73c0,10.516-.222,41.079,11.877,67.064,11.876,25.507,35.63,42.649,35.63,42.649l80.168-46.284s-23.754-17.143-35.63-42.65c-12.1-25.985-11.877-56.547-11.877-67.063" transform="translate(-53.701 -35.096)" fill="#27debf"/>
            <g id="Grupo_968930" data-name="Grupo 968930" transform="translate(145.899 95.35)" opacity="0.7">
              <g id="Grupo_968929" data-name="Grupo 968929">
                <g id="Grupo_968928" data-name="Grupo 968928" clip-path="url(#clip-path-20)">
                  <path id="Trazado_722383" data-name="Trazado 722383" d="M279.036,131.712c0,11.752.229,40.941,11.946,66.106C301.5,220.4,321.5,236.643,325.953,240.077l-78.8,45.493c-3.08-2.322-24.171-18.788-35.018-42.085-11.824-25.393-11.814-55.036-11.809-66.2v-.137Zm.731-1.266L199.6,176.73c0,10.516-.222,41.079,11.877,67.064,11.876,25.507,35.63,42.649,35.63,42.649l80.168-46.284s-23.754-17.143-35.63-42.65c-12.1-25.985-11.877-56.547-11.877-67.063" transform="translate(-199.6 -130.446)" fill="#fff"/>
                </g>
              </g>
            </g>
            <path id="Trazado_722384" data-name="Trazado 722384" d="M286.863,151.558,261.509,166.2a3.605,3.605,0,0,0-1.841,2.773c.036.927.921,1.186,1.97.581l25.354-14.638a3.591,3.591,0,0,0,1.829-2.773c-.036-.927-.909-1.186-1.958-.581" transform="translate(-69.862 -40.688)" fill="#455a64"/>
            <path id="Trazado_722385" data-name="Trazado 722385" d="M287.627,165.2l-25.353,14.638a3.37,3.37,0,0,0-1.766,2.73c.078.9,1,1.141,2.047.536l25.355-14.639a3.348,3.348,0,0,0,1.75-2.728c-.077-.9-.984-1.143-2.033-.537" transform="translate(-70.087 -44.356)" fill="#455a64"/>
            <path id="Trazado_722386" data-name="Trazado 722386" d="M289.041,178.468l-25.354,14.638a3.126,3.126,0,0,0-1.681,2.681c.125.875,1.083,1.093,2.132.487l25.354-14.638a3.108,3.108,0,0,0,1.667-2.68c-.125-.875-1.069-1.094-2.118-.488" transform="translate(-70.488 -47.924)" fill="#455a64"/>
            <path id="Trazado_722387" data-name="Trazado 722387" d="M291.147,191.336l-25.354,14.637a2.9,2.9,0,0,0-1.595,2.633c.172.848,1.17,1.042,2.219.436L291.771,194.4a2.872,2.872,0,0,0,1.58-2.628c-.173-.848-1.154-1.045-2.2-.44" transform="translate(-71.074 -51.384)" fill="#455a64"/>
            <path id="Trazado_722388" data-name="Trazado 722388" d="M294,203.774l-25.354,14.638a2.657,2.657,0,0,0-1.5,2.578c.224.817,1.265.987,2.314.381l25.353-14.638a2.634,2.634,0,0,0,1.485-2.574c-.225-.817-1.248-.99-2.3-.385" transform="translate(-71.861 -54.727)" fill="#455a64"/>
            <path id="Trazado_722389" data-name="Trazado 722389" d="M284.223,215.758,222.43,251.434c-1.049.606-1.68,1.735-1.4,2.518s1.373.924,2.421.318L285.248,218.6a2.39,2.39,0,0,0,1.377-2.513c-.284-.783-1.353-.931-2.4-.325" transform="translate(-59.45 -57.948)" fill="#455a64"/>
            <path id="Trazado_722390" data-name="Trazado 722390" d="M288.76,227.2,226.967,262.88c-1.049.605-1.624,1.7-1.277,2.45s1.483.859,2.532.254l61.793-35.677c1.049-.605,1.612-1.7,1.266-2.445s-1.472-.864-2.521-.259" transform="translate(-60.694 -61.023)" fill="#455a64"/>
            <path id="Trazado_722391" data-name="Trazado 722391" d="M294.3,238.11l-61.793,35.676c-1.049.605-1.572,1.675-1.156,2.381s1.613.784,2.662.178l61.793-35.677c1.049-.605,1.552-1.663,1.136-2.37s-1.594-.794-2.642-.188" transform="translate(-62.206 -63.954)" fill="#455a64"/>
            <path id="Trazado_722392" data-name="Trazado 722392" d="M300.836,248.417l-61.793,35.676c-1.049.605-1.519,1.646-1.041,2.317s1.724.716,2.773.111l61.793-35.677c1.049-.605,1.5-1.634,1.025-2.3s-1.708-.729-2.757-.124" transform="translate(-63.983 -66.722)" fill="#455a64"/>
            <path id="Trazado_722393" data-name="Trazado 722393" d="M308.235,258.221,246.441,293.9c-1.049.605-1.474,1.62-.939,2.258a2.4,2.4,0,0,0,2.872.054l61.794-35.676c1.048-.605,1.46-1.608.925-2.246a2.378,2.378,0,0,0-2.859-.066" transform="translate(-65.989 -69.356)" fill="#455a64"/>
            <path id="Trazado_722394" data-name="Trazado 722394" d="M316.425,267.563,254.632,303.24c-1.05.605-1.432,1.6-.846,2.2a2.611,2.611,0,0,0,2.963,0l61.793-35.676c1.049-.607,1.419-1.585.835-2.194a2.59,2.59,0,0,0-2.952-.013" transform="translate(-68.206 -71.866)" fill="#455a64"/>
            <path id="Trazado_722395" data-name="Trazado 722395" d="M325.379,276.481l-61.793,35.676c-1.049.605-1.39,1.573-.755,2.153a2.833,2.833,0,0,0,3.054-.053l61.794-35.676c1.048-.605,1.378-1.561.743-2.141a2.81,2.81,0,0,0-3.042.04" transform="translate(-70.627 -74.261)" fill="#455a64"/>
            <path id="Trazado_722396" data-name="Trazado 722396" d="M238.889,178.96l-29.152,16.831c.325,10.558,1.528,25.8,5.947,41.137L244.836,220.1c-4.419-15.34-5.623-30.578-5.947-41.137" transform="translate(-56.429 -48.148)" fill="#27debf"/>
            <g id="Grupo_968933" data-name="Grupo 968933" transform="translate(153.308 130.812)" opacity="0.8">
              <g id="Grupo_968932" data-name="Grupo 968932">
                <g id="Grupo_968931" data-name="Grupo 968931" clip-path="url(#clip-path-21)">
                  <path id="Trazado_722397" data-name="Trazado 722397" d="M238.889,178.96l-29.152,16.831c.325,10.558,1.528,25.8,5.947,41.137L244.836,220.1c-4.419-15.34-5.623-30.578-5.947-41.137" transform="translate(-209.737 -178.96)" fill="#fff"/>
                </g>
              </g>
            </g>
            <path id="Trazado_722398" data-name="Trazado 722398" d="M221.627,197.423a4.832,4.832,0,0,0-1.425-3.7l-10.465,6.041c.086,2.79.236,5.913.488,9.272a6.838,6.838,0,0,0,3.96-.7c4.11-1.917,7.443-6.8,7.443-10.914" transform="translate(-56.429 -52.12)" fill="#27debf"/>
            <g id="Grupo_968936" data-name="Grupo 968936" transform="translate(153.308 141.601)" opacity="0.6">
              <g id="Grupo_968935" data-name="Grupo 968935">
                <g id="Grupo_968934" data-name="Grupo 968934" clip-path="url(#clip-path-22)">
                  <path id="Trazado_722399" data-name="Trazado 722399" d="M221.627,197.423a4.832,4.832,0,0,0-1.425-3.7l-10.465,6.041c.086,2.79.236,5.913.488,9.272a6.838,6.838,0,0,0,3.96-.7c4.11-1.917,7.443-6.8,7.443-10.914" transform="translate(-209.737 -193.721)" fill="#fff"/>
                </g>
              </g>
            </g>
            <path id="Trazado_722400" data-name="Trazado 722400" d="M246.481,216.394h0c-1.944-2.452-5.9-10.016-7.589-13.311a.732.732,0,0,0-1.35.124,80.186,80.186,0,0,0-3.164,19.189,27.84,27.84,0,0,1-6.188-6.888.645.645,0,0,0-1.161.2,71.683,71.683,0,0,0-1.589,24.347l23.513-13.575c-.974-3.384-1.786-6.76-2.472-10.086" transform="translate(-60.546 -54.532)" fill="#27debf"/>
            <g id="Grupo_968939" data-name="Grupo 968939" transform="translate(164.493 148.154)" opacity="0.6">
              <g id="Grupo_968938" data-name="Grupo 968938">
                <g id="Grupo_968937" data-name="Grupo 968937" clip-path="url(#clip-path-23)">
                  <path id="Trazado_722401" data-name="Trazado 722401" d="M246.481,216.394h0c-1.944-2.452-5.9-10.016-7.589-13.311a.732.732,0,0,0-1.35.124,80.186,80.186,0,0,0-3.164,19.189,27.84,27.84,0,0,1-6.188-6.888.645.645,0,0,0-1.161.2,71.683,71.683,0,0,0-1.589,24.347l23.513-13.575c-.974-3.384-1.786-6.76-2.472-10.086" transform="translate(-225.039 -202.686)" fill="#fff"/>
                </g>
              </g>
            </g>
          </g>
        </g>
      </g>
    </g>
  </g>
</svg>
