<svg xmlns="http://www.w3.org/2000/svg" width="100" height="100" viewBox="0 0 100 100">
  <g id="Grupo_968952" data-name="Grupo 968952" transform="translate(-278 -14787)">
    <circle id="Elipse_4712" data-name="Elipse 4712" cx="50" cy="50" r="50" transform="translate(278 14787)" fill="#b3eeef"/>
    <g id="medalla_1_" data-name="medalla(1)" transform="translate(304.5 14806)">
      <path id="Trazado_722402" data-name="Trazado 722402" d="M40.5,58.074A18.074,18.074,0,1,0,58.574,40,18.095,18.095,0,0,0,40.5,58.074ZM58.574,42.41A15.664,15.664,0,1,1,42.91,58.074,15.682,15.682,0,0,1,58.574,42.41Zm0,0" transform="translate(-35.18 -35.18)" fill="#9f0925"/>
      <path id="Trazado_722403" data-name="Trazado 722403" d="M95.268,102.416l4.671,4.6-1.075,6.468a1.205,1.205,0,0,0,1.744,1.267l5.819-3.022,5.819,3.022a1.205,1.205,0,0,0,1.744-1.267l-1.075-6.468,4.671-4.6a1.2,1.2,0,0,0-.666-2.05l-6.482-.976L107.5,93.526a1.2,1.2,0,0,0-2.155,0l-2.933,5.865-6.482.976a1.2,1.2,0,0,0-.666,2.05Zm8.126-.736a1.205,1.205,0,0,0,.9-.652l2.135-4.27,2.135,4.27a1.205,1.205,0,0,0,.9.652l4.718.71-3.4,3.349a1.207,1.207,0,0,0-.343,1.056l.782,4.707-4.235-2.2a1.2,1.2,0,0,0-1.11,0l-4.235,2.2.782-4.707a1.2,1.2,0,0,0-.343-1.056l-3.4-3.349Zm0,0" transform="translate(-83.033 -81.67)" fill="#9f0925"/>
      <path id="Trazado_722404" data-name="Trazado 722404" d="M182.91,1.2A1.2,1.2,0,1,1,181.7,0,1.2,1.2,0,0,1,182.91,1.2Zm0,0" transform="translate(-158.311)" fill="#9f0925"/>
      <path id="Trazado_722405" data-name="Trazado 722405" d="M17.715,5.619a22.9,22.9,0,0,0-9.679,39.16L.777,57.572A1.205,1.205,0,0,0,2.07,59.347l8.244-1.712,2.9,8.165a1.2,1.2,0,0,0,2.183.193l8-14.064,8,14.064a1.2,1.2,0,0,0,1.047.609c.035,0,.071,0,.106,0a1.207,1.207,0,0,0,1.03-.8l2.9-8.165,8.244,1.712a1.205,1.205,0,0,0,1.293-1.774L38.751,44.779a22.9,22.9,0,0,0-9.678-39.16,1.205,1.205,0,0,0-.6,2.335,20.484,20.484,0,1,1-10.165,0,1.2,1.2,0,1,0-.6-2.335ZM14.6,62.512l-2.368-6.673a1.205,1.205,0,0,0-1.381-.777L4.187,56.446,9.933,46.321a22.943,22.943,0,0,0,11.441,4.286Zm21.332-7.45a1.205,1.205,0,0,0-1.381.777l-2.368,6.673L25.414,50.607a22.944,22.944,0,0,0,11.441-4.286L42.6,56.446Zm0,0" transform="translate(0 -4.908)" fill="#9f0925"/>
    </g>
  </g>
</svg>
