<svg xmlns="http://www.w3.org/2000/svg" width="100" height="100" viewBox="0 0 100 100">
  <g id="Grupo_969086" data-name="Grupo 969086" transform="translate(-931 -15117)">
    <circle id="Elipse_4873" data-name="Elipse 4873" cx="50" cy="50" r="50" transform="translate(931 15117)" fill="#b3eeef"/>
    <g id="Icon" transform="translate(949 15135)">
      <path id="Trazado_722406" data-name="Trazado 722406" d="M51,50H48V47a3,3,0,0,0-3-3V5a1,1,0,0,0-1.385-.923l-24,10a1,1,0,1,0,.77,1.846L43,6.5V44H21V18.881a1,1,0,1,0-2,0V44a3,3,0,0,0-3,3v3H13a1,1,0,0,0-1,1v8a1,1,0,0,0,1,1H32a1,1,0,0,0,0-2H14V52H50v6H36.168a1,1,0,0,0,0,2H51a1,1,0,0,0,1-1V51A1,1,0,0,0,51,50ZM18,50V47a1,1,0,0,1,1-1H45a1,1,0,0,1,1,1v3Z" fill="#9f0925"/>
      <path id="Trazado_722407" data-name="Trazado 722407" d="M32,16a2.126,2.126,0,0,0-2.041,1.518l-1.08,3.537a.138.138,0,0,1-.129.1H25.138a2.152,2.152,0,0,0-1.3,3.854l3.018,2.334a.158.158,0,0,1,.052.17l-1.13,3.7a2.147,2.147,0,0,0,.831,2.4,2.093,2.093,0,0,0,2.51-.067l2.8-2.167a.122.122,0,0,1,.155,0l2.8,2.167a2.1,2.1,0,0,0,2.51.067,2.147,2.147,0,0,0,.831-2.4l-1.129-3.7a.158.158,0,0,1,.051-.172l3.018-2.334a2.152,2.152,0,0,0-1.3-3.854H35.25a.138.138,0,0,1-.129-.1l-1.08-3.538h0A2.127,2.127,0,0,0,32,16Zm3.25,7.157h3.612c.121-.04.184.249.078.272l-3.018,2.334a2.168,2.168,0,0,0-.741,2.336l1.13,3.7c.071.081-.125.277-.207.168L33.3,29.8a2.124,2.124,0,0,0-2.6,0l-2.8,2.167c-.085.109-.277-.087-.207-.169l1.131-3.7a2.168,2.168,0,0,0-.742-2.334L25.06,23.429c-.106-.023-.043-.312.078-.272H28.75a2.125,2.125,0,0,0,2.041-1.517l1.08-3.537c0-.128.259-.129.258,0l1.08,3.539a2.126,2.126,0,0,0,2.041,1.515Z" fill="#9f0925"/>
    </g>
  </g>
</svg>
