<svg xmlns="http://www.w3.org/2000/svg" width="100" height="100" viewBox="0 0 100 100">
  <g id="Grupo_968954" data-name="Grupo 968954" transform="translate(-1223 -14787)">
    <circle id="Elipse_4874" data-name="Elipse 4874" cx="50" cy="50" r="50" transform="translate(1223 14787)" fill="#b3eeef"/>
    <g id="ganador" transform="translate(1233.44 14809.34)">
      <g id="Grupo_968949" data-name="Grupo 968949" transform="translate(13.341 0)">
        <g id="Grupo_968948" data-name="Grupo 968948" transform="translate(0 0)">
          <path id="Trazado_722408" data-name="Trazado 722408" d="M65.113,10.989a20.912,20.912,0,0,0-4.587-6.539,16.137,16.137,0,0,0-6.1-4.111c-1.979-.634-3.678-.374-4.784.732L49.6,1.11,43.222,8.4a.812.812,0,1,0,1.221,1.069L50.807,2.2c.885-.862,2.335-.569,3.123-.316a14.051,14.051,0,0,1,5.117,3.389A11.863,11.863,0,0,0,57.03,4.191c-1.735-.707-3.155-.65-4.013.156l-.032.029-.02.018-.009.01-.01.01-12,12.846c-.694.743-2.178,2.264-4.122,4.224-.609-.762-1.072-1.389-1.366-1.8.453-.486.887-.967,1.3-1.434l5.168-5.9A.812.812,0,1,0,40.7,11.278l-5.168,5.9c-.5.576-1.049,1.174-1.62,1.778-.765.422-2.734,1.6-5.6,5.286L14.036,36.732l-.022.02a2.159,2.159,0,0,0-.2,2.92l1.758,2.168-.883.827-.019.018c-.852.852-.924,2.3-.2,4.065A15.167,15.167,0,0,0,17.8,51.5c2.133,2.133,4.907,3.824,6.958,3.823a2.522,2.522,0,0,0,1.854-.7l.018-.019,5-5.344a.812.812,0,1,0-1.185-1.109L25.453,53.48c-.7.678-3.577-.2-6.509-3.131a13.532,13.532,0,0,1-2.972-4.211c-.436-1.069-.5-1.947-.16-2.3L26.758,33.59l-.519,1.261a1.011,1.011,0,0,0,1.153,1.373l3.671-.809-.809,3.671a1.012,1.012,0,0,0,1.373,1.153l2.307-.949,1.695,1.83a1,1,0,0,0,1.2.21l-3.8,4.061a.812.812,0,0,0,1.185,1.11l5.111-5.457c.521-.556,1.48-1.543,2.775-2.856a15.587,15.587,0,0,0,5.53-5.543c2.042-2.026,3.645-3.591,4.4-4.3l12.846-12,.009-.01.011-.01.018-.02.029-.032C65.994,15.174,66.055,13.3,65.113,10.989ZM37.462,24.176a4.84,4.84,0,1,1-3.424,1.416A4.828,4.828,0,0,1,37.462,24.176Zm-3.278-3.486c.345.48.886,1.206,1.6,2.086a6.451,6.451,0,0,0-4.421,4.1,21.724,21.724,0,0,1-1.477-2A18.743,18.743,0,0,1,34.184,20.689Zm-8.357,8.43a1.011,1.011,0,0,0-.47,1.73l.982.909-9.576,8.969L15.079,38.65a.53.53,0,0,1,.04-.708l13.6-11.891c.329.489.834,1.182,1.582,2.084Zm5.621,4.549-3.263.719.665-1.618a1.016,1.016,0,0,0-.248-1.127l-1.284-1.189,3.711-.818a6.457,6.457,0,0,0,.761,2.481Zm4.577,5.492-1.189-1.284a1.016,1.016,0,0,0-1.127-.248l-1.618.665,1-4.519a6.434,6.434,0,0,0,3.756,1.675Zm2.115.775-.844.9a1.012,1.012,0,0,0,.062-.185l1-4.56c.834.68,1.517,1.194,2,1.545C39.351,38.668,38.588,39.456,38.14,39.935Zm3.533-3.36c-.4-.279-1.086-.78-1.977-1.493a6.444,6.444,0,0,0,4.021-4.441c.919.754,1.7,1.36,2.193,1.738A14.848,14.848,0,0,1,41.673,36.575Zm9.253-9.416c-.73.682-2.151,2.068-4.031,3.929-.629-.48-1.731-1.34-2.979-2.394a6.451,6.451,0,0,0-5.889-6.115c1.932-1.949,3.41-3.464,4.108-4.212l10.273-11a7.381,7.381,0,0,0,.353,1.092,15.167,15.167,0,0,0,3.327,4.746,15.168,15.168,0,0,0,4.746,3.327,7.379,7.379,0,0,0,1.092.354Zm12.829-11.98-.01.009c-.349.338-1.228.278-2.3-.159a13.531,13.531,0,0,1-4.211-2.972,13.534,13.534,0,0,1-2.972-4.211c-.436-1.07-.5-1.949-.158-2.3l.009-.009a1.009,1.009,0,0,1,.719-.22,4.415,4.415,0,0,1,1.582.375,13.532,13.532,0,0,1,4.211,2.972C63.567,11.6,64.441,14.482,63.755,15.178Z" transform="translate(-13.341 0)" fill="#9f0925"/>
        </g>
      </g>
      <g id="Grupo_968951" data-name="Grupo 968951" transform="translate(33.724 25.278)">
        <g id="Grupo_968950" data-name="Grupo 968950" transform="translate(0)">
          <path id="Trazado_722409" data-name="Trazado 722409" d="M208.37,235.05a3.738,3.738,0,1,0,0,5.286A3.714,3.714,0,0,0,208.37,235.05Zm-1.148,4.139a2.115,2.115,0,1,1,0-2.991A2.1,2.1,0,0,1,207.222,239.189Z" transform="translate(-201.989 -233.955)" fill="#9f0925"/>
        </g>
      </g>
    </g>
  </g>
</svg>
