<svg xmlns="http://www.w3.org/2000/svg" width="100" height="100" viewBox="0 0 100 100">
  <g id="Grupo_969087" data-name="Grupo 969087" transform="translate(-248 -16082)">
    <circle id="Elipse_4712" data-name="Elipse 4712" cx="50" cy="50" r="50" transform="translate(248 16082)" fill="#b3eeef"/>
    <g id="laboratorio-medico" transform="translate(267 16076.2)">
      <path id="Trazado_722410" data-name="Trazado 722410" d="M60.063,81.113H53.875a14.136,14.136,0,0,0-2.4-23.156,2.991,2.991,0,0,1-1.594-2.684V44.327a2.942,2.942,0,0,0-.937-5.73H40.457a2.942,2.942,0,0,0-.937,5.73V55.273a2.969,2.969,0,0,1-1.594,2.684c-.152.082-.3.176-.457.258l-3.516-6.082a9.9,9.9,0,0,1-1.406-5.238V34.8a3.074,3.074,0,0,0-.938-6H19.539a3.074,3.074,0,0,0-.937,6V46.894A9.934,9.934,0,0,1,17.2,52.132L3.883,75.195a5.088,5.088,0,0,0,0,5.191,5.336,5.336,0,0,0,.5.727H1.938a.938.938,0,0,0,0,1.875H60.063a.938.938,0,0,0,0-1.875Zm-9.48,0h-3.82a5.336,5.336,0,0,0,.5-.727,5.088,5.088,0,0,0,0-5.191l-1.793-3.105a13.729,13.729,0,0,0,2,.152,14.749,14.749,0,0,0,5.684-1.277,14.149,14.149,0,0,1,3.773-1.055c0,.152.012.3.012.457a12.209,12.209,0,0,1-6.363,10.746ZM40.445,40.472H48.93a1.066,1.066,0,0,1,0,2.133H40.445a1.066,1.066,0,0,1,0-2.133ZM38.816,59.6a4.869,4.869,0,0,0,2.566-4.324V44.48h6.609V55.273A4.869,4.869,0,0,0,50.559,59.6a12.264,12.264,0,0,1,6.164,8.438,15.381,15.381,0,0,0-4.242,1.172,11.8,11.8,0,0,1-8.25.727l-5.836-10.1C38.547,59.749,38.688,59.667,38.816,59.6ZM19.539,30.675H31.621a1.2,1.2,0,1,1,0,2.391H19.539a1.2,1.2,0,1,1,0-2.391ZM18.824,53.07a11.907,11.907,0,0,0,1.652-6.176V34.952H30.684V46.894a11.907,11.907,0,0,0,1.652,6.176l4.125,7.137c-3.527.457-6.246,2.414-8.895,4.313-2.309,1.652-4.488,3.223-6.984,3.574a9.361,9.361,0,0,1-6.035-1.406l2.438-4.219a.935.935,0,0,0-1.617-.937l-2.414,4.16c-.328-.234-.656-.48-1-.738ZM8.383,81.113a3.322,3.322,0,0,1-2.871-4.98l5.508-9.539c.34.258.668.5,1,.727L9.684,71.351a.937.937,0,0,0,.34,1.277.974.974,0,0,0,.469.129.907.907,0,0,0,.809-.469l2.3-3.973A11.936,11.936,0,0,0,19.5,70.062c3.551,0,6.375-2.027,9.152-4.02,2.648-1.9,5.379-3.867,8.836-4.055l8.156,14.145a3.184,3.184,0,0,1,0,3.316,3.219,3.219,0,0,1-2.871,1.664Z" fill="#9f0925"/>
      <path id="Trazado_722411" data-name="Trazado 722411" d="M55.259,413.655a.937.937,0,0,0-1.277.34l-.727,1.254a.937.937,0,0,0,.34,1.277.974.974,0,0,0,.469.129.907.907,0,0,0,.809-.469l.727-1.254A.937.937,0,0,0,55.259,413.655Z" transform="translate(-46.021 -339.644)" fill="#9f0925"/>
      <path id="Trazado_722412" data-name="Trazado 722412" d="M406.615,303.393a8.849,8.849,0,0,1,2.355,1.863.918.918,0,0,0,.691.3.958.958,0,0,0,.633-.246.942.942,0,0,0,.07-1.324,10.835,10.835,0,0,0-2.848-2.25.941.941,0,0,0-.9,1.652Z" transform="translate(-357.65 -240.854)" fill="#9f0925"/>
      <path id="Trazado_722413" data-name="Trazado 722413" d="M440.519,338.085a8.651,8.651,0,0,1,.469,1.066.94.94,0,0,0,.879.621,1,1,0,0,0,.316-.059.938.938,0,0,0,.563-1.207,13.846,13.846,0,0,0-.562-1.289.938.938,0,1,0-1.664.867Z" transform="translate(-387.921 -271.831)" fill="#9f0925"/>
      <path id="Trazado_722414" data-name="Trazado 722414" d="M161.575,273.05a3.375,3.375,0,1,0-3.375-3.375A3.376,3.376,0,0,0,161.575,273.05Zm0-4.863a1.5,1.5,0,1,1-1.5,1.5A1.5,1.5,0,0,1,161.575,268.187Z" transform="translate(-138.778 -209.668)" fill="#9f0925"/>
      <path id="Trazado_722415" data-name="Trazado 722415" d="M195.4,205.124a2.824,2.824,0,1,0,2.824-2.824A2.826,2.826,0,0,0,195.4,205.124Zm3.762,0a.949.949,0,1,1-.949-.949A.953.953,0,0,1,199.162,205.124Z" transform="translate(-171.619 -153.168)" fill="#9f0925"/>
      <path id="Trazado_722416" data-name="Trazado 722416" d="M343.358,278.179a2.379,2.379,0,1,0-2.379,2.379A2.381,2.381,0,0,0,343.358,278.179Zm-2.871,0a.508.508,0,0,1,.5-.5.5.5,0,0,1,.5.5.5.5,0,0,1-1.008,0Z" transform="translate(-298.038 -218.055)" fill="#9f0925"/>
      <path id="Trazado_722417" data-name="Trazado 722417" d="M185.732,139.164a2.332,2.332,0,1,0-2.332-2.332A2.331,2.331,0,0,0,185.732,139.164Zm0-2.777a.458.458,0,0,1,.457.457.45.45,0,0,1-.457.457.458.458,0,0,1-.457-.457A.45.45,0,0,1,185.732,136.387Z" transform="translate(-161.025 -93.313)" fill="#9f0925"/>
      <path id="Trazado_722418" data-name="Trazado 722418" d="M359.379,184.958A2.379,2.379,0,1,0,357,182.579,2.381,2.381,0,0,0,359.379,184.958Zm0-2.871a.5.5,0,0,1,0,1.008.5.5,0,0,1-.5-.5A.515.515,0,0,1,359.379,182.087Z" transform="translate(-314.281 -133.658)" fill="#9f0925"/>
      <path id="Trazado_722419" data-name="Trazado 722419" d="M373.9,330.9a2.689,2.689,0,1,0,2.684-2.7A2.683,2.683,0,0,0,373.9,330.9Zm3.5,0a.813.813,0,0,1-.82.809.8.8,0,0,1-.809-.809.82.82,0,0,1,.809-.82A.83.83,0,0,1,377.4,330.9Z" transform="translate(-329.201 -264.314)" fill="#9f0925"/>
    </g>
  </g>
</svg>
