<svg xmlns="http://www.w3.org/2000/svg" width="100" height="100" viewBox="0 0 100 100">
  <g id="Grupo_80224" data-name="Grupo 80224" transform="translate(-750 -3678)">
    <circle id="Elipse_4733" data-name="Elipse 4733" cx="50" cy="50" r="50" transform="translate(750 3678)" fill="#b3eeef"/>
    <g id="proteccion" transform="translate(770 3695.785)">
      <path id="Trazado_722422" data-name="Trazado 722422" d="M202.046,138.063c0-.349.4-.5.811-.5s.811.15.811.5v5.842c0,2.085-1.323,2.859-3,2.859s-3-.774-3-2.859v-5.842c0-.349.4-.5.811-.5s.811.15.811.5v5.842a1.374,1.374,0,1,0,2.746,0v-5.842Z" transform="translate(-174.512 -119.488)" fill="#9f0925"/>
      <path id="Trazado_722423" data-name="Trazado 722423" d="M257.994,138.364a.726.726,0,0,1-.025-.125c0-.4.587-.674,1.024-.674.275,0,.487.087.549.325l1.91,6.766,1.9-6.766c.062-.237.275-.325.549-.325.437,0,1.024.287,1.024.674a.545.545,0,0,1-.025.125l-2.4,7.852c-.112.374-.574.549-1.049.549a1.032,1.032,0,0,1-1.049-.549Z" transform="translate(-227.738 -119.489)" fill="#9f0925"/>
      <path id="Trazado_722424" data-name="Trazado 722424" d="M350.857,270.591a.879.879,0,1,0,1.243-1.243l-1.913-1.913a.879.879,0,0,0-1.243,1.243Z" transform="translate(-307.825 -233.912)" fill="#9f0925"/>
      <path id="Trazado_722425" data-name="Trazado 722425" d="M134.158,53.89a.879.879,0,0,0,1.243-1.243l-1.913-1.913a.879.879,0,1,0-1.243,1.243Z" transform="translate(-116.52 -42.605)" fill="#9f0925"/>
      <path id="Trazado_722426" data-name="Trazado 722426" d="M249.379,6.679a.879.879,0,0,0,.879-.879V3.094a.879.879,0,1,0-1.758,0V5.8A.879.879,0,0,0,249.379,6.679Z" transform="translate(-219.379)" fill="#9f0925"/>
      <path id="Trazado_722427" data-name="Trazado 722427" d="M248.5,309.553v2.706a.879.879,0,0,0,1.758,0v-2.706a.879.879,0,1,0-1.758,0Z" transform="translate(-219.379 -270.546)" fill="#9f0925"/>
      <path id="Trazado_722428" data-name="Trazado 722428" d="M133.488,270.591l1.913-1.913a.879.879,0,1,0-1.243-1.243l-1.913,1.913a.879.879,0,1,0,1.243,1.243Z" transform="translate(-116.52 -233.912)" fill="#9f0925"/>
      <path id="Trazado_722429" data-name="Trazado 722429" d="M350.188,53.89l1.913-1.913a.879.879,0,1,0-1.243-1.243l-1.913,1.913a.879.879,0,0,0,1.243,1.243Z" transform="translate(-307.826 -42.605)" fill="#9f0925"/>
      <path id="Trazado_722430" data-name="Trazado 722430" d="M84.6,168.747h2.706a.879.879,0,0,0,0-1.758H84.6a.879.879,0,0,0,0,1.758Z" transform="translate(-73.914 -145.465)" fill="#9f0925"/>
      <path id="Trazado_722431" data-name="Trazado 722431" d="M391.064,168.747h2.706a.879.879,0,0,0,0-1.758h-2.706a.879.879,0,0,0,0,1.758Z" transform="translate(-344.46 -145.465)" fill="#9f0925"/>
      <path id="Trazado_722432" data-name="Trazado 722432" d="M392.958,454.075a.88.88,0,0,0,.848-1.113l-.582-2.111a.879.879,0,0,0-1.695.467l.582,2.111A.879.879,0,0,0,392.958,454.075Z" transform="translate(-345.619 -395.492)" fill="#9f0925"/>
      <path id="Trazado_722433" data-name="Trazado 722433" d="M334.765,454.075a.88.88,0,0,0,.848-1.113l-.582-2.111a.879.879,0,0,0-1.695.467l.582,2.111A.879.879,0,0,0,334.765,454.075Z" transform="translate(-294.245 -395.492)" fill="#9f0925"/>
      <path id="Trazado_722434" data-name="Trazado 722434" d="M276.572,454.075a.88.88,0,0,0,.848-1.113l-.582-2.111a.879.879,0,0,0-1.695.467l.582,2.111A.879.879,0,0,0,276.572,454.075Z" transform="translate(-242.872 -395.492)" fill="#9f0925"/>
      <path id="Trazado_722435" data-name="Trazado 722435" d="M218.379,454.075a.88.88,0,0,0,.848-1.113l-.582-2.111a.879.879,0,0,0-1.695.467l.582,2.111A.879.879,0,0,0,218.379,454.075Z" transform="translate(-191.498 -395.492)" fill="#9f0925"/>
      <path id="Trazado_722436" data-name="Trazado 722436" d="M160.185,454.075a.88.88,0,0,0,.848-1.113l-.582-2.111a.879.879,0,0,0-1.695.467l.582,2.111A.879.879,0,0,0,160.185,454.075Z" transform="translate(-140.124 -395.492)" fill="#9f0925"/>
      <path id="Trazado_722437" data-name="Trazado 722437" d="M101.993,454.075a.88.88,0,0,0,.848-1.113l-.582-2.111a.879.879,0,0,0-1.695.467l.582,2.111A.879.879,0,0,0,101.993,454.075Z" transform="translate(-88.751 -395.492)" fill="#9f0925"/>
      <path id="Trazado_722438" data-name="Trazado 722438" d="M43.8,454.075a.88.88,0,0,0,.848-1.113l-.582-2.111a.879.879,0,0,0-1.695.467l.582,2.111A.879.879,0,0,0,43.8,454.075Z" transform="translate(-37.377 -395.492)" fill="#9f0925"/>
      <path id="Trazado_722439" data-name="Trazado 722439" d="M451.151,454.075a.88.88,0,0,0,.848-1.113l-.582-2.111a.879.879,0,0,0-1.695.467l.582,2.111A.879.879,0,0,0,451.151,454.075Z" transform="translate(-396.992 -395.492)" fill="#9f0925"/>
      <path id="Trazado_722440" data-name="Trazado 722440" d="M58.058,249.229H39.438A26.123,26.123,0,0,0,54.4,233.975l.527,1.482a.879.879,0,0,0,1.656-.589L55.17,230.9a.879.879,0,0,0-1.209-.5l-3.549,1.705a.879.879,0,0,0,.761,1.584l1.758-.845a24.416,24.416,0,0,1-7.942,11.188,24.24,24.24,0,0,1-29.979,0,24.416,24.416,0,0,1-7.942-11.188l1.758.845a.879.879,0,0,0,.761-1.584l-3.549-1.705a.879.879,0,0,0-1.209.5l-1.41,3.965a.879.879,0,0,0,1.656.589l.527-1.482a26.123,26.123,0,0,0,14.959,15.254H1.942A1.944,1.944,0,0,0,0,251.171v2.682a.879.879,0,0,0,.879.879H59.121a.879.879,0,0,0,.879-.879v-2.682a1.944,1.944,0,0,0-1.942-1.942ZM1.942,250.987H58.058a.184.184,0,0,1,.184.184v1.8H1.758v-1.8a.184.184,0,0,1,.184-.184Z" transform="translate(0 -201.373)" fill="#9f0925"/>
      <path id="Trazado_722441" data-name="Trazado 722441" d="M59.121,494.785H.879a.879.879,0,0,0,0,1.758H59.121a.879.879,0,0,0,0-1.758Z" transform="translate(0 -434.847)" fill="#9f0925"/>
      <path id="Trazado_722442" data-name="Trazado 722442" d="M162.668,152.781a.879.879,0,1,0-1.452-.991,12.163,12.163,0,0,1-21.874-9.685.879.879,0,1,0-1.71-.409,13.918,13.918,0,0,0,25.035,11.085Z" transform="translate(-121.168 -122.541)" fill="#9f0925"/>
      <path id="Trazado_722443" data-name="Trazado 722443" d="M154.2,63.562a.879.879,0,0,0,1.21-.286,12.162,12.162,0,0,1,22.05,9.7.879.879,0,1,0,1.691.48,13.919,13.919,0,0,0-25.237-11.108.879.879,0,0,0,.286,1.21Z" transform="translate(-135.759 -47.253)" fill="#9f0925"/>
    </g>
  </g>
</svg>
