<svg xmlns="http://www.w3.org/2000/svg" width="100" height="100" viewBox="0 0 100 100">
  <g id="Grupo_80223" data-name="Grupo 80223" transform="translate(-1002 -3678)">
    <circle id="Elipse_4734" data-name="Elipse 4734" cx="50" cy="50" r="50" transform="translate(1002 3678)" fill="#b3eeef"/>
    <g id="Layer_12" data-name="Layer 12" transform="translate(1021.998 3698)">
      <path id="Trazado_722444" data-name="Trazado 722444" d="M59.121,30.822a2.812,2.812,0,0,0-2.094-.757c-2.505.15-5.017.272-7.531.381a5.634,5.634,0,0,0-3.583-3.884A7.5,7.5,0,0,0,42.9,21.171l-.534-5.344,3.086,1.852a.937.937,0,0,0,1.194-.193l5.625-6.563a.938.938,0,0,0-.111-1.33L40.914.218a.938.938,0,0,0-.6-.218h-7.5a.938.938,0,0,0-.938.938,1.875,1.875,0,1,1-3.75,0A.938.938,0,0,0,27.188,0h-7.5a.938.938,0,0,0-.6.218L7.837,9.593a.938.938,0,0,0-.111,1.33l5.625,6.563a.937.937,0,0,0,1.194.193l3.086-1.852L16.149,30.656c-.872-.026-1.742-.061-2.613-.094a4.733,4.733,0,0,0,1.339-4.476,4.639,4.639,0,0,0-3.5-3.474,4.687,4.687,0,0,0-4.882,1.865,3.593,3.593,0,0,0-1.835.025,3.8,3.8,0,0,0-2.748,3.1,3.757,3.757,0,0,0,.539,2.478,2.807,2.807,0,0,0,.195,5.586q1.491.094,2.981.168v.642a2.866,2.866,0,0,0,1.918,2.755,2.946,2.946,0,0,0,.894.141,2.79,2.79,0,0,0,1.658-.542,2.824,2.824,0,0,0,1.154-2.271v-.454q9.323.387,18.715.391c8.077,0,16.159-.228,24.2-.656L51.535,51.607a6.57,6.57,0,0,1-5.7,5.438A124.465,124.465,0,0,1,30,58.065a.938.938,0,1,0,0,1.875,126.344,126.344,0,0,0,16.07-1.031,8.438,8.438,0,0,0,7.312-6.992l2.7-16.173c.426-.024.853-.042,1.279-.068a2.812,2.812,0,0,0,1.764-4.852ZM44.063,27.166c0,.022,0,.094,0,.115a.938.938,0,0,0,.75.919,3.75,3.75,0,0,1,2.741,2.325c-7.661.3-15.35.4-23.019.308a3.756,3.756,0,0,1,3.137-2.658.938.938,0,0,0,.75-.563,3.743,3.743,0,0,1,3.458-2.3,2.6,2.6,0,0,1,.365.037l.124.017a.938.938,0,0,0,.973-.535,5.625,5.625,0,0,1,10.726,2.335ZM19.252,13.27a.938.938,0,0,0-.984-.011l-4.008,2.4-4.492-5.24L20.027,1.875h6.342a3.75,3.75,0,0,0,7.262,0h6.342l10.259,8.549-4.492,5.24-4.008-2.4a.937.937,0,0,0-1.416.9l.6,5.96a7.46,7.46,0,0,0-8.964,3.322A5.608,5.608,0,0,0,26.918,26.4a5.625,5.625,0,0,0-4.3,4.406c-1.532-.025-3.061-.064-4.594-.1l1.663-16.549A.938.938,0,0,0,19.252,13.27ZM2.757,33.8a.943.943,0,0,1-.882-.937.915.915,0,0,1,.291-.674.95.95,0,0,1,.7-.25q1.381.083,2.763.156v1.875C4.669,33.911,3.714,33.86,2.757,33.8Zm6.618,2.76a.928.928,0,0,1-.384.757.964.964,0,0,1-.881.128,1,1,0,0,1-.609-.964V30.938A.938.938,0,0,0,6.563,30H5.625a1.875,1.875,0,0,1-1.856-2.142,1.926,1.926,0,0,1,1.388-1.543,1.781,1.781,0,0,1,.469-.065,1.837,1.837,0,0,1,.854.218.938.938,0,0,0,1.283-.443,2.812,2.812,0,1,1,3.5,3.813,2.738,2.738,0,0,0-1.886,2.57ZM57.243,33.8a452.33,452.33,0,0,1-45.993.428V32.407c0-.016.007-.03.008-.045a453.677,453.677,0,0,0,45.88-.425.959.959,0,0,1,.7.25.915.915,0,0,1,.291.674.943.943,0,0,1-.882.941Z" transform="translate(0 0)" fill="#9f0925"/>
      <path id="Trazado_722445" data-name="Trazado 722445" d="M4.813,19.625A2.813,2.813,0,1,0,2,16.813,2.813,2.813,0,0,0,4.813,19.625Zm0-3.75a.938.938,0,1,1-.938.938A.938.938,0,0,1,4.813,15.875Z" transform="translate(-0.125 -0.875)" fill="#9f0925"/>
      <path id="Trazado_722446" data-name="Trazado 722446" d="M58.813,7.625A2.813,2.813,0,1,0,56,4.813a2.813,2.813,0,0,0,2.812,2.813Zm0-3.75a.938.938,0,1,1-.937.938A.938.938,0,0,1,58.813,3.875Z" transform="translate(-3.5 -0.125)" fill="#9f0925"/>
      <path id="Trazado_722447" data-name="Trazado 722447" d="M57,18.813A2.813,2.813,0,1,0,59.813,16,2.813,2.813,0,0,0,57,18.813Zm3.75,0a.938.938,0,1,1-.937-.937A.938.938,0,0,1,60.75,18.813Z" transform="translate(-3.562 -1)" fill="#9f0925"/>
      <path id="Trazado_722448" data-name="Trazado 722448" d="M29.75,17.5A3.75,3.75,0,1,0,26,13.75,3.75,3.75,0,0,0,29.75,17.5Zm0-5.625a1.875,1.875,0,1,1-1.875,1.875A1.875,1.875,0,0,1,29.75,11.875Z" transform="translate(-1.625 -0.625)" fill="#9f0925"/>
      <path id="Trazado_722449" data-name="Trazado 722449" d="M46.625,46.813a2.813,2.813,0,1,0-2.812,2.813A2.812,2.812,0,0,0,46.625,46.813Zm-3.75,0a.938.938,0,1,1,.938.938A.937.937,0,0,1,42.875,46.813Z" transform="translate(-2.562 -2.75)" fill="#9f0925"/>
      <path id="Trazado_722450" data-name="Trazado 722450" d="M25.531,55.214a3.75,3.75,0,0,0-7.379.4,3.742,3.742,0,0,0-1.9,3.251,3.677,3.677,0,0,0,.158,1.015c-.641-.072-1.283-.136-1.925-.218a6.57,6.57,0,0,1-5.7-5.437L6.866,42.738a.937.937,0,1,0-1.849.308L6.931,54.535a8.438,8.438,0,0,0,7.313,6.992c1.2.156,2.406.29,3.608.41A3.721,3.721,0,0,0,20,62.621h4.688a3.75,3.75,0,0,0,.844-7.406Zm-.844,5.531H20a1.868,1.868,0,0,1-.612-3.635.938.938,0,0,0,.628-.932A.563.563,0,0,0,20,56.058a1.875,1.875,0,1,1,3.75,0,.938.938,0,0,0,.938.938,1.875,1.875,0,1,1,0,3.75Z" transform="translate(-0.312 -2.621)" fill="#9f0925"/>
    </g>
  </g>
</svg>
