<svg xmlns="http://www.w3.org/2000/svg" width="100" height="100" viewBox="0 0 100 100">
  <g id="Grupo_80222" data-name="Grupo 80222" transform="translate(-1253 -3678)">
    <circle id="Elipse_4735" data-name="Elipse 4735" cx="50" cy="50" r="50" transform="translate(1253 3678)" fill="#b3eeef"/>
    <g id="documento" transform="translate(1275.991 3701)">
      <path id="Trazado_722451" data-name="Trazado 722451" d="M17.812,12.249h3.625a1.812,1.812,0,0,0,1.812-1.812V6.812A1.812,1.812,0,0,0,21.437,5H17.812A1.812,1.812,0,0,0,16,6.812v3.625A1.812,1.812,0,0,0,17.812,12.249Zm0-5.437h3.625v3.625H17.812Z" transform="translate(-1.406 -0.469)" fill="#9f0925"/>
      <path id="Trazado_722452" data-name="Trazado 722452" d="M26.906,7.812h3.625a.906.906,0,0,0,0-1.812H26.906a.906.906,0,0,0,0,1.812Z" transform="translate(-2.345 -0.563)" fill="#9f0925"/>
      <path id="Trazado_722453" data-name="Trazado 722453" d="M34.906,7.812h6.343a.906.906,0,0,0,0-1.812H34.906a.906.906,0,0,0,0,1.812Z" transform="translate(-3.095 -0.563)" fill="#9f0925"/>
      <path id="Trazado_722454" data-name="Trazado 722454" d="M26.906,11.812h9.968a.906.906,0,0,0,0-1.812H26.906a.906.906,0,0,0,0,1.812Z" transform="translate(-2.345 -0.938)" fill="#9f0925"/>
      <path id="Trazado_722455" data-name="Trazado 722455" d="M6.966,47.122h3.1v1.812A5.443,5.443,0,0,0,15.5,54.371H48.122a5.443,5.443,0,0,0,5.437-5.437V13.285a4.563,4.563,0,0,0-1.326-3.205L43.48,1.326A4.563,4.563,0,0,0,40.275,0H15.5a5.443,5.443,0,0,0-5.437,5.437v19.3L1.9,38a5.981,5.981,0,0,0,5.069,9.117Zm43.5-36.247H44.5a1.812,1.812,0,0,1-1.812-1.812V3.094ZM11.875,5.437A3.625,3.625,0,0,1,15.5,1.812H40.275a2.708,2.708,0,0,1,.6.073V9.062A3.625,3.625,0,0,0,44.5,12.687h7.176a2.708,2.708,0,0,1,.073.6V48.934a3.625,3.625,0,0,1-3.625,3.625H15.5a3.625,3.625,0,0,1-3.625-3.625V47.122H31.283A5.981,5.981,0,0,0,36.352,38L24.194,18.242a5.947,5.947,0,0,0-10.138,0l-2.18,3.544ZM3.44,38.954,15.6,19.192a4.136,4.136,0,0,1,7.052,0L34.809,38.954a4.168,4.168,0,0,1-3.526,6.355H6.966A4.168,4.168,0,0,1,3.44,38.954Z" transform="translate(0)" fill="#9f0925"/>
      <path id="Trazado_722456" data-name="Trazado 722456" d="M20.625,47.249A3.625,3.625,0,1,0,17,43.625,3.625,3.625,0,0,0,20.625,47.249Zm0-5.437a1.812,1.812,0,1,1-1.812,1.812A1.812,1.812,0,0,1,20.625,41.812Z" transform="translate(-1.5 -3.753)" fill="#9f0925"/>
      <path id="Trazado_722457" data-name="Trazado 722457" d="M20.625,36.687c2.84,0,3.625-8.971,3.625-9.062a3.625,3.625,0,1,0-7.249,0C17,27.715,17.785,36.687,20.625,36.687Zm0-10.874a1.812,1.812,0,0,1,1.812,1.812c0,1.625-1.038,6.134-1.812,7.131-.775-1-1.812-5.506-1.812-7.131A1.812,1.812,0,0,1,20.625,25.812Z" transform="translate(-1.5 -2.252)" fill="#9f0925"/>
    </g>
  </g>
</svg>
